G04 #@! TF.GenerationSoftware,KiCad,Pcbnew,7.0.5-0*
G04 #@! TF.CreationDate,2023-07-23T12:14:28-07:00*
G04 #@! TF.ProjectId,switched-bandpass-filter,73776974-6368-4656-942d-62616e647061,v1.0*
G04 #@! TF.SameCoordinates,Original*
G04 #@! TF.FileFunction,Soldermask,Bot*
G04 #@! TF.FilePolarity,Negative*
%FSLAX46Y46*%
G04 Gerber Fmt 4.6, Leading zero omitted, Abs format (unit mm)*
G04 Created by KiCad (PCBNEW 7.0.5-0) date 2023-07-23 12:14:28*
%MOMM*%
%LPD*%
G01*
G04 APERTURE LIST*
G04 Aperture macros list*
%AMRoundRect*
0 Rectangle with rounded corners*
0 $1 Rounding radius*
0 $2 $3 $4 $5 $6 $7 $8 $9 X,Y pos of 4 corners*
0 Add a 4 corners polygon primitive as box body*
4,1,4,$2,$3,$4,$5,$6,$7,$8,$9,$2,$3,0*
0 Add four circle primitives for the rounded corners*
1,1,$1+$1,$2,$3*
1,1,$1+$1,$4,$5*
1,1,$1+$1,$6,$7*
1,1,$1+$1,$8,$9*
0 Add four rect primitives between the rounded corners*
20,1,$1+$1,$2,$3,$4,$5,0*
20,1,$1+$1,$4,$5,$6,$7,0*
20,1,$1+$1,$6,$7,$8,$9,0*
20,1,$1+$1,$8,$9,$2,$3,0*%
G04 Aperture macros list end*
%ADD10C,2.050000*%
%ADD11C,2.250000*%
%ADD12R,1.700000X1.700000*%
%ADD13O,1.700000X1.700000*%
%ADD14C,0.800000*%
%ADD15C,6.400000*%
%ADD16RoundRect,0.250000X-1.100000X0.325000X-1.100000X-0.325000X1.100000X-0.325000X1.100000X0.325000X0*%
%ADD17RoundRect,0.250000X0.375000X1.075000X-0.375000X1.075000X-0.375000X-1.075000X0.375000X-1.075000X0*%
%ADD18RoundRect,0.250000X-1.075000X0.375000X-1.075000X-0.375000X1.075000X-0.375000X1.075000X0.375000X0*%
G04 APERTURE END LIST*
D10*
X144907000Y-128270000D03*
D11*
X142367000Y-125730000D03*
X142367000Y-130810000D03*
X147447000Y-125730000D03*
X147447000Y-130810000D03*
D12*
X91440000Y-72390000D03*
X91440000Y-104563300D03*
X135128000Y-64770000D03*
D13*
X132588000Y-64770000D03*
X130048000Y-64770000D03*
X127508000Y-64770000D03*
X124968000Y-64770000D03*
X122428000Y-64770000D03*
D14*
X89929000Y-129032000D03*
X90631944Y-127334944D03*
X90631944Y-130729056D03*
X92329000Y-126632000D03*
D15*
X92329000Y-129032000D03*
D14*
X92329000Y-131432000D03*
X94026056Y-127334944D03*
X94026056Y-130729056D03*
X94729000Y-129032000D03*
D10*
X120269000Y-127635000D03*
D11*
X117729000Y-125095000D03*
X117729000Y-130175000D03*
X122809000Y-125095000D03*
X122809000Y-130175000D03*
D12*
X166370000Y-88476700D03*
X166370000Y-72390000D03*
D14*
X163462000Y-64643000D03*
X164164944Y-62945944D03*
X164164944Y-66340056D03*
X165862000Y-62243000D03*
D15*
X165862000Y-64643000D03*
D14*
X165862000Y-67043000D03*
X167559056Y-62945944D03*
X167559056Y-66340056D03*
X168262000Y-64643000D03*
X163348000Y-128905000D03*
X164050944Y-127207944D03*
X164050944Y-130602056D03*
X165748000Y-126505000D03*
D15*
X165748000Y-128905000D03*
D14*
X165748000Y-131305000D03*
X167445056Y-127207944D03*
X167445056Y-130602056D03*
X168148000Y-128905000D03*
D12*
X166370000Y-120650000D03*
X91440000Y-120650000D03*
D14*
X89789000Y-64516000D03*
X90491944Y-62818944D03*
X90491944Y-66213056D03*
X92189000Y-62116000D03*
D15*
X92189000Y-64516000D03*
D14*
X92189000Y-66916000D03*
X93886056Y-62818944D03*
X93886056Y-66213056D03*
X94589000Y-64516000D03*
D12*
X91440000Y-88476700D03*
X166370000Y-104563300D03*
D16*
X109349000Y-88900000D03*
X109349000Y-91850000D03*
D17*
X104524000Y-115359000D03*
X101724000Y-115359000D03*
D18*
X114554000Y-115564000D03*
X114554000Y-118364000D03*
D17*
X139959000Y-88900000D03*
X137159000Y-88900000D03*
D18*
X132080000Y-101470000D03*
X132080000Y-104270000D03*
D16*
X109602000Y-74754000D03*
X109602000Y-77704000D03*
D17*
X157994000Y-115564000D03*
X155194000Y-115564000D03*
X122050000Y-101600000D03*
X119250000Y-101600000D03*
X157739000Y-88900000D03*
X154939000Y-88900000D03*
D16*
X109474000Y-115359000D03*
X109474000Y-118309000D03*
D18*
X114682000Y-74754000D03*
X114682000Y-77554000D03*
X132209000Y-88770000D03*
X132209000Y-91570000D03*
X149984000Y-115639000D03*
X149984000Y-118439000D03*
D17*
X122302000Y-74754000D03*
X119502000Y-74754000D03*
X140212000Y-74754000D03*
X137412000Y-74754000D03*
D16*
X127129000Y-88695000D03*
X127129000Y-91645000D03*
D18*
X114300000Y-101470000D03*
X114300000Y-104270000D03*
D17*
X104269000Y-88900000D03*
X101469000Y-88900000D03*
D16*
X127000000Y-101395000D03*
X127000000Y-104345000D03*
X144909000Y-88900000D03*
X144909000Y-91850000D03*
X127254000Y-115619000D03*
X127254000Y-118569000D03*
X127382000Y-74549000D03*
X127382000Y-77499000D03*
X145034000Y-115564000D03*
X145034000Y-118514000D03*
D18*
X132462000Y-74754000D03*
X132462000Y-77554000D03*
X132334000Y-115564000D03*
X132334000Y-118364000D03*
D17*
X122049000Y-88900000D03*
X119249000Y-88900000D03*
X157992000Y-74754000D03*
X155192000Y-74754000D03*
D18*
X149989000Y-88640000D03*
X149989000Y-91440000D03*
D16*
X109220000Y-101395000D03*
X109220000Y-104345000D03*
D18*
X114429000Y-88640000D03*
X114429000Y-91440000D03*
D17*
X104270000Y-101600000D03*
X101470000Y-101600000D03*
D16*
X144780000Y-101395000D03*
X144780000Y-104345000D03*
D18*
X149860000Y-101470000D03*
X149860000Y-104270000D03*
D17*
X139830000Y-101600000D03*
X137030000Y-101600000D03*
X157480000Y-101600000D03*
X154680000Y-101600000D03*
X122174000Y-115359000D03*
X119374000Y-115359000D03*
D18*
X150242000Y-74754000D03*
X150242000Y-77554000D03*
D17*
X104522000Y-74754000D03*
X101722000Y-74754000D03*
D16*
X145162000Y-74754000D03*
X145162000Y-77704000D03*
D17*
X140214000Y-115564000D03*
X137414000Y-115564000D03*
G36*
X166711979Y-94002382D02*
G01*
X166790611Y-94018022D01*
X166835311Y-94036537D01*
X166891623Y-94074163D01*
X166925836Y-94108376D01*
X166963462Y-94164688D01*
X166981976Y-94209387D01*
X166997617Y-94288019D01*
X167000000Y-94312210D01*
X167000000Y-96687789D01*
X166997617Y-96711980D01*
X166981976Y-96790612D01*
X166963462Y-96835311D01*
X166925836Y-96891623D01*
X166891623Y-96925836D01*
X166835311Y-96963462D01*
X166790612Y-96981976D01*
X166711980Y-96997617D01*
X166687789Y-97000000D01*
X91312211Y-97000000D01*
X91288020Y-96997617D01*
X91209387Y-96981976D01*
X91164688Y-96963462D01*
X91108376Y-96925836D01*
X91074163Y-96891623D01*
X91036537Y-96835311D01*
X91018022Y-96790611D01*
X91002382Y-96711979D01*
X91000000Y-96687789D01*
X91000000Y-94312210D01*
X91002382Y-94288020D01*
X91018022Y-94209388D01*
X91036537Y-94164688D01*
X91074163Y-94108376D01*
X91108376Y-94074163D01*
X91164688Y-94036537D01*
X91209388Y-94018022D01*
X91288021Y-94002382D01*
X91312211Y-94000000D01*
X166687789Y-94000000D01*
X166711979Y-94002382D01*
G37*
G36*
X166711979Y-81002382D02*
G01*
X166790611Y-81018022D01*
X166835311Y-81036537D01*
X166891623Y-81074163D01*
X166925836Y-81108376D01*
X166963462Y-81164688D01*
X166981976Y-81209387D01*
X166997617Y-81288019D01*
X167000000Y-81312210D01*
X167000000Y-83687789D01*
X166997617Y-83711980D01*
X166981976Y-83790612D01*
X166963462Y-83835311D01*
X166925836Y-83891623D01*
X166891623Y-83925836D01*
X166835311Y-83963462D01*
X166790612Y-83981976D01*
X166711980Y-83997617D01*
X166687789Y-84000000D01*
X91312211Y-84000000D01*
X91288020Y-83997617D01*
X91209387Y-83981976D01*
X91164688Y-83963462D01*
X91108376Y-83925836D01*
X91074163Y-83891623D01*
X91036537Y-83835311D01*
X91018022Y-83790611D01*
X91002382Y-83711979D01*
X91000000Y-83687789D01*
X91000000Y-81312210D01*
X91002382Y-81288020D01*
X91018022Y-81209388D01*
X91036537Y-81164688D01*
X91074163Y-81108376D01*
X91108376Y-81074163D01*
X91164688Y-81036537D01*
X91209388Y-81018022D01*
X91288021Y-81002382D01*
X91312211Y-81000000D01*
X166687789Y-81000000D01*
X166711979Y-81002382D01*
G37*
G36*
X166711979Y-109002382D02*
G01*
X166790611Y-109018022D01*
X166835311Y-109036537D01*
X166891623Y-109074163D01*
X166925836Y-109108376D01*
X166963462Y-109164688D01*
X166981976Y-109209387D01*
X166997617Y-109288019D01*
X167000000Y-109312210D01*
X167000000Y-111687789D01*
X166997617Y-111711980D01*
X166981976Y-111790612D01*
X166963462Y-111835311D01*
X166925836Y-111891623D01*
X166891623Y-111925836D01*
X166835311Y-111963462D01*
X166790612Y-111981976D01*
X166711980Y-111997617D01*
X166687789Y-112000000D01*
X91312211Y-112000000D01*
X91288020Y-111997617D01*
X91209387Y-111981976D01*
X91164688Y-111963462D01*
X91108376Y-111925836D01*
X91074163Y-111891623D01*
X91036537Y-111835311D01*
X91018022Y-111790611D01*
X91002382Y-111711979D01*
X91000000Y-111687789D01*
X91000000Y-109312210D01*
X91002382Y-109288020D01*
X91018022Y-109209388D01*
X91036537Y-109164688D01*
X91074163Y-109108376D01*
X91108376Y-109074163D01*
X91164688Y-109036537D01*
X91209388Y-109018022D01*
X91288021Y-109002382D01*
X91312211Y-109000000D01*
X166687789Y-109000000D01*
X166711979Y-109002382D01*
G37*
M02*
