G04 #@! TF.GenerationSoftware,KiCad,Pcbnew,7.0.5-0*
G04 #@! TF.CreationDate,2023-07-23T12:14:27-07:00*
G04 #@! TF.ProjectId,switched-bandpass-filter,73776974-6368-4656-942d-62616e647061,v1.0*
G04 #@! TF.SameCoordinates,Original*
G04 #@! TF.FileFunction,Copper,L1,Top*
G04 #@! TF.FilePolarity,Positive*
%FSLAX46Y46*%
G04 Gerber Fmt 4.6, Leading zero omitted, Abs format (unit mm)*
G04 Created by KiCad (PCBNEW 7.0.5-0) date 2023-07-23 12:14:27*
%MOMM*%
%LPD*%
G01*
G04 APERTURE LIST*
G04 Aperture macros list*
%AMRoundRect*
0 Rectangle with rounded corners*
0 $1 Rounding radius*
0 $2 $3 $4 $5 $6 $7 $8 $9 X,Y pos of 4 corners*
0 Add a 4 corners polygon primitive as box body*
4,1,4,$2,$3,$4,$5,$6,$7,$8,$9,$2,$3,0*
0 Add four circle primitives for the rounded corners*
1,1,$1+$1,$2,$3*
1,1,$1+$1,$4,$5*
1,1,$1+$1,$6,$7*
1,1,$1+$1,$8,$9*
0 Add four rect primitives between the rounded corners*
20,1,$1+$1,$2,$3,$4,$5,0*
20,1,$1+$1,$4,$5,$6,$7,0*
20,1,$1+$1,$6,$7,$8,$9,0*
20,1,$1+$1,$8,$9,$2,$3,0*%
%AMFreePoly0*
4,1,9,5.362500,-0.866500,1.237500,-0.866500,1.237500,-0.450000,-1.237500,-0.450000,-1.237500,0.450000,1.237500,0.450000,1.237500,0.866500,5.362500,0.866500,5.362500,-0.866500,5.362500,-0.866500,$1*%
G04 Aperture macros list end*
G04 #@! TA.AperFunction,ComponentPad*
%ADD10C,2.050000*%
G04 #@! TD*
G04 #@! TA.AperFunction,ComponentPad*
%ADD11C,2.250000*%
G04 #@! TD*
G04 #@! TA.AperFunction,ComponentPad*
%ADD12R,1.700000X1.700000*%
G04 #@! TD*
G04 #@! TA.AperFunction,SMDPad,CuDef*
%ADD13RoundRect,0.250000X-0.312500X-1.075000X0.312500X-1.075000X0.312500X1.075000X-0.312500X1.075000X0*%
G04 #@! TD*
G04 #@! TA.AperFunction,ComponentPad*
%ADD14O,1.700000X1.700000*%
G04 #@! TD*
G04 #@! TA.AperFunction,ComponentPad*
%ADD15C,0.800000*%
G04 #@! TD*
G04 #@! TA.AperFunction,ComponentPad*
%ADD16C,6.400000*%
G04 #@! TD*
G04 #@! TA.AperFunction,SMDPad,CuDef*
%ADD17RoundRect,0.250000X0.375000X1.075000X-0.375000X1.075000X-0.375000X-1.075000X0.375000X-1.075000X0*%
G04 #@! TD*
G04 #@! TA.AperFunction,SMDPad,CuDef*
%ADD18RoundRect,0.250000X-0.375000X-1.075000X0.375000X-1.075000X0.375000X1.075000X-0.375000X1.075000X0*%
G04 #@! TD*
G04 #@! TA.AperFunction,SMDPad,CuDef*
%ADD19RoundRect,0.150000X-0.825000X-0.150000X0.825000X-0.150000X0.825000X0.150000X-0.825000X0.150000X0*%
G04 #@! TD*
G04 #@! TA.AperFunction,SMDPad,CuDef*
%ADD20RoundRect,0.250000X0.325000X1.100000X-0.325000X1.100000X-0.325000X-1.100000X0.325000X-1.100000X0*%
G04 #@! TD*
G04 #@! TA.AperFunction,SMDPad,CuDef*
%ADD21RoundRect,0.150000X0.587500X0.150000X-0.587500X0.150000X-0.587500X-0.150000X0.587500X-0.150000X0*%
G04 #@! TD*
G04 #@! TA.AperFunction,SMDPad,CuDef*
%ADD22R,2.300000X0.900000*%
G04 #@! TD*
G04 #@! TA.AperFunction,SMDPad,CuDef*
%ADD23FreePoly0,0.000000*%
G04 #@! TD*
G04 #@! TA.AperFunction,SMDPad,CuDef*
%ADD24RoundRect,0.250000X-0.325000X-1.100000X0.325000X-1.100000X0.325000X1.100000X-0.325000X1.100000X0*%
G04 #@! TD*
G04 #@! TA.AperFunction,ViaPad*
%ADD25C,0.600000*%
G04 #@! TD*
G04 #@! TA.AperFunction,Conductor*
%ADD26C,0.152400*%
G04 #@! TD*
G04 #@! TA.AperFunction,Conductor*
%ADD27C,0.300000*%
G04 #@! TD*
G04 APERTURE END LIST*
D10*
X144907000Y-128270000D03*
D11*
X142367000Y-125730000D03*
X142367000Y-130810000D03*
X147447000Y-125730000D03*
X147447000Y-130810000D03*
D12*
X91440000Y-72390000D03*
X91440000Y-104563300D03*
D13*
X134620000Y-82550000D03*
X137545000Y-82550000D03*
D12*
X135128000Y-64770000D03*
D14*
X132588000Y-64770000D03*
X130048000Y-64770000D03*
X127508000Y-64770000D03*
X124968000Y-64770000D03*
X122428000Y-64770000D03*
D13*
X121727500Y-91440000D03*
X124652500Y-91440000D03*
D15*
X89929000Y-129032000D03*
X90631944Y-127334944D03*
X90631944Y-130729056D03*
X92329000Y-126632000D03*
D16*
X92329000Y-129032000D03*
D15*
X92329000Y-131432000D03*
X94026056Y-127334944D03*
X94026056Y-130729056D03*
X94729000Y-129032000D03*
D17*
X116970000Y-83030000D03*
X114170000Y-83030000D03*
D18*
X114040000Y-76680000D03*
X116840000Y-76680000D03*
D17*
X116840000Y-90170000D03*
X114040000Y-90170000D03*
D19*
X127130000Y-101110000D03*
X127130000Y-102380000D03*
X127130000Y-103650000D03*
X127130000Y-104920000D03*
X127130000Y-106190000D03*
X127130000Y-107460000D03*
X127130000Y-108730000D03*
X127130000Y-110000000D03*
X132080000Y-110000000D03*
X132080000Y-108730000D03*
X132080000Y-107460000D03*
X132080000Y-106190000D03*
X132080000Y-104920000D03*
X132080000Y-103650000D03*
X132080000Y-102380000D03*
X132080000Y-101110000D03*
D18*
X114170000Y-97000000D03*
X116970000Y-97000000D03*
D10*
X120269000Y-127635000D03*
D11*
X117729000Y-125095000D03*
X117729000Y-130175000D03*
X122809000Y-125095000D03*
X122809000Y-130175000D03*
D12*
X166370000Y-88476700D03*
D13*
X121535000Y-82550000D03*
X124460000Y-82550000D03*
D20*
X141556000Y-76835000D03*
X138606000Y-76835000D03*
D12*
X166370000Y-72390000D03*
D15*
X163462000Y-64643000D03*
X164164944Y-62945944D03*
X164164944Y-66340056D03*
X165862000Y-62243000D03*
D16*
X165862000Y-64643000D03*
D15*
X165862000Y-67043000D03*
X167559056Y-62945944D03*
X167559056Y-66340056D03*
X168262000Y-64643000D03*
D21*
X130477500Y-92390000D03*
X130477500Y-90490000D03*
X128602500Y-91440000D03*
D15*
X163348000Y-128905000D03*
X164050944Y-127207944D03*
X164050944Y-130602056D03*
X165748000Y-126505000D03*
D16*
X165748000Y-128905000D03*
D15*
X165748000Y-131305000D03*
X167445056Y-127207944D03*
X167445056Y-130602056D03*
X168148000Y-128905000D03*
D12*
X166370000Y-120650000D03*
D22*
X148680000Y-74700000D03*
D23*
X148767500Y-76200000D03*
D22*
X148680000Y-77700000D03*
D12*
X91440000Y-120650000D03*
D15*
X89789000Y-64516000D03*
X90491944Y-62818944D03*
X90491944Y-66213056D03*
X92189000Y-62116000D03*
D16*
X92189000Y-64516000D03*
D15*
X92189000Y-66916000D03*
X93886056Y-62818944D03*
X93886056Y-66213056D03*
X94589000Y-64516000D03*
D13*
X134427500Y-91440000D03*
X137352500Y-91440000D03*
D24*
X156513000Y-73279000D03*
X159463000Y-73279000D03*
D12*
X91440000Y-88476700D03*
D21*
X130477500Y-83500000D03*
X130477500Y-81600000D03*
X128602500Y-82550000D03*
D12*
X166370000Y-104563300D03*
D25*
X113325000Y-85904000D03*
X148885000Y-63044000D03*
X126025000Y-83364000D03*
X166665000Y-83364000D03*
X146345000Y-96064000D03*
X113325000Y-111304000D03*
X103165000Y-124004000D03*
X143805000Y-83364000D03*
X169205000Y-70664000D03*
X103165000Y-111304000D03*
X105705000Y-78284000D03*
X161585000Y-83364000D03*
X110785000Y-131624000D03*
X103165000Y-63044000D03*
X141265000Y-98604000D03*
X159045000Y-83364000D03*
X95545000Y-78284000D03*
X100625000Y-63044000D03*
X148885000Y-83364000D03*
X110785000Y-70664000D03*
X93005000Y-80824000D03*
X98085000Y-101144000D03*
X151425000Y-68124000D03*
X164125000Y-96064000D03*
X105705000Y-90984000D03*
X136185000Y-106224000D03*
X105705000Y-93524000D03*
X136185000Y-78284000D03*
X151425000Y-126544000D03*
X138725000Y-85904000D03*
X146345000Y-73204000D03*
X93005000Y-75744000D03*
X110785000Y-68124000D03*
X103165000Y-65584000D03*
X110785000Y-96064000D03*
X110785000Y-93524000D03*
X118405000Y-63044000D03*
X95545000Y-98604000D03*
X151425000Y-131624000D03*
X169205000Y-96064000D03*
X166665000Y-116384000D03*
X166665000Y-96064000D03*
X151425000Y-121464000D03*
X90465000Y-116384000D03*
X100625000Y-111304000D03*
X133645000Y-85904000D03*
X153965000Y-126544000D03*
X159045000Y-68124000D03*
X153965000Y-80824000D03*
X100625000Y-129084000D03*
X126025000Y-111304000D03*
X108245000Y-129084000D03*
X123485000Y-68124000D03*
X100625000Y-70664000D03*
X93005000Y-93524000D03*
X105705000Y-80824000D03*
X169205000Y-124004000D03*
X110785000Y-83364000D03*
X161585000Y-68124000D03*
X103165000Y-93524000D03*
X138725000Y-121464000D03*
X138725000Y-111304000D03*
X108245000Y-113844000D03*
X128565000Y-98604000D03*
X100625000Y-131624000D03*
X151425000Y-113844000D03*
X105705000Y-131624000D03*
X159045000Y-103684000D03*
X153965000Y-131624000D03*
X123485000Y-63044000D03*
X126025000Y-85904000D03*
X90465000Y-101144000D03*
X108245000Y-111304000D03*
X138725000Y-63044000D03*
X110785000Y-73204000D03*
X98085000Y-63044000D03*
X95545000Y-124004000D03*
X156505000Y-124004000D03*
X146345000Y-113844000D03*
X151425000Y-93524000D03*
X141265000Y-108764000D03*
X128565000Y-126544000D03*
X136185000Y-126544000D03*
X95545000Y-80824000D03*
X118405000Y-121464000D03*
X110785000Y-111304000D03*
X169205000Y-75744000D03*
X164125000Y-116384000D03*
X146345000Y-108764000D03*
X169205000Y-73204000D03*
X115865000Y-121464000D03*
X133645000Y-129084000D03*
X143805000Y-80824000D03*
X133645000Y-124004000D03*
X108245000Y-124004000D03*
X143805000Y-73204000D03*
X133645000Y-63044000D03*
X115865000Y-108764000D03*
X169205000Y-103684000D03*
X93005000Y-118924000D03*
X93005000Y-90984000D03*
X108245000Y-126544000D03*
X166665000Y-75744000D03*
X169205000Y-78284000D03*
X108245000Y-96064000D03*
X136185000Y-108764000D03*
X128565000Y-96064000D03*
X146345000Y-65584000D03*
X159045000Y-65584000D03*
X169205000Y-80824000D03*
X146345000Y-80824000D03*
X95545000Y-68124000D03*
X128565000Y-131624000D03*
X108245000Y-80824000D03*
X164125000Y-106224000D03*
X115865000Y-63044000D03*
X98085000Y-75744000D03*
X148885000Y-70664000D03*
X159045000Y-70664000D03*
X105705000Y-126544000D03*
X110785000Y-80824000D03*
X98085000Y-126544000D03*
X131105000Y-63044000D03*
X113325000Y-65584000D03*
X100625000Y-85904000D03*
X108245000Y-121464000D03*
X93005000Y-98604000D03*
X98085000Y-85904000D03*
X133645000Y-126544000D03*
X164125000Y-83364000D03*
X153965000Y-96064000D03*
X156505000Y-106224000D03*
X118405000Y-80824000D03*
X153965000Y-121464000D03*
X98085000Y-98604000D03*
X115865000Y-111304000D03*
X136185000Y-63044000D03*
X156505000Y-85904000D03*
X148885000Y-96064000D03*
X136185000Y-118924000D03*
X128565000Y-113844000D03*
X161585000Y-106224000D03*
X93005000Y-116384000D03*
X159045000Y-121464000D03*
X138725000Y-126544000D03*
X90465000Y-90984000D03*
X148885000Y-113844000D03*
X169205000Y-93524000D03*
X141265000Y-121464000D03*
X98085000Y-65584000D03*
X136185000Y-131624000D03*
X169205000Y-83364000D03*
X136185000Y-98604000D03*
X131105000Y-124004000D03*
X161585000Y-113844000D03*
X166665000Y-108764000D03*
X156505000Y-131624000D03*
X141265000Y-70664000D03*
X161585000Y-121464000D03*
X103165000Y-108764000D03*
X90465000Y-106224000D03*
X131105000Y-68124000D03*
X143805000Y-96064000D03*
X113325000Y-121464000D03*
X164125000Y-70664000D03*
X103165000Y-118924000D03*
X146345000Y-106224000D03*
X161585000Y-90984000D03*
X156505000Y-108764000D03*
X164125000Y-103684000D03*
X98085000Y-124004000D03*
X126025000Y-124004000D03*
X138725000Y-70664000D03*
X151425000Y-96064000D03*
X95545000Y-101144000D03*
X126025000Y-113844000D03*
X146345000Y-70664000D03*
X131105000Y-111304000D03*
X161585000Y-65584000D03*
X90465000Y-75744000D03*
X136185000Y-68124000D03*
X128565000Y-93524000D03*
X166665000Y-124004000D03*
X166665000Y-85904000D03*
X161585000Y-85904000D03*
X169205000Y-113844000D03*
X136185000Y-121464000D03*
X108245000Y-65584000D03*
X123485000Y-78284000D03*
X143805000Y-63044000D03*
X166665000Y-113844000D03*
X128565000Y-85904000D03*
X128565000Y-70664000D03*
X100625000Y-78284000D03*
X169205000Y-116384000D03*
X153965000Y-108764000D03*
X113325000Y-129084000D03*
X103165000Y-68124000D03*
X90465000Y-78284000D03*
X169205000Y-85904000D03*
X105705000Y-103684000D03*
X169205000Y-106224000D03*
X166665000Y-80824000D03*
X118405000Y-70664000D03*
X103165000Y-98604000D03*
X93005000Y-70664000D03*
X131105000Y-70664000D03*
X113325000Y-63044000D03*
X95545000Y-116384000D03*
X90465000Y-85904000D03*
X169205000Y-101144000D03*
X136185000Y-129084000D03*
X123485000Y-98604000D03*
X115865000Y-85904000D03*
X98085000Y-111304000D03*
X166665000Y-111304000D03*
X151425000Y-70664000D03*
X113325000Y-126544000D03*
X120945000Y-68124000D03*
X103165000Y-80824000D03*
X169205000Y-118924000D03*
X110785000Y-63044000D03*
X159045000Y-106224000D03*
X153965000Y-93524000D03*
X126025000Y-131624000D03*
X100625000Y-126544000D03*
X166665000Y-93524000D03*
X90465000Y-98604000D03*
X126025000Y-126544000D03*
X136185000Y-124004000D03*
X136185000Y-96064000D03*
X118405000Y-96064000D03*
X141265000Y-83364000D03*
X105705000Y-63044000D03*
X131105000Y-126544000D03*
X133645000Y-131624000D03*
X138725000Y-93524000D03*
X166665000Y-78284000D03*
X93005000Y-85904000D03*
X141265000Y-80824000D03*
X148885000Y-68124000D03*
X105705000Y-68124000D03*
X110785000Y-121464000D03*
X141265000Y-68124000D03*
X118405000Y-98604000D03*
X169205000Y-98604000D03*
X143805000Y-113844000D03*
X108245000Y-131624000D03*
X95545000Y-83364000D03*
X161585000Y-80824000D03*
X151425000Y-63044000D03*
X156505000Y-129084000D03*
X141265000Y-106224000D03*
X143805000Y-65584000D03*
X98085000Y-108764000D03*
X95545000Y-111304000D03*
X95545000Y-70664000D03*
X113325000Y-70664000D03*
X146345000Y-85904000D03*
X93005000Y-101144000D03*
X90465000Y-118924000D03*
X159045000Y-124004000D03*
X95545000Y-96064000D03*
X169205000Y-121464000D03*
X143805000Y-108764000D03*
X166665000Y-101144000D03*
X159045000Y-93524000D03*
X161585000Y-78284000D03*
X103165000Y-126544000D03*
X105705000Y-108764000D03*
X148885000Y-85904000D03*
X141265000Y-65584000D03*
X113325000Y-108764000D03*
X146345000Y-121464000D03*
X118405000Y-68124000D03*
X156505000Y-126544000D03*
X161585000Y-70664000D03*
X100625000Y-98604000D03*
X100625000Y-65584000D03*
X128565000Y-63044000D03*
X151425000Y-106224000D03*
X105705000Y-70664000D03*
X105705000Y-129084000D03*
X128565000Y-124004000D03*
X161585000Y-98604000D03*
X123485000Y-118924000D03*
X159045000Y-63044000D03*
X98085000Y-83364000D03*
X151425000Y-129084000D03*
X118405000Y-65584000D03*
X166665000Y-98604000D03*
X161585000Y-116384000D03*
X90465000Y-96064000D03*
X120945000Y-98604000D03*
X105705000Y-111304000D03*
X141265000Y-93524000D03*
X110785000Y-124004000D03*
X95545000Y-90984000D03*
X98085000Y-129084000D03*
X131105000Y-121464000D03*
X141265000Y-63044000D03*
X143805000Y-106224000D03*
X90465000Y-113844000D03*
X153965000Y-129084000D03*
X105705000Y-96064000D03*
X98085000Y-70664000D03*
X133645000Y-121464000D03*
X156505000Y-93524000D03*
X161585000Y-124004000D03*
X120945000Y-96064000D03*
X146345000Y-93524000D03*
X118405000Y-85904000D03*
X164125000Y-80824000D03*
X138725000Y-68124000D03*
X169205000Y-90984000D03*
X118405000Y-118924000D03*
X120945000Y-63044000D03*
X93005000Y-96064000D03*
X105705000Y-124004000D03*
X161585000Y-129084000D03*
X153965000Y-124004000D03*
X103165000Y-85904000D03*
X138725000Y-118924000D03*
X113325000Y-68124000D03*
X131105000Y-129084000D03*
X138725000Y-96064000D03*
X151425000Y-124004000D03*
X103165000Y-78284000D03*
X108245000Y-63044000D03*
X123485000Y-85904000D03*
X164125000Y-85904000D03*
X98085000Y-116384000D03*
X90465000Y-93524000D03*
X151425000Y-73204000D03*
X159045000Y-108764000D03*
X90465000Y-70664000D03*
X143805000Y-68124000D03*
X156505000Y-78284000D03*
X108245000Y-83364000D03*
X156505000Y-121464000D03*
X100625000Y-68124000D03*
X108245000Y-98604000D03*
X113325000Y-131624000D03*
X98085000Y-80824000D03*
X169205000Y-88444000D03*
X113325000Y-93524000D03*
X113325000Y-124004000D03*
X146345000Y-68124000D03*
X153965000Y-106224000D03*
X95545000Y-85904000D03*
X93005000Y-108764000D03*
X108245000Y-73204000D03*
X108245000Y-108764000D03*
X143805000Y-85904000D03*
X98085000Y-68124000D03*
X115865000Y-126544000D03*
X98085000Y-113844000D03*
X95545000Y-118924000D03*
X131105000Y-131624000D03*
X105705000Y-65584000D03*
X151425000Y-83364000D03*
X120945000Y-108764000D03*
X128565000Y-111304000D03*
X161585000Y-126544000D03*
X95545000Y-93524000D03*
X159045000Y-80824000D03*
X138725000Y-124004000D03*
X164125000Y-113844000D03*
X143805000Y-70664000D03*
X93005000Y-111304000D03*
X148885000Y-65584000D03*
X131105000Y-73204000D03*
X148885000Y-80824000D03*
X110785000Y-108764000D03*
X90465000Y-124004000D03*
X105705000Y-83364000D03*
X156505000Y-83364000D03*
X90465000Y-108764000D03*
X169205000Y-131624000D03*
X164125000Y-111304000D03*
X143805000Y-98604000D03*
X148885000Y-108764000D03*
X108245000Y-68124000D03*
X110785000Y-85904000D03*
X95545000Y-113844000D03*
X100625000Y-83364000D03*
X151425000Y-108764000D03*
X110785000Y-65584000D03*
X98085000Y-96064000D03*
X148885000Y-121464000D03*
X159045000Y-126544000D03*
X159045000Y-131624000D03*
X138725000Y-106224000D03*
X153965000Y-68124000D03*
X151425000Y-65584000D03*
X110785000Y-129084000D03*
X136185000Y-85904000D03*
X115865000Y-131624000D03*
X146345000Y-83364000D03*
X126025000Y-129084000D03*
X120945000Y-131624000D03*
X169205000Y-108764000D03*
X123485000Y-96064000D03*
X126025000Y-121464000D03*
X103165000Y-70664000D03*
X108245000Y-85904000D03*
X153965000Y-85904000D03*
X161585000Y-103684000D03*
X98085000Y-131624000D03*
X141265000Y-85904000D03*
X100625000Y-124004000D03*
X148885000Y-73204000D03*
X90465000Y-83364000D03*
X131105000Y-113844000D03*
X108245000Y-70664000D03*
X166665000Y-70664000D03*
X93005000Y-78284000D03*
X115865000Y-93524000D03*
X148885000Y-106224000D03*
X93005000Y-124004000D03*
X115865000Y-70664000D03*
X133645000Y-113844000D03*
X115865000Y-68124000D03*
X136185000Y-70664000D03*
X153965000Y-70664000D03*
X138725000Y-65584000D03*
X151425000Y-80824000D03*
X95545000Y-108764000D03*
X161585000Y-108764000D03*
X138725000Y-129084000D03*
X161585000Y-63044000D03*
X100625000Y-118924000D03*
X103165000Y-129084000D03*
X138725000Y-131624000D03*
X156505000Y-96064000D03*
X110785000Y-126544000D03*
X169205000Y-68124000D03*
X115865000Y-65584000D03*
X169205000Y-111304000D03*
X103165000Y-131624000D03*
X166665000Y-118924000D03*
X128565000Y-121464000D03*
X164125000Y-75744000D03*
X153965000Y-65584000D03*
X100625000Y-108764000D03*
X164125000Y-78284000D03*
X118405000Y-108764000D03*
X146345000Y-63044000D03*
X90465000Y-80824000D03*
X159045000Y-129084000D03*
X118405000Y-111304000D03*
X128565000Y-129084000D03*
X159045000Y-85904000D03*
X120945000Y-70664000D03*
X90465000Y-111304000D03*
X93005000Y-83364000D03*
X100625000Y-96064000D03*
X161585000Y-131624000D03*
X164125000Y-124004000D03*
X98085000Y-93524000D03*
X148885000Y-93524000D03*
X164125000Y-98604000D03*
X93005000Y-113844000D03*
X123485000Y-121464000D03*
D26*
X132080000Y-102380000D02*
X133332000Y-102380000D01*
X133645000Y-99863000D02*
X133645000Y-99405000D01*
X134747000Y-100965000D02*
X133645000Y-99863000D01*
X133332000Y-102380000D02*
X134747000Y-100965000D01*
X116970000Y-82550000D02*
X116970000Y-83030000D01*
X114040000Y-76680000D02*
X114040000Y-79620000D01*
X116970000Y-82550000D02*
X121535000Y-82550000D01*
X114040000Y-79620000D02*
X116970000Y-82550000D01*
X114040000Y-90170000D02*
X117236300Y-86973700D01*
X122364200Y-81217700D02*
X117826500Y-76680000D01*
X124837400Y-78744500D02*
X122364200Y-81217700D01*
X117826500Y-76680000D02*
X116840000Y-76680000D01*
X117236300Y-86973700D02*
X119241900Y-86973700D01*
X135128000Y-64770000D02*
X134461300Y-65436700D01*
X119241900Y-86973700D02*
X122364200Y-83851400D01*
X134461300Y-65436700D02*
X134461300Y-73134800D01*
X128851600Y-78744500D02*
X124837400Y-78744500D01*
X134461300Y-73134800D02*
X128851600Y-78744500D01*
X122364200Y-83851400D02*
X122364200Y-81217700D01*
X114170000Y-83030000D02*
X112268000Y-81128000D01*
X112903000Y-74422000D02*
X122936000Y-74422000D01*
X112268000Y-75057000D02*
X112903000Y-74422000D01*
X112268000Y-81128000D02*
X112268000Y-75057000D01*
X122936000Y-74422000D02*
X132588000Y-64770000D01*
X114170000Y-97000000D02*
X116840000Y-94330000D01*
X123081100Y-93011400D02*
X124652500Y-91440000D01*
X116840000Y-93011400D02*
X116840000Y-90170000D01*
X116840000Y-93011400D02*
X123081100Y-93011400D01*
X116840000Y-94330000D02*
X116840000Y-93011400D01*
X113157000Y-99314000D02*
X116586000Y-99314000D01*
X130048000Y-64770000D02*
X120739400Y-74078600D01*
X111887000Y-74549000D02*
X111887000Y-98044000D01*
X111887000Y-98044000D02*
X113157000Y-99314000D01*
X112357400Y-74078600D02*
X111887000Y-74549000D01*
X116586000Y-99314000D02*
X116970000Y-98930000D01*
X116970000Y-98930000D02*
X116970000Y-97000000D01*
X120739400Y-74078600D02*
X112357400Y-74078600D01*
D27*
X120269000Y-114681000D02*
X126220000Y-108730000D01*
X126220000Y-108730000D02*
X127130000Y-108730000D01*
X120269000Y-127635000D02*
X120269000Y-114681000D01*
X144907000Y-122827000D02*
X144907000Y-128270000D01*
X132080000Y-110000000D02*
X144907000Y-122827000D01*
X109804200Y-93294200D02*
X109804200Y-97104200D01*
X106680000Y-90170000D02*
X109804200Y-93294200D01*
X91440000Y-72390000D02*
X91922600Y-72390000D01*
X121539000Y-100330000D02*
X124859000Y-103650000D01*
X124859000Y-103650000D02*
X127130000Y-103650000D01*
X113030000Y-100330000D02*
X121539000Y-100330000D01*
X91922600Y-72390000D02*
X106680000Y-87147400D01*
X109804200Y-97104200D02*
X113030000Y-100330000D01*
X106680000Y-87147400D02*
X106680000Y-90170000D01*
D26*
X127635000Y-62103000D02*
X153924000Y-62103000D01*
X124968000Y-64770000D02*
X127635000Y-62103000D01*
X155194000Y-77724000D02*
X155170000Y-77700000D01*
X156513000Y-73279000D02*
X156513000Y-76405000D01*
X155170000Y-77700000D02*
X148680000Y-77700000D01*
X153924000Y-62103000D02*
X156337000Y-64516000D01*
X156337000Y-73103000D02*
X156513000Y-73279000D01*
X156337000Y-64516000D02*
X156337000Y-73103000D01*
X156513000Y-76405000D02*
X155194000Y-77724000D01*
D27*
X127130000Y-104920000D02*
X121303000Y-104920000D01*
X110490000Y-102997000D02*
X95969700Y-88476700D01*
X110617000Y-102870000D02*
X110490000Y-102997000D01*
X95969700Y-88476700D02*
X91440000Y-88476700D01*
X119253000Y-102870000D02*
X110617000Y-102870000D01*
X121303000Y-104920000D02*
X119253000Y-102870000D01*
X93066700Y-106190000D02*
X91440000Y-104563300D01*
X127130000Y-106190000D02*
X93066700Y-106190000D01*
X127130000Y-107460000D02*
X125585000Y-107460000D01*
X118745000Y-114300000D02*
X111252000Y-114300000D01*
X104902000Y-120650000D02*
X91440000Y-120650000D01*
X111252000Y-114300000D02*
X104902000Y-120650000D01*
X125585000Y-107460000D02*
X118745000Y-114300000D01*
X165100000Y-119380000D02*
X144284577Y-119380000D01*
X133634577Y-108730000D02*
X132080000Y-108730000D01*
X144284577Y-119380000D02*
X133634577Y-108730000D01*
X166370000Y-120650000D02*
X165100000Y-119380000D01*
X166370000Y-106426000D02*
X166370000Y-104563300D01*
X132080000Y-107460000D02*
X136924000Y-107460000D01*
X136924000Y-107460000D02*
X141605000Y-112141000D01*
X160655000Y-112141000D02*
X166370000Y-106426000D01*
X141605000Y-112141000D02*
X160655000Y-112141000D01*
X132080000Y-106190000D02*
X132320421Y-106190000D01*
X132320421Y-106190000D02*
X132338421Y-106172000D01*
X132338421Y-106172000D02*
X134239000Y-106172000D01*
X141732000Y-103759000D02*
X147193000Y-98298000D01*
X134239000Y-106172000D02*
X136652000Y-103759000D01*
X158115000Y-98298000D02*
X166370000Y-90043000D01*
X147193000Y-98298000D02*
X158115000Y-98298000D01*
X166370000Y-90043000D02*
X166370000Y-88476700D01*
X136652000Y-103759000D02*
X141732000Y-103759000D01*
X165291300Y-72390000D02*
X132761300Y-104920000D01*
X166370000Y-72390000D02*
X165291300Y-72390000D01*
X132761300Y-104920000D02*
X132080000Y-104920000D01*
D26*
X125410000Y-81600000D02*
X124460000Y-82550000D01*
X130477500Y-81600000D02*
X125410000Y-81600000D01*
X129397200Y-90847200D02*
X127849900Y-90847200D01*
X126881100Y-102380000D02*
X127130000Y-102380000D01*
X128602500Y-82550000D02*
X131458300Y-82550000D01*
X125891800Y-101390700D02*
X126881100Y-102380000D01*
X131458300Y-90805500D02*
X131244400Y-91019400D01*
X131458300Y-82550000D02*
X134620000Y-82550000D01*
X127849900Y-90847200D02*
X125891800Y-92805300D01*
X125891800Y-92805300D02*
X125891800Y-101390700D01*
X131458300Y-82550000D02*
X131458300Y-90805500D01*
X129569400Y-91019400D02*
X129397200Y-90847200D01*
X131244400Y-91019400D02*
X129569400Y-91019400D01*
X123282300Y-89885200D02*
X121727500Y-91440000D01*
X129872700Y-89885200D02*
X123282300Y-89885200D01*
X130477500Y-90490000D02*
X129872700Y-89885200D01*
X130875600Y-94021100D02*
X130875600Y-102701600D01*
X131513000Y-93383700D02*
X130875600Y-94021100D01*
X131513000Y-91440000D02*
X131513000Y-93383700D01*
X128602500Y-91440000D02*
X131513000Y-91440000D01*
X131513000Y-91440000D02*
X134427500Y-91440000D01*
X131824000Y-103650000D02*
X132080000Y-103650000D01*
X130875600Y-102701600D02*
X131824000Y-103650000D01*
X141556000Y-78539000D02*
X137545000Y-82550000D01*
X137352500Y-82742500D02*
X137352500Y-91440000D01*
X137352500Y-91440000D02*
X132080000Y-96712500D01*
X148680000Y-74700000D02*
X143691000Y-74700000D01*
X143691000Y-74700000D02*
X141556000Y-76835000D01*
X137545000Y-82550000D02*
X137352500Y-82742500D01*
X132080000Y-96712500D02*
X132080000Y-101110000D01*
X141556000Y-76835000D02*
X141556000Y-78539000D01*
G04 #@! TA.AperFunction,Conductor*
G36*
X114044716Y-76697318D02*
G01*
X114050707Y-76703309D01*
X114589161Y-77925837D01*
X114589360Y-77934790D01*
X114588124Y-77937139D01*
X114119683Y-78624886D01*
X114112193Y-78629795D01*
X114110013Y-78630000D01*
X113969987Y-78630000D01*
X113961714Y-78626573D01*
X113960317Y-78624886D01*
X113491875Y-77937139D01*
X113490050Y-77928373D01*
X113490835Y-77925846D01*
X114029293Y-76703308D01*
X114035763Y-76697119D01*
X114044716Y-76697318D01*
G37*
G04 #@! TD.AperFunction*
G04 #@! TA.AperFunction,Conductor*
G36*
X129252475Y-91154162D02*
G01*
X129633867Y-91360482D01*
X129639513Y-91367433D01*
X129640000Y-91370773D01*
X129640000Y-91509226D01*
X129636573Y-91517499D01*
X129633867Y-91519517D01*
X129252475Y-91725837D01*
X129243568Y-91726759D01*
X129242135Y-91726228D01*
X128849496Y-91550801D01*
X128625407Y-91450681D01*
X128619253Y-91444179D01*
X128619499Y-91435227D01*
X128625408Y-91429318D01*
X129242136Y-91153770D01*
X129251087Y-91153525D01*
X129252475Y-91154162D01*
G37*
G04 #@! TD.AperFunction*
G04 #@! TA.AperFunction,Conductor*
G36*
X120980194Y-81995180D02*
G01*
X121527705Y-82541720D01*
X121531139Y-82549990D01*
X121527719Y-82558266D01*
X121527705Y-82558280D01*
X120980194Y-83104819D01*
X120971918Y-83108239D01*
X120964276Y-83105390D01*
X120414048Y-82629699D01*
X120410031Y-82621696D01*
X120410000Y-82620848D01*
X120410000Y-82479151D01*
X120413427Y-82470878D01*
X120414048Y-82470300D01*
X120964277Y-81994608D01*
X120972776Y-81991791D01*
X120980194Y-81995180D01*
G37*
G04 #@! TD.AperFunction*
G04 #@! TA.AperFunction,Conductor*
G36*
X133872694Y-90885180D02*
G01*
X134420205Y-91431720D01*
X134423639Y-91439990D01*
X134420219Y-91448266D01*
X134420205Y-91448280D01*
X133872694Y-91994819D01*
X133864418Y-91998239D01*
X133856776Y-91995390D01*
X133306548Y-91519699D01*
X133302531Y-91511696D01*
X133302500Y-91510848D01*
X133302500Y-91369151D01*
X133305927Y-91360878D01*
X133306548Y-91360300D01*
X133856777Y-90884608D01*
X133865276Y-90881791D01*
X133872694Y-90885180D01*
G37*
G04 #@! TD.AperFunction*
G04 #@! TA.AperFunction,Conductor*
G36*
X127096953Y-107448878D02*
G01*
X127103753Y-107454705D01*
X127104442Y-107463633D01*
X127098615Y-107470433D01*
X127096953Y-107471122D01*
X126251375Y-107747347D01*
X126243848Y-107747258D01*
X125862806Y-107612755D01*
X125856145Y-107606770D01*
X125855000Y-107601722D01*
X125855000Y-107318277D01*
X125858427Y-107310004D01*
X125862803Y-107307245D01*
X126243849Y-107172740D01*
X126251375Y-107172652D01*
X127096953Y-107448878D01*
G37*
G04 #@! TD.AperFunction*
G04 #@! TA.AperFunction,Conductor*
G36*
X92298194Y-119806748D02*
G01*
X93135737Y-120496490D01*
X93139945Y-120504395D01*
X93139999Y-120505522D01*
X93139999Y-120794477D01*
X93136572Y-120802750D01*
X93135737Y-120803509D01*
X92298194Y-121493251D01*
X92289629Y-121495865D01*
X92282488Y-121492497D01*
X91447287Y-120658277D01*
X91443855Y-120650006D01*
X91447275Y-120641733D01*
X92282490Y-119807501D01*
X92290763Y-119804080D01*
X92298194Y-119806748D01*
G37*
G04 #@! TD.AperFunction*
G04 #@! TA.AperFunction,Conductor*
G36*
X115968691Y-81436301D02*
G01*
X116809215Y-81702714D01*
X116816065Y-81708479D01*
X116817301Y-81712514D01*
X116969583Y-83021048D01*
X116967135Y-83029661D01*
X116961416Y-83033578D01*
X116356357Y-83220602D01*
X116347441Y-83219771D01*
X116341724Y-83212879D01*
X116341670Y-83212701D01*
X115902755Y-81708479D01*
X115856094Y-81548566D01*
X115857067Y-81539665D01*
X115859050Y-81537020D01*
X115956889Y-81439181D01*
X115965161Y-81435755D01*
X115968691Y-81436301D01*
G37*
G04 #@! TD.AperFunction*
G04 #@! TA.AperFunction,Conductor*
G36*
X132158604Y-100513427D02*
G01*
X132159709Y-100514704D01*
X132373958Y-100801901D01*
X132376158Y-100810581D01*
X132372867Y-100817156D01*
X132088287Y-101102685D01*
X132080019Y-101106126D01*
X132071741Y-101102713D01*
X132071713Y-101102685D01*
X131787132Y-100817156D01*
X131783719Y-100808878D01*
X131786040Y-100801903D01*
X132000290Y-100514704D01*
X132007985Y-100510122D01*
X132009669Y-100510000D01*
X132150331Y-100510000D01*
X132158604Y-100513427D01*
G37*
G04 #@! TD.AperFunction*
G04 #@! TA.AperFunction,Conductor*
G36*
X156416267Y-71357427D02*
G01*
X156416678Y-71357860D01*
X156651232Y-71618145D01*
X156966310Y-71967788D01*
X156969302Y-71976228D01*
X156968660Y-71979489D01*
X156522520Y-73252826D01*
X156516550Y-73259500D01*
X156507609Y-73259999D01*
X156500935Y-73254029D01*
X156500899Y-73253955D01*
X155959199Y-72087999D01*
X155958822Y-72079054D01*
X155958990Y-72078621D01*
X156257800Y-71361201D01*
X156264146Y-71354882D01*
X156268602Y-71354000D01*
X156407994Y-71354000D01*
X156416267Y-71357427D01*
G37*
G04 #@! TD.AperFunction*
G04 #@! TA.AperFunction,Conductor*
G36*
X166378267Y-104570577D02*
G01*
X166378277Y-104570587D01*
X167212497Y-105405788D01*
X167215919Y-105414063D01*
X167213251Y-105421494D01*
X166523510Y-106259038D01*
X166515605Y-106263246D01*
X166514478Y-106263300D01*
X166225522Y-106263300D01*
X166217249Y-106259873D01*
X166216490Y-106259038D01*
X165526748Y-105421494D01*
X165524134Y-105412929D01*
X165527500Y-105405790D01*
X166361723Y-104570585D01*
X166369992Y-104567155D01*
X166378267Y-104570577D01*
G37*
G04 #@! TD.AperFunction*
G04 #@! TA.AperFunction,Conductor*
G36*
X166378735Y-88484510D02*
G01*
X166378972Y-88484754D01*
X167166087Y-89319017D01*
X167169272Y-89327386D01*
X167166432Y-89334693D01*
X166389752Y-90234079D01*
X166381751Y-90238101D01*
X166373250Y-90235287D01*
X166372624Y-90234705D01*
X166371998Y-90234079D01*
X166169454Y-90031535D01*
X166169310Y-90031384D01*
X165527610Y-89334959D01*
X165524524Y-89326553D01*
X165527940Y-89318759D01*
X166362190Y-88484509D01*
X166370462Y-88481083D01*
X166378735Y-88484510D01*
G37*
G04 #@! TD.AperFunction*
G04 #@! TA.AperFunction,Conductor*
G36*
X138026475Y-81291884D02*
G01*
X138450018Y-81535097D01*
X138452464Y-81536969D01*
X138553692Y-81638197D01*
X138557119Y-81646470D01*
X138556296Y-81650781D01*
X138111871Y-82771966D01*
X138105636Y-82778395D01*
X138096683Y-82778532D01*
X138096533Y-82778471D01*
X137554732Y-82555012D01*
X137548390Y-82548690D01*
X137548225Y-82540122D01*
X138009686Y-81297958D01*
X138015780Y-81291397D01*
X138024728Y-81291065D01*
X138026475Y-81291884D01*
G37*
G04 #@! TD.AperFunction*
G04 #@! TA.AperFunction,Conductor*
G36*
X156517930Y-73295158D02*
G01*
X156523611Y-73300839D01*
X157066222Y-74468757D01*
X157066600Y-74477704D01*
X157065386Y-74480117D01*
X156592667Y-75198730D01*
X156585257Y-75203758D01*
X156582892Y-75204000D01*
X156443108Y-75204000D01*
X156434835Y-75200573D01*
X156433333Y-75198730D01*
X155960613Y-74480117D01*
X155958930Y-74471322D01*
X155959775Y-74468761D01*
X156502389Y-73300838D01*
X156508983Y-73294780D01*
X156517930Y-73295158D01*
G37*
G04 #@! TD.AperFunction*
G04 #@! TA.AperFunction,Conductor*
G36*
X132966151Y-107172741D02*
G01*
X133347195Y-107307244D01*
X133353855Y-107313229D01*
X133355000Y-107318277D01*
X133355000Y-107601722D01*
X133351573Y-107609995D01*
X133347194Y-107612755D01*
X132966151Y-107747258D01*
X132958624Y-107747347D01*
X132319075Y-107538425D01*
X132113045Y-107471121D01*
X132106246Y-107465295D01*
X132105557Y-107456367D01*
X132111384Y-107449567D01*
X132113044Y-107448878D01*
X132958625Y-107172652D01*
X132966151Y-107172741D01*
G37*
G04 #@! TD.AperFunction*
G04 #@! TA.AperFunction,Conductor*
G36*
X117604322Y-82125652D02*
G01*
X118214059Y-82470440D01*
X118219574Y-82477495D01*
X118220000Y-82480624D01*
X118220000Y-82622298D01*
X118217659Y-82629320D01*
X117601728Y-83450267D01*
X117594022Y-83454828D01*
X117585753Y-83452894D01*
X116978666Y-83036627D01*
X116973780Y-83029123D01*
X116975633Y-83020362D01*
X116975634Y-83020358D01*
X117588928Y-82129202D01*
X117596440Y-82124332D01*
X117604322Y-82125652D01*
G37*
G04 #@! TD.AperFunction*
G04 #@! TA.AperFunction,Conductor*
G36*
X136800966Y-91211528D02*
G01*
X137342767Y-91434987D01*
X137349109Y-91441309D01*
X137349274Y-91449877D01*
X136887813Y-92692040D01*
X136881719Y-92698602D01*
X136872771Y-92698934D01*
X136871019Y-92698112D01*
X136447482Y-92454903D01*
X136445035Y-92453030D01*
X136343807Y-92351802D01*
X136340380Y-92343529D01*
X136341201Y-92339224D01*
X136785629Y-91218031D01*
X136791863Y-91211604D01*
X136800816Y-91211467D01*
X136800966Y-91211528D01*
G37*
G04 #@! TD.AperFunction*
G04 #@! TA.AperFunction,Conductor*
G36*
X137548190Y-82569926D02*
G01*
X137554253Y-82576516D01*
X137554356Y-82576809D01*
X137976740Y-83832191D01*
X137976130Y-83841125D01*
X137974266Y-83843839D01*
X137690536Y-84152581D01*
X137435604Y-84429988D01*
X137432177Y-84433717D01*
X137424056Y-84437490D01*
X137423562Y-84437500D01*
X137284346Y-84437500D01*
X137276073Y-84434073D01*
X137273421Y-84429988D01*
X137048742Y-83843839D01*
X137003301Y-83725291D01*
X137003540Y-83716340D01*
X137003585Y-83716240D01*
X137532654Y-82575615D01*
X137539243Y-82569554D01*
X137548190Y-82569926D01*
G37*
G04 #@! TD.AperFunction*
G04 #@! TA.AperFunction,Conductor*
G36*
X145057965Y-126248427D02*
G01*
X145060206Y-126251568D01*
X145848524Y-127866579D01*
X145849074Y-127875517D01*
X145843142Y-127882225D01*
X145842497Y-127882516D01*
X144911486Y-128269136D01*
X144902531Y-128269144D01*
X144902512Y-128269136D01*
X143971502Y-127882516D01*
X143965176Y-127876179D01*
X143965184Y-127867224D01*
X143965475Y-127866579D01*
X144753794Y-126251568D01*
X144760502Y-126245636D01*
X144764308Y-126245000D01*
X145049692Y-126245000D01*
X145057965Y-126248427D01*
G37*
G04 #@! TD.AperFunction*
G04 #@! TA.AperFunction,Conductor*
G36*
X115050490Y-89048299D02*
G01*
X115054982Y-89051099D01*
X115155419Y-89151536D01*
X115158846Y-89159809D01*
X115158047Y-89164058D01*
X114669333Y-90417765D01*
X114663135Y-90424229D01*
X114654183Y-90424417D01*
X114653969Y-90424331D01*
X114049630Y-90174972D01*
X114043290Y-90168649D01*
X114043087Y-90160189D01*
X114506768Y-88874847D01*
X114512799Y-88868228D01*
X114521554Y-88867745D01*
X115050490Y-89048299D01*
G37*
G04 #@! TD.AperFunction*
G04 #@! TA.AperFunction,Conductor*
G36*
X127096954Y-104908878D02*
G01*
X127103753Y-104914704D01*
X127104442Y-104923632D01*
X127098615Y-104930432D01*
X127096953Y-104931121D01*
X126251375Y-105207347D01*
X126243848Y-105207258D01*
X125862806Y-105072755D01*
X125856145Y-105066770D01*
X125855000Y-105061722D01*
X125855000Y-104778277D01*
X125858427Y-104770004D01*
X125862803Y-104767245D01*
X126243849Y-104632740D01*
X126251375Y-104632652D01*
X127096954Y-104908878D01*
G37*
G04 #@! TD.AperFunction*
G04 #@! TA.AperFunction,Conductor*
G36*
X141560254Y-76854403D02*
G01*
X141566309Y-76861000D01*
X141566328Y-76861053D01*
X142021683Y-78127585D01*
X142021257Y-78136529D01*
X142019250Y-78139501D01*
X141461872Y-78740248D01*
X141453733Y-78743982D01*
X141445337Y-78740867D01*
X141445022Y-78740563D01*
X141346972Y-78642513D01*
X141345064Y-78640005D01*
X141002997Y-78035911D01*
X141001902Y-78027023D01*
X141002566Y-78025220D01*
X141544711Y-76860074D01*
X141551307Y-76854020D01*
X141560254Y-76854403D01*
G37*
G04 #@! TD.AperFunction*
G04 #@! TA.AperFunction,Conductor*
G36*
X133346735Y-106019461D02*
G01*
X133353638Y-106025165D01*
X133355000Y-106030645D01*
X133355000Y-106314061D01*
X133351573Y-106322334D01*
X133347624Y-106324933D01*
X132967875Y-106475985D01*
X132959935Y-106476240D01*
X132113153Y-106201097D01*
X132106344Y-106195282D01*
X132105642Y-106186354D01*
X132111457Y-106179545D01*
X132113127Y-106178851D01*
X132958882Y-105902567D01*
X132965945Y-105902506D01*
X133346735Y-106019461D01*
G37*
G04 #@! TD.AperFunction*
G04 #@! TA.AperFunction,Conductor*
G36*
X129252475Y-82264162D02*
G01*
X129633867Y-82470482D01*
X129639513Y-82477433D01*
X129640000Y-82480773D01*
X129640000Y-82619226D01*
X129636573Y-82627499D01*
X129633867Y-82629517D01*
X129252475Y-82835837D01*
X129243568Y-82836759D01*
X129242135Y-82836228D01*
X128849496Y-82660801D01*
X128625407Y-82560681D01*
X128619253Y-82554179D01*
X128619499Y-82545227D01*
X128625408Y-82539318D01*
X129242136Y-82263770D01*
X129251087Y-82263525D01*
X129252475Y-82264162D01*
G37*
G04 #@! TD.AperFunction*
G04 #@! TA.AperFunction,Conductor*
G36*
X127096953Y-103638878D02*
G01*
X127103753Y-103644705D01*
X127104442Y-103653633D01*
X127098615Y-103660433D01*
X127096953Y-103661122D01*
X126251375Y-103937347D01*
X126243848Y-103937258D01*
X125862806Y-103802755D01*
X125856145Y-103796770D01*
X125855000Y-103791722D01*
X125855000Y-103508277D01*
X125858427Y-103500004D01*
X125862803Y-103497245D01*
X126243849Y-103362740D01*
X126251375Y-103362652D01*
X127096953Y-103638878D01*
G37*
G04 #@! TD.AperFunction*
G04 #@! TA.AperFunction,Conductor*
G36*
X164859137Y-119234713D02*
G01*
X165816704Y-119532272D01*
X166666578Y-119796366D01*
X166673462Y-119802094D01*
X166674279Y-119811011D01*
X166674109Y-119811517D01*
X166372650Y-120645434D01*
X166366615Y-120652049D01*
X166366602Y-120652055D01*
X165530794Y-121042747D01*
X165521848Y-121043146D01*
X165515240Y-121037103D01*
X165515183Y-121036978D01*
X164844981Y-119532272D01*
X164843969Y-119527512D01*
X164843969Y-119245887D01*
X164847396Y-119237614D01*
X164855669Y-119234187D01*
X164859137Y-119234713D01*
G37*
G04 #@! TD.AperFunction*
G04 #@! TA.AperFunction,Conductor*
G36*
X147536422Y-74252510D02*
G01*
X148290491Y-74547325D01*
X148653127Y-74689103D01*
X148659585Y-74695307D01*
X148659764Y-74704260D01*
X148653560Y-74710718D01*
X148653127Y-74710897D01*
X147536427Y-75147487D01*
X147527474Y-75147308D01*
X147524691Y-75145590D01*
X147084223Y-74779708D01*
X147080049Y-74771786D01*
X147080000Y-74770729D01*
X147080000Y-74629288D01*
X147083426Y-74621018D01*
X147084209Y-74620303D01*
X147524692Y-74254408D01*
X147533245Y-74251759D01*
X147536422Y-74252510D01*
G37*
G04 #@! TD.AperFunction*
G04 #@! TA.AperFunction,Conductor*
G36*
X131814433Y-64449563D02*
G01*
X132584215Y-64767438D01*
X132590552Y-64773761D01*
X132590562Y-64773785D01*
X132908431Y-65543553D01*
X132908422Y-65552508D01*
X132902083Y-65558833D01*
X132901177Y-65559164D01*
X131446591Y-66023793D01*
X131437667Y-66023046D01*
X131434758Y-66020921D01*
X131337078Y-65923241D01*
X131333651Y-65914968D01*
X131334205Y-65911411D01*
X131798836Y-64456820D01*
X131804616Y-64449984D01*
X131813540Y-64449237D01*
X131814433Y-64449563D01*
G37*
G04 #@! TD.AperFunction*
G04 #@! TA.AperFunction,Conductor*
G36*
X92298194Y-87633448D02*
G01*
X93135737Y-88323190D01*
X93139945Y-88331095D01*
X93139999Y-88332222D01*
X93139999Y-88621177D01*
X93136572Y-88629450D01*
X93135737Y-88630209D01*
X92298194Y-89319951D01*
X92289629Y-89322565D01*
X92282488Y-89319197D01*
X91447286Y-88484976D01*
X91443855Y-88476707D01*
X91447276Y-88468433D01*
X92282490Y-87634201D01*
X92290763Y-87630780D01*
X92298194Y-87633448D01*
G37*
G04 #@! TD.AperFunction*
G04 #@! TA.AperFunction,Conductor*
G36*
X124948776Y-81295723D02*
G01*
X125417851Y-81520616D01*
X125423830Y-81527282D01*
X125424493Y-81531165D01*
X125424493Y-81674143D01*
X125423792Y-81678132D01*
X125026679Y-82773154D01*
X125020637Y-82779763D01*
X125011691Y-82780164D01*
X125011182Y-82779966D01*
X124469463Y-82554357D01*
X124463143Y-82548013D01*
X124463023Y-82539403D01*
X124932792Y-81302122D01*
X124938930Y-81295607D01*
X124947881Y-81295340D01*
X124948776Y-81295723D01*
G37*
G04 #@! TD.AperFunction*
G04 #@! TA.AperFunction,Conductor*
G36*
X134065194Y-81995180D02*
G01*
X134612705Y-82541720D01*
X134616139Y-82549990D01*
X134612719Y-82558266D01*
X134612705Y-82558280D01*
X134065194Y-83104819D01*
X134056918Y-83108239D01*
X134049276Y-83105390D01*
X133499048Y-82629699D01*
X133495031Y-82621696D01*
X133495000Y-82620848D01*
X133495000Y-82479151D01*
X133498427Y-82470878D01*
X133499048Y-82470300D01*
X134049277Y-81994608D01*
X134057776Y-81991791D01*
X134065194Y-81995180D01*
G37*
G04 #@! TD.AperFunction*
G04 #@! TA.AperFunction,Conductor*
G36*
X149832525Y-77252691D02*
G01*
X149835308Y-77254409D01*
X150275776Y-77620291D01*
X150279950Y-77628213D01*
X150280000Y-77629291D01*
X150280000Y-77770708D01*
X150276573Y-77778981D01*
X150275776Y-77779708D01*
X149835308Y-78145590D01*
X149826754Y-78148240D01*
X149823572Y-78147487D01*
X148706872Y-77710896D01*
X148700414Y-77704692D01*
X148700235Y-77695739D01*
X148706439Y-77689281D01*
X148706825Y-77689121D01*
X149823574Y-77252512D01*
X149832525Y-77252691D01*
G37*
G04 #@! TD.AperFunction*
G04 #@! TA.AperFunction,Conductor*
G36*
X129274433Y-64449563D02*
G01*
X130044215Y-64767438D01*
X130050552Y-64773761D01*
X130050562Y-64773785D01*
X130368431Y-65543553D01*
X130368422Y-65552508D01*
X130362083Y-65558833D01*
X130361177Y-65559164D01*
X128906591Y-66023793D01*
X128897667Y-66023046D01*
X128894758Y-66020921D01*
X128797078Y-65923241D01*
X128793651Y-65914968D01*
X128794205Y-65911411D01*
X129258836Y-64456820D01*
X129264616Y-64449984D01*
X129273540Y-64449237D01*
X129274433Y-64449563D01*
G37*
G04 #@! TD.AperFunction*
G04 #@! TA.AperFunction,Conductor*
G36*
X130026638Y-89927361D02*
G01*
X130591523Y-90185323D01*
X130597625Y-90191877D01*
X130597485Y-90200413D01*
X130482543Y-90480153D01*
X130476229Y-90486503D01*
X130467547Y-90486636D01*
X129804982Y-90233639D01*
X129798476Y-90227487D01*
X129798226Y-90218535D01*
X129799154Y-90216638D01*
X129910759Y-90032948D01*
X129912478Y-90030758D01*
X130013506Y-89929730D01*
X130021778Y-89926304D01*
X130026638Y-89927361D01*
G37*
G04 #@! TD.AperFunction*
G04 #@! TA.AperFunction,Conductor*
G36*
X122208975Y-90181884D02*
G01*
X122632518Y-90425097D01*
X122634964Y-90426969D01*
X122736192Y-90528197D01*
X122739619Y-90536470D01*
X122738796Y-90540781D01*
X122294371Y-91661966D01*
X122288136Y-91668395D01*
X122279183Y-91668532D01*
X122279033Y-91668471D01*
X121737232Y-91445012D01*
X121730890Y-91438690D01*
X121730725Y-91430122D01*
X122192186Y-90187958D01*
X122198280Y-90181397D01*
X122207228Y-90181065D01*
X122208975Y-90181884D01*
G37*
G04 #@! TD.AperFunction*
G04 #@! TA.AperFunction,Conductor*
G36*
X120419965Y-125613427D02*
G01*
X120422206Y-125616568D01*
X121210524Y-127231579D01*
X121211074Y-127240517D01*
X121205142Y-127247225D01*
X121204497Y-127247516D01*
X120273487Y-127634136D01*
X120264532Y-127634144D01*
X120264513Y-127634136D01*
X119333502Y-127247516D01*
X119327176Y-127241179D01*
X119327184Y-127232224D01*
X119327475Y-127231579D01*
X120115794Y-125616568D01*
X120122502Y-125610636D01*
X120126308Y-125610000D01*
X120411692Y-125610000D01*
X120419965Y-125613427D01*
G37*
G04 #@! TD.AperFunction*
G04 #@! TA.AperFunction,Conductor*
G36*
X116975415Y-97017608D02*
G01*
X116981402Y-97023601D01*
X117519154Y-98245815D01*
X117519349Y-98254768D01*
X117518092Y-98257147D01*
X117017703Y-98986414D01*
X117010197Y-98991296D01*
X117001436Y-98989441D01*
X116999783Y-98988067D01*
X116998130Y-98986414D01*
X116902257Y-98890541D01*
X116901738Y-98889944D01*
X116422381Y-98257264D01*
X116420117Y-98248600D01*
X116421002Y-98245476D01*
X116959984Y-97023601D01*
X116959989Y-97023589D01*
X116966463Y-97017405D01*
X116975415Y-97017608D01*
G37*
G04 #@! TD.AperFunction*
G04 #@! TA.AperFunction,Conductor*
G36*
X135134554Y-64778993D02*
G01*
X135135957Y-64780686D01*
X135701025Y-65610620D01*
X135702849Y-65619387D01*
X135698231Y-65626670D01*
X134540576Y-66467765D01*
X134533699Y-66470000D01*
X134395418Y-66470000D01*
X134387145Y-66466573D01*
X134383810Y-66459763D01*
X134278840Y-65626670D01*
X134278715Y-65625678D01*
X134281081Y-65617043D01*
X134282035Y-65615959D01*
X135118009Y-64779002D01*
X135126279Y-64775571D01*
X135134554Y-64778993D01*
G37*
G04 #@! TD.AperFunction*
G04 #@! TA.AperFunction,Conductor*
G36*
X127096953Y-106178878D02*
G01*
X127103753Y-106184705D01*
X127104442Y-106193633D01*
X127098615Y-106200433D01*
X127096953Y-106201122D01*
X126251375Y-106477347D01*
X126243848Y-106477258D01*
X125862806Y-106342755D01*
X125856145Y-106336770D01*
X125855000Y-106331722D01*
X125855000Y-106048277D01*
X125858427Y-106040004D01*
X125862803Y-106037245D01*
X126243849Y-105902740D01*
X126251375Y-105902652D01*
X127096953Y-106178878D01*
G37*
G04 #@! TD.AperFunction*
G04 #@! TA.AperFunction,Conductor*
G36*
X113697382Y-81728316D02*
G01*
X113703231Y-81734848D01*
X114166912Y-83020187D01*
X114166496Y-83029132D01*
X114160369Y-83034972D01*
X113556030Y-83284332D01*
X113547075Y-83284320D01*
X113540752Y-83277980D01*
X113540666Y-83277766D01*
X113051952Y-82024058D01*
X113052140Y-82015106D01*
X113054577Y-82011539D01*
X113155019Y-81911097D01*
X113159507Y-81908300D01*
X113688445Y-81727745D01*
X113697382Y-81728316D01*
G37*
G04 #@! TD.AperFunction*
G04 #@! TA.AperFunction,Conductor*
G36*
X132966151Y-108442741D02*
G01*
X133347195Y-108577244D01*
X133353855Y-108583229D01*
X133355000Y-108588277D01*
X133355000Y-108871722D01*
X133351573Y-108879995D01*
X133347194Y-108882755D01*
X132966151Y-109017258D01*
X132958624Y-109017347D01*
X132319075Y-108808425D01*
X132113045Y-108741121D01*
X132106246Y-108735295D01*
X132105557Y-108726367D01*
X132111384Y-108719567D01*
X132113044Y-108718878D01*
X132958625Y-108442652D01*
X132966151Y-108442741D01*
G37*
G04 #@! TD.AperFunction*
G04 #@! TA.AperFunction,Conductor*
G36*
X142046864Y-75549777D02*
G01*
X142482345Y-75798756D01*
X142484811Y-75800640D01*
X142586037Y-75901866D01*
X142589464Y-75910139D01*
X142588646Y-75914437D01*
X142135363Y-77062125D01*
X142129137Y-77068561D01*
X142120183Y-77068709D01*
X142120020Y-77068643D01*
X141565726Y-76840010D01*
X141559384Y-76833687D01*
X141559218Y-76825126D01*
X142030096Y-75555865D01*
X142036185Y-75549303D01*
X142045134Y-75548968D01*
X142046864Y-75549777D01*
G37*
G04 #@! TD.AperFunction*
G04 #@! TA.AperFunction,Conductor*
G36*
X92288174Y-104215679D02*
G01*
X92294486Y-104221984D01*
X92994092Y-105901041D01*
X92994111Y-105909996D01*
X92991565Y-105913814D01*
X92790514Y-106114865D01*
X92782241Y-106118292D01*
X92777741Y-106117392D01*
X91098684Y-105417786D01*
X91092365Y-105411441D01*
X91092369Y-105402521D01*
X91437438Y-104567082D01*
X91443761Y-104560747D01*
X92279221Y-104215670D01*
X92288174Y-104215679D01*
G37*
G04 #@! TD.AperFunction*
G04 #@! TA.AperFunction,Conductor*
G36*
X126118332Y-63516953D02*
G01*
X126121241Y-63519078D01*
X126218921Y-63616758D01*
X126222348Y-63625031D01*
X126221793Y-63628591D01*
X125757164Y-65083177D01*
X125751383Y-65090015D01*
X125742459Y-65090762D01*
X125741553Y-65090431D01*
X124971785Y-64772562D01*
X124965447Y-64766238D01*
X124647568Y-63996444D01*
X124647577Y-63987491D01*
X124653916Y-63981166D01*
X124654799Y-63980843D01*
X126109409Y-63516206D01*
X126118332Y-63516953D01*
G37*
G04 #@! TD.AperFunction*
G04 #@! TA.AperFunction,Conductor*
G36*
X137430634Y-89555927D02*
G01*
X137432162Y-89557811D01*
X137892429Y-90263897D01*
X137894076Y-90272699D01*
X137893242Y-90275209D01*
X137363114Y-91418117D01*
X137356524Y-91424180D01*
X137347577Y-91423808D01*
X137341886Y-91418117D01*
X136811757Y-90275209D01*
X136811385Y-90266262D01*
X136812567Y-90263902D01*
X137272837Y-89557811D01*
X137280226Y-89552752D01*
X137282639Y-89552500D01*
X137422361Y-89552500D01*
X137430634Y-89555927D01*
G37*
G04 #@! TD.AperFunction*
G04 #@! TA.AperFunction,Conductor*
G36*
X165529093Y-71757639D02*
G01*
X166359921Y-72381198D01*
X166364481Y-72388904D01*
X166362256Y-72397578D01*
X166361171Y-72398828D01*
X165526173Y-73233826D01*
X165517900Y-73237253D01*
X165512324Y-73235839D01*
X164959534Y-72936200D01*
X164956837Y-72934187D01*
X164753295Y-72730645D01*
X164749868Y-72722372D01*
X164752412Y-72715088D01*
X165512919Y-71759709D01*
X165520751Y-71755373D01*
X165529093Y-71757639D01*
G37*
G04 #@! TD.AperFunction*
G04 #@! TA.AperFunction,Conductor*
G36*
X132476923Y-110164223D02*
G01*
X132788098Y-110293295D01*
X132794427Y-110299630D01*
X132794422Y-110308585D01*
X132791888Y-110312375D01*
X132698198Y-110406066D01*
X132492525Y-110611738D01*
X132484252Y-110615165D01*
X132478233Y-110613498D01*
X131964360Y-110305175D01*
X131959030Y-110297980D01*
X131959559Y-110290695D01*
X132074832Y-110010148D01*
X132081145Y-110003800D01*
X132090098Y-110003775D01*
X132476923Y-110164223D01*
G37*
G04 #@! TD.AperFunction*
G04 #@! TA.AperFunction,Conductor*
G36*
X131372590Y-103086248D02*
G01*
X132159730Y-103346433D01*
X132166509Y-103352282D01*
X132167268Y-103360889D01*
X132083994Y-103639701D01*
X132078342Y-103646648D01*
X132069642Y-103647623D01*
X131166027Y-103395767D01*
X131158977Y-103390245D01*
X131157898Y-103381356D01*
X131158825Y-103379027D01*
X131257166Y-103193299D01*
X131259228Y-103190508D01*
X131360652Y-103089084D01*
X131368924Y-103085658D01*
X131372590Y-103086248D01*
G37*
G04 #@! TD.AperFunction*
G04 #@! TA.AperFunction,Conductor*
G36*
X115180490Y-95878299D02*
G01*
X115184982Y-95881099D01*
X115285419Y-95981536D01*
X115288846Y-95989809D01*
X115288047Y-95994058D01*
X114799333Y-97247765D01*
X114793135Y-97254229D01*
X114784183Y-97254417D01*
X114783969Y-97254331D01*
X114179630Y-97004972D01*
X114173290Y-96998649D01*
X114173087Y-96990189D01*
X114636768Y-95704847D01*
X114642799Y-95698228D01*
X114651554Y-95697745D01*
X115180490Y-95878299D01*
G37*
G04 #@! TD.AperFunction*
G04 #@! TA.AperFunction,Conductor*
G36*
X129837860Y-81313769D02*
G01*
X129838739Y-81314162D01*
X130454591Y-81589318D01*
X130460746Y-81595821D01*
X130460500Y-81604773D01*
X130454591Y-81610682D01*
X129837864Y-81886228D01*
X129828912Y-81886474D01*
X129827524Y-81885837D01*
X129446133Y-81679517D01*
X129440487Y-81672566D01*
X129440000Y-81669226D01*
X129440000Y-81530773D01*
X129443427Y-81522500D01*
X129446133Y-81520482D01*
X129827524Y-81314161D01*
X129836431Y-81313240D01*
X129837860Y-81313769D01*
G37*
G04 #@! TD.AperFunction*
G04 #@! TA.AperFunction,Conductor*
G36*
X116844716Y-90187318D02*
G01*
X116850707Y-90193309D01*
X117389161Y-91415837D01*
X117389360Y-91424790D01*
X117388124Y-91427139D01*
X116919683Y-92114886D01*
X116912193Y-92119795D01*
X116910013Y-92120000D01*
X116769987Y-92120000D01*
X116761714Y-92116573D01*
X116760317Y-92114886D01*
X116291875Y-91427139D01*
X116290050Y-91418373D01*
X116290835Y-91415846D01*
X116829293Y-90193308D01*
X116835763Y-90187119D01*
X116844716Y-90187318D01*
G37*
G04 #@! TD.AperFunction*
G04 #@! TA.AperFunction,Conductor*
G36*
X124100966Y-91211528D02*
G01*
X124642767Y-91434987D01*
X124649109Y-91441309D01*
X124649274Y-91449877D01*
X124187813Y-92692040D01*
X124181719Y-92698602D01*
X124172771Y-92698934D01*
X124171019Y-92698112D01*
X123747482Y-92454903D01*
X123745035Y-92453030D01*
X123643807Y-92351802D01*
X123640380Y-92343529D01*
X123641201Y-92339224D01*
X124085629Y-91218031D01*
X124091863Y-91211604D01*
X124100816Y-91211467D01*
X124100966Y-91211528D01*
G37*
G04 #@! TD.AperFunction*
G04 #@! TA.AperFunction,Conductor*
G36*
X117472617Y-76154561D02*
G01*
X118059252Y-76804189D01*
X118062254Y-76812624D01*
X118058842Y-76820302D01*
X118008896Y-76870248D01*
X117958941Y-76920204D01*
X117780350Y-77097983D01*
X117473949Y-77402992D01*
X117465668Y-77406400D01*
X117457403Y-77402954D01*
X117456798Y-77402299D01*
X117045050Y-76920204D01*
X116846898Y-76688198D01*
X116844132Y-76679682D01*
X116848194Y-76671708D01*
X117456349Y-76153497D01*
X117464866Y-76150740D01*
X117472617Y-76154561D01*
G37*
G04 #@! TD.AperFunction*
G04 #@! TA.AperFunction,Conductor*
G36*
X92288174Y-72042379D02*
G01*
X92294486Y-72048684D01*
X92994092Y-73727741D01*
X92994111Y-73736696D01*
X92991565Y-73740514D01*
X92790514Y-73941565D01*
X92782241Y-73944992D01*
X92777741Y-73944092D01*
X91098684Y-73244486D01*
X91092365Y-73238141D01*
X91092369Y-73229221D01*
X91437438Y-72393782D01*
X91443761Y-72387447D01*
X92279221Y-72042370D01*
X92288174Y-72042379D01*
G37*
G04 #@! TD.AperFunction*
G04 #@! TA.AperFunction,Conductor*
G36*
X126429707Y-101816271D02*
G01*
X127210454Y-102076408D01*
X127217219Y-102082273D01*
X127217958Y-102090880D01*
X127134022Y-102369695D01*
X127128356Y-102376629D01*
X127119640Y-102377582D01*
X126219768Y-102123518D01*
X126212737Y-102117972D01*
X126211687Y-102109079D01*
X126212709Y-102106594D01*
X126314292Y-101923185D01*
X126316248Y-101920588D01*
X126417738Y-101819098D01*
X126426010Y-101815672D01*
X126429707Y-101816271D01*
G37*
G04 #@! TD.AperFunction*
G04 #@! TA.AperFunction,Conductor*
G36*
X167604420Y-130407867D02*
G01*
X167542601Y-130366561D01*
X167469680Y-130352056D01*
X167420432Y-130352056D01*
X167347511Y-130366561D01*
X167264816Y-130421816D01*
X167209561Y-130504511D01*
X167190158Y-130602056D01*
X167209561Y-130699601D01*
X167250867Y-130761420D01*
X166692180Y-130202733D01*
X166882870Y-130039870D01*
X167045733Y-129849180D01*
X167604420Y-130407867D01*
G37*
G04 #@! TD.AperFunction*
G04 #@! TA.AperFunction,Conductor*
G36*
X164613130Y-130039870D02*
G01*
X164803819Y-130202733D01*
X164245135Y-130761416D01*
X164286439Y-130699601D01*
X164305842Y-130602056D01*
X164286439Y-130504511D01*
X164231184Y-130421816D01*
X164148489Y-130366561D01*
X164075568Y-130352056D01*
X164026320Y-130352056D01*
X163953399Y-130366561D01*
X163891576Y-130407869D01*
X164450266Y-129849179D01*
X164613130Y-130039870D01*
G37*
G04 #@! TD.AperFunction*
G04 #@! TA.AperFunction,Conductor*
G36*
X164803819Y-127607266D02*
G01*
X164613130Y-127770130D01*
X164450266Y-127960818D01*
X163891582Y-127402134D01*
X163953399Y-127443439D01*
X164026320Y-127457944D01*
X164075568Y-127457944D01*
X164148489Y-127443439D01*
X164231184Y-127388184D01*
X164286439Y-127305489D01*
X164305842Y-127207944D01*
X164286439Y-127110399D01*
X164245133Y-127048581D01*
X164803819Y-127607266D01*
G37*
G04 #@! TD.AperFunction*
G04 #@! TA.AperFunction,Conductor*
G36*
X167209561Y-127110399D02*
G01*
X167190158Y-127207944D01*
X167209561Y-127305489D01*
X167264816Y-127388184D01*
X167347511Y-127443439D01*
X167420432Y-127457944D01*
X167469680Y-127457944D01*
X167542601Y-127443439D01*
X167604415Y-127402135D01*
X167045732Y-127960818D01*
X166882870Y-127770130D01*
X166692180Y-127607266D01*
X167250867Y-127048578D01*
X167209561Y-127110399D01*
G37*
G04 #@! TD.AperFunction*
G04 #@! TA.AperFunction,Conductor*
G36*
X123890312Y-93131590D02*
G01*
X123912068Y-93142230D01*
X124017262Y-93207115D01*
X124185574Y-93262887D01*
X124289455Y-93273500D01*
X125015544Y-93273499D01*
X125119426Y-93262887D01*
X125144093Y-93254713D01*
X125213923Y-93252310D01*
X125273965Y-93288041D01*
X125305158Y-93350561D01*
X125307100Y-93372418D01*
X125307100Y-101348313D01*
X125306569Y-101356414D01*
X125302055Y-101390699D01*
X125302055Y-101390702D01*
X125306480Y-101424313D01*
X125306481Y-101424321D01*
X125307100Y-101429021D01*
X125322150Y-101543337D01*
X125354259Y-101620855D01*
X125363809Y-101643909D01*
X125363809Y-101643911D01*
X125381065Y-101685571D01*
X125381067Y-101685575D01*
X125391936Y-101699738D01*
X125391939Y-101699746D01*
X125391941Y-101699745D01*
X125474787Y-101807713D01*
X125502236Y-101828775D01*
X125508332Y-101834122D01*
X125631563Y-101957354D01*
X125665047Y-102018676D01*
X125662959Y-102079625D01*
X125649438Y-102126168D01*
X125649437Y-102126174D01*
X125646500Y-102163492D01*
X125646500Y-102596507D01*
X125649437Y-102633829D01*
X125649438Y-102633835D01*
X125695853Y-102793596D01*
X125695854Y-102793600D01*
X125702230Y-102804380D01*
X125719411Y-102872105D01*
X125697251Y-102938367D01*
X125642784Y-102982129D01*
X125595497Y-102991500D01*
X125183122Y-102991500D01*
X125116083Y-102971815D01*
X125095441Y-102955181D01*
X122065717Y-99925457D01*
X122055564Y-99912785D01*
X122055388Y-99912931D01*
X122050415Y-99906919D01*
X121998015Y-99857712D01*
X121996647Y-99856387D01*
X121975333Y-99835073D01*
X121969438Y-99830500D01*
X121965002Y-99826711D01*
X121929133Y-99793028D01*
X121929131Y-99793026D01*
X121910200Y-99782619D01*
X121893948Y-99771944D01*
X121876868Y-99758696D01*
X121876864Y-99758694D01*
X121831702Y-99739150D01*
X121826455Y-99736580D01*
X121783337Y-99712875D01*
X121783338Y-99712875D01*
X121762411Y-99707502D01*
X121744006Y-99701201D01*
X121724174Y-99692619D01*
X121675569Y-99684921D01*
X121669847Y-99683736D01*
X121636188Y-99675094D01*
X121622188Y-99671500D01*
X121622187Y-99671500D01*
X121600581Y-99671500D01*
X121581183Y-99669973D01*
X121572603Y-99668614D01*
X121559849Y-99666594D01*
X121559848Y-99666594D01*
X121510855Y-99671225D01*
X121505019Y-99671500D01*
X117354751Y-99671500D01*
X117287712Y-99651815D01*
X117241957Y-99599011D01*
X117232013Y-99529853D01*
X117261038Y-99466297D01*
X117267051Y-99459837D01*
X117353479Y-99373409D01*
X117359564Y-99368073D01*
X117387013Y-99347013D01*
X117437441Y-99281291D01*
X117441001Y-99277061D01*
X117441115Y-99276939D01*
X117443006Y-99274181D01*
X117444917Y-99271547D01*
X117463520Y-99247306D01*
X117480734Y-99224873D01*
X117481691Y-99222560D01*
X117494011Y-99199846D01*
X117927363Y-98568279D01*
X117941931Y-98550751D01*
X117942289Y-98550392D01*
X117944030Y-98548652D01*
X118037115Y-98397738D01*
X118092887Y-98229426D01*
X118103500Y-98125545D01*
X118103499Y-95874456D01*
X118092887Y-95770574D01*
X118037115Y-95602262D01*
X117944030Y-95451348D01*
X117818652Y-95325970D01*
X117667738Y-95232885D01*
X117667735Y-95232884D01*
X117499427Y-95177113D01*
X117395552Y-95166500D01*
X117395545Y-95166500D01*
X117129751Y-95166500D01*
X117062712Y-95146815D01*
X117016957Y-95094011D01*
X117007013Y-95024853D01*
X117036038Y-94961297D01*
X117042070Y-94954819D01*
X117042070Y-94954818D01*
X117223472Y-94773416D01*
X117229564Y-94768073D01*
X117257013Y-94747013D01*
X117290715Y-94703089D01*
X117316577Y-94669387D01*
X117336707Y-94643151D01*
X117350734Y-94624873D01*
X117389272Y-94531834D01*
X117409650Y-94482637D01*
X117424700Y-94368321D01*
X117424700Y-94368319D01*
X117429745Y-94330000D01*
X117425230Y-94295711D01*
X117424700Y-94287611D01*
X117424700Y-93720100D01*
X117444385Y-93653061D01*
X117497189Y-93607306D01*
X117548700Y-93596100D01*
X123038714Y-93596100D01*
X123046813Y-93596630D01*
X123081100Y-93601145D01*
X123119419Y-93596100D01*
X123119421Y-93596100D01*
X123233737Y-93581050D01*
X123341683Y-93536337D01*
X123375973Y-93522134D01*
X123375974Y-93522133D01*
X123420484Y-93487979D01*
X123420484Y-93487977D01*
X123498113Y-93428413D01*
X123519175Y-93400962D01*
X123524516Y-93394872D01*
X123759299Y-93160089D01*
X123820620Y-93126606D01*
X123890312Y-93131590D01*
G37*
G04 #@! TD.AperFunction*
G04 #@! TA.AperFunction,Conductor*
G36*
X115508702Y-82261907D02*
G01*
X115546475Y-82320684D01*
X115810185Y-83224455D01*
X115831536Y-83297626D01*
X115836500Y-83332359D01*
X115836500Y-84155537D01*
X115836501Y-84155553D01*
X115847113Y-84259427D01*
X115888226Y-84383498D01*
X115902885Y-84427738D01*
X115995970Y-84578652D01*
X116121348Y-84704030D01*
X116272262Y-84797115D01*
X116440574Y-84852887D01*
X116544455Y-84863500D01*
X117395544Y-84863499D01*
X117499426Y-84852887D01*
X117667738Y-84797115D01*
X117818652Y-84704030D01*
X117944030Y-84578652D01*
X118037115Y-84427738D01*
X118092887Y-84259426D01*
X118102260Y-84167685D01*
X118103500Y-84155548D01*
X118103500Y-84155544D01*
X118103499Y-83678458D01*
X118123183Y-83611420D01*
X118128303Y-83604054D01*
X118443245Y-83184282D01*
X118499223Y-83142472D01*
X118542432Y-83134700D01*
X120166851Y-83134700D01*
X120233890Y-83154385D01*
X120247948Y-83164896D01*
X120421097Y-83314589D01*
X120458938Y-83373324D01*
X120464000Y-83408393D01*
X120464000Y-83675536D01*
X120464001Y-83675553D01*
X120474613Y-83779427D01*
X120506611Y-83875992D01*
X120530385Y-83947738D01*
X120623470Y-84098652D01*
X120748848Y-84224030D01*
X120872566Y-84300340D01*
X120919289Y-84352287D01*
X120930512Y-84421250D01*
X120902668Y-84485332D01*
X120895149Y-84493559D01*
X119036029Y-86352681D01*
X118974706Y-86386166D01*
X118948348Y-86389000D01*
X117278694Y-86389000D01*
X117270594Y-86388469D01*
X117253101Y-86386166D01*
X117236301Y-86383954D01*
X117236299Y-86383954D01*
X117083663Y-86404049D01*
X116941426Y-86462966D01*
X116872115Y-86516151D01*
X116819287Y-86556686D01*
X116798231Y-86584126D01*
X116792879Y-86590228D01*
X114976077Y-88407031D01*
X114914754Y-88440516D01*
X114848338Y-88436701D01*
X114749271Y-88402884D01*
X114687464Y-88381786D01*
X114687457Y-88381783D01*
X114687440Y-88381778D01*
X114687422Y-88381772D01*
X114687413Y-88381770D01*
X114638865Y-88367824D01*
X114633004Y-88366735D01*
X114633131Y-88366049D01*
X114615690Y-88362443D01*
X114569426Y-88347113D01*
X114465546Y-88336500D01*
X113614462Y-88336500D01*
X113614446Y-88336501D01*
X113510572Y-88347113D01*
X113342264Y-88402884D01*
X113342259Y-88402886D01*
X113191346Y-88495971D01*
X113065971Y-88621346D01*
X112972886Y-88772259D01*
X112972884Y-88772264D01*
X112917113Y-88940572D01*
X112906500Y-89044447D01*
X112906500Y-91295537D01*
X112906501Y-91295553D01*
X112917113Y-91399426D01*
X112972885Y-91567738D01*
X113065970Y-91718652D01*
X113191348Y-91844030D01*
X113342262Y-91937115D01*
X113510574Y-91992887D01*
X113614455Y-92003500D01*
X114465544Y-92003499D01*
X114569426Y-91992887D01*
X114737738Y-91937115D01*
X114888652Y-91844030D01*
X115014030Y-91718652D01*
X115107115Y-91567738D01*
X115162887Y-91399426D01*
X115173500Y-91295545D01*
X115173499Y-90561567D01*
X115181967Y-90516532D01*
X115187626Y-90502015D01*
X115466968Y-89785412D01*
X115509656Y-89730101D01*
X115575473Y-89706648D01*
X115643520Y-89722502D01*
X115692194Y-89772628D01*
X115706500Y-89830449D01*
X115706500Y-91295537D01*
X115706501Y-91295553D01*
X115717113Y-91399427D01*
X115772884Y-91567735D01*
X115772886Y-91567740D01*
X115865971Y-91718653D01*
X115867642Y-91720324D01*
X115882443Y-91738196D01*
X116233786Y-92254021D01*
X116255256Y-92320507D01*
X116255300Y-92323824D01*
X116255300Y-92969011D01*
X116254769Y-92977111D01*
X116250255Y-93011400D01*
X116251738Y-93022670D01*
X116254768Y-93045690D01*
X116255299Y-93053790D01*
X116255299Y-94036448D01*
X116235614Y-94103487D01*
X116218980Y-94124129D01*
X115106077Y-95237031D01*
X115044754Y-95270516D01*
X114978338Y-95266701D01*
X114879271Y-95232884D01*
X114817464Y-95211786D01*
X114817457Y-95211783D01*
X114817440Y-95211778D01*
X114817422Y-95211772D01*
X114817413Y-95211770D01*
X114768865Y-95197824D01*
X114763004Y-95196735D01*
X114763131Y-95196049D01*
X114745690Y-95192443D01*
X114699426Y-95177113D01*
X114699425Y-95177113D01*
X114595546Y-95166500D01*
X113744462Y-95166500D01*
X113744446Y-95166501D01*
X113640572Y-95177113D01*
X113472264Y-95232884D01*
X113472259Y-95232886D01*
X113321346Y-95325971D01*
X113195971Y-95451346D01*
X113102886Y-95602259D01*
X113102884Y-95602264D01*
X113047113Y-95770572D01*
X113036500Y-95874447D01*
X113036500Y-98067248D01*
X113016815Y-98134287D01*
X112964011Y-98180042D01*
X112894853Y-98189986D01*
X112831297Y-98160961D01*
X112824819Y-98154929D01*
X112508018Y-97838128D01*
X112474533Y-97776805D01*
X112471699Y-97750456D01*
X112471699Y-82608874D01*
X112491384Y-82541836D01*
X112544188Y-82496081D01*
X112613346Y-82486137D01*
X112676902Y-82515162D01*
X112711230Y-82563837D01*
X113028032Y-83376535D01*
X113036500Y-83421571D01*
X113036500Y-84155537D01*
X113036501Y-84155553D01*
X113047113Y-84259427D01*
X113088226Y-84383498D01*
X113102885Y-84427738D01*
X113195970Y-84578652D01*
X113321348Y-84704030D01*
X113472262Y-84797115D01*
X113640574Y-84852887D01*
X113744455Y-84863500D01*
X114595544Y-84863499D01*
X114699426Y-84852887D01*
X114867738Y-84797115D01*
X115018652Y-84704030D01*
X115144030Y-84578652D01*
X115237115Y-84427738D01*
X115292887Y-84259426D01*
X115302260Y-84167685D01*
X115303500Y-84155548D01*
X115303500Y-84155544D01*
X115303499Y-82355619D01*
X115323184Y-82288581D01*
X115375987Y-82242826D01*
X115445146Y-82232882D01*
X115508702Y-82261907D01*
G37*
G04 #@! TD.AperFunction*
G04 #@! TA.AperFunction,Conductor*
G36*
X123319596Y-81191706D02*
G01*
X123375530Y-81233577D01*
X123399947Y-81299042D01*
X123399621Y-81320490D01*
X123389000Y-81424445D01*
X123389000Y-83675537D01*
X123389001Y-83675553D01*
X123399613Y-83779427D01*
X123431611Y-83875992D01*
X123455385Y-83947738D01*
X123548470Y-84098652D01*
X123673848Y-84224030D01*
X123824762Y-84317115D01*
X123993074Y-84372887D01*
X124096955Y-84383500D01*
X124823044Y-84383499D01*
X124926926Y-84372887D01*
X125095238Y-84317115D01*
X125246152Y-84224030D01*
X125371530Y-84098652D01*
X125464615Y-83947738D01*
X125520387Y-83779426D01*
X125523393Y-83750001D01*
X129242704Y-83750001D01*
X129242899Y-83752486D01*
X129288718Y-83910198D01*
X129372314Y-84051552D01*
X129372321Y-84051561D01*
X129488438Y-84167678D01*
X129488447Y-84167685D01*
X129629803Y-84251282D01*
X129629806Y-84251283D01*
X129787504Y-84297099D01*
X129787510Y-84297100D01*
X129824350Y-84299999D01*
X129824366Y-84300000D01*
X130227500Y-84300000D01*
X130227500Y-83750000D01*
X129242705Y-83750000D01*
X129242704Y-83750001D01*
X125523393Y-83750001D01*
X125531000Y-83675545D01*
X125530999Y-82910489D01*
X125538428Y-82868215D01*
X125648812Y-82563839D01*
X125756670Y-82266424D01*
X125798031Y-82210113D01*
X125863270Y-82185102D01*
X125873241Y-82184700D01*
X127234068Y-82184700D01*
X127301107Y-82204385D01*
X127346862Y-82257189D01*
X127357686Y-82318429D01*
X127356500Y-82333492D01*
X127356500Y-82766507D01*
X127359437Y-82803829D01*
X127359438Y-82803835D01*
X127405853Y-82963596D01*
X127405855Y-82963601D01*
X127490544Y-83106803D01*
X127490551Y-83106812D01*
X127608187Y-83224448D01*
X127608196Y-83224455D01*
X127659165Y-83254598D01*
X127751399Y-83309145D01*
X127770138Y-83314589D01*
X127911164Y-83355561D01*
X127911167Y-83355561D01*
X127911169Y-83355562D01*
X127948498Y-83358500D01*
X127948504Y-83358500D01*
X129256496Y-83358500D01*
X129256502Y-83358500D01*
X129293831Y-83355562D01*
X129343908Y-83341012D01*
X129351537Y-83339309D01*
X129359660Y-83338026D01*
X129377985Y-83331271D01*
X129382106Y-83329914D01*
X129453601Y-83309145D01*
X129469673Y-83299639D01*
X129489905Y-83290027D01*
X129496802Y-83287486D01*
X129538486Y-83264936D01*
X129597487Y-83250000D01*
X130603500Y-83250000D01*
X130670539Y-83269685D01*
X130716294Y-83322489D01*
X130727500Y-83374000D01*
X130727500Y-84300000D01*
X130749600Y-84300000D01*
X130816639Y-84319685D01*
X130862394Y-84372489D01*
X130873600Y-84424000D01*
X130873600Y-89556684D01*
X130853915Y-89623723D01*
X130801111Y-89669478D01*
X130731953Y-89679422D01*
X130698091Y-89669479D01*
X130335274Y-89503794D01*
X130296482Y-89472913D01*
X130295461Y-89473935D01*
X130289714Y-89468188D01*
X130247641Y-89435904D01*
X130184478Y-89387438D01*
X130167573Y-89374466D01*
X130167571Y-89374464D01*
X130125911Y-89357209D01*
X130066995Y-89332805D01*
X130025337Y-89315550D01*
X129911021Y-89300500D01*
X129911019Y-89300500D01*
X129905934Y-89299830D01*
X129905897Y-89299825D01*
X129872702Y-89295455D01*
X129872699Y-89295455D01*
X129859564Y-89297184D01*
X129838410Y-89299969D01*
X129830312Y-89300500D01*
X123324686Y-89300500D01*
X123316586Y-89299969D01*
X123282300Y-89295455D01*
X123282296Y-89295455D01*
X123250063Y-89299698D01*
X123250047Y-89299701D01*
X123129663Y-89315550D01*
X123129659Y-89315551D01*
X123046342Y-89350061D01*
X123046343Y-89350062D01*
X122987426Y-89374465D01*
X122970521Y-89387438D01*
X122865287Y-89468185D01*
X122844228Y-89495629D01*
X122838876Y-89501732D01*
X122620702Y-89719906D01*
X122559379Y-89753391D01*
X122489687Y-89748407D01*
X122467925Y-89737764D01*
X122362735Y-89672883D01*
X122194428Y-89617113D01*
X122090546Y-89606500D01*
X121364462Y-89606500D01*
X121364446Y-89606501D01*
X121260572Y-89617113D01*
X121092264Y-89672884D01*
X121092259Y-89672886D01*
X120941346Y-89765971D01*
X120815971Y-89891346D01*
X120722886Y-90042259D01*
X120722884Y-90042264D01*
X120667113Y-90210572D01*
X120656500Y-90314447D01*
X120656500Y-90314460D01*
X120656501Y-92302700D01*
X120636816Y-92369739D01*
X120584013Y-92415494D01*
X120532501Y-92426700D01*
X117563088Y-92426700D01*
X117496049Y-92407015D01*
X117450294Y-92354211D01*
X117440350Y-92285053D01*
X117460603Y-92232895D01*
X117589001Y-92044385D01*
X117797551Y-91738199D01*
X117812356Y-91720324D01*
X117814030Y-91718652D01*
X117907115Y-91567738D01*
X117962887Y-91399426D01*
X117973500Y-91295545D01*
X117973499Y-89044456D01*
X117962887Y-88940574D01*
X117907115Y-88772262D01*
X117814030Y-88621348D01*
X117688652Y-88495970D01*
X117537738Y-88402885D01*
X117537735Y-88402884D01*
X117369427Y-88347113D01*
X117265552Y-88336500D01*
X117265545Y-88336500D01*
X116999752Y-88336500D01*
X116932713Y-88316815D01*
X116886958Y-88264011D01*
X116877014Y-88194853D01*
X116906039Y-88131297D01*
X116912071Y-88124819D01*
X117097163Y-87939728D01*
X117442171Y-87594719D01*
X117503495Y-87561234D01*
X117529853Y-87558400D01*
X119199514Y-87558400D01*
X119207613Y-87558930D01*
X119241900Y-87563445D01*
X119280219Y-87558400D01*
X119280221Y-87558400D01*
X119394537Y-87543350D01*
X119495108Y-87501690D01*
X119495111Y-87501690D01*
X119536773Y-87484434D01*
X119581284Y-87450279D01*
X119581284Y-87450277D01*
X119658913Y-87390713D01*
X119679975Y-87363262D01*
X119685316Y-87357172D01*
X122747679Y-84294809D01*
X122753764Y-84289473D01*
X122781213Y-84268413D01*
X122795885Y-84249292D01*
X122867817Y-84155548D01*
X122869217Y-84153722D01*
X122874934Y-84146273D01*
X122927643Y-84019021D01*
X122933850Y-84004037D01*
X122948900Y-83889721D01*
X122948900Y-83889718D01*
X122953945Y-83851400D01*
X122949430Y-83817111D01*
X122948900Y-83809011D01*
X122948900Y-81511252D01*
X122968585Y-81444213D01*
X122985219Y-81423571D01*
X123062626Y-81346164D01*
X123188584Y-81220205D01*
X123249905Y-81186722D01*
X123319596Y-81191706D01*
G37*
G04 #@! TD.AperFunction*
G04 #@! TA.AperFunction,Conductor*
G36*
X115787718Y-75026385D02*
G01*
X115833473Y-75079189D01*
X115843417Y-75148347D01*
X115826217Y-75195797D01*
X115772889Y-75282253D01*
X115772884Y-75282264D01*
X115717113Y-75450572D01*
X115706500Y-75554447D01*
X115706500Y-77805537D01*
X115706501Y-77805553D01*
X115717113Y-77909427D01*
X115772884Y-78077735D01*
X115772885Y-78077738D01*
X115865970Y-78228652D01*
X115991348Y-78354030D01*
X116142262Y-78447115D01*
X116310574Y-78502887D01*
X116414455Y-78513500D01*
X117265544Y-78513499D01*
X117369426Y-78502887D01*
X117537738Y-78447115D01*
X117688652Y-78354030D01*
X117814030Y-78228652D01*
X117907115Y-78077738D01*
X117962887Y-77909426D01*
X117965017Y-77902999D01*
X117967195Y-77903720D01*
X117995371Y-77851709D01*
X118056582Y-77818020D01*
X118126290Y-77822771D01*
X118171026Y-77851416D01*
X120914261Y-80594651D01*
X120947746Y-80655974D01*
X120942762Y-80725666D01*
X120900890Y-80781599D01*
X120891678Y-80787870D01*
X120748848Y-80875969D01*
X120623471Y-81001346D01*
X120530386Y-81152259D01*
X120530384Y-81152264D01*
X120474613Y-81320572D01*
X120464000Y-81424447D01*
X120464000Y-81691605D01*
X120444315Y-81758644D01*
X120421097Y-81785409D01*
X120247947Y-81935104D01*
X120184359Y-81964058D01*
X120166850Y-81965300D01*
X118396605Y-81965300D01*
X118335569Y-81949238D01*
X118251605Y-81901759D01*
X118139176Y-81838183D01*
X118090511Y-81788051D01*
X118082507Y-81769249D01*
X118056779Y-81691605D01*
X118037115Y-81632262D01*
X117944030Y-81481348D01*
X117818652Y-81355970D01*
X117667738Y-81262885D01*
X117604034Y-81241776D01*
X117499427Y-81207113D01*
X117395552Y-81196500D01*
X117395545Y-81196500D01*
X116930816Y-81196500D01*
X116893350Y-81190704D01*
X116254933Y-80988350D01*
X116204718Y-80957827D01*
X114661019Y-79414128D01*
X114627534Y-79352805D01*
X114624700Y-79326447D01*
X114624700Y-78833823D01*
X114644385Y-78766784D01*
X114646215Y-78764018D01*
X114700037Y-78684999D01*
X114997551Y-78248199D01*
X115012356Y-78230324D01*
X115014030Y-78228652D01*
X115107115Y-78077738D01*
X115162887Y-77909426D01*
X115173500Y-77805545D01*
X115173499Y-75554456D01*
X115162887Y-75450574D01*
X115107115Y-75282262D01*
X115107111Y-75282256D01*
X115107110Y-75282253D01*
X115053783Y-75195797D01*
X115035342Y-75128405D01*
X115056264Y-75061741D01*
X115109906Y-75016972D01*
X115159321Y-75006700D01*
X115720679Y-75006700D01*
X115787718Y-75026385D01*
G37*
G04 #@! TD.AperFunction*
G04 #@! TA.AperFunction,Conductor*
G36*
X133696236Y-65678975D02*
G01*
X133753852Y-65718499D01*
X133780768Y-65781346D01*
X133874333Y-66523920D01*
X133874338Y-66523955D01*
X133875252Y-66530103D01*
X133876600Y-66548336D01*
X133876600Y-72841247D01*
X133856915Y-72908286D01*
X133840281Y-72928928D01*
X128645729Y-78123481D01*
X128584406Y-78156966D01*
X128558048Y-78159800D01*
X124879786Y-78159800D01*
X124871686Y-78159269D01*
X124837400Y-78154755D01*
X124837396Y-78154755D01*
X124805163Y-78158998D01*
X124805147Y-78159001D01*
X124684763Y-78174850D01*
X124684762Y-78174850D01*
X124598132Y-78210734D01*
X124542528Y-78233765D01*
X124542526Y-78233766D01*
X124509380Y-78259201D01*
X124420386Y-78327486D01*
X124399328Y-78354929D01*
X124393976Y-78361032D01*
X122451880Y-80303128D01*
X122390557Y-80336613D01*
X122320865Y-80331629D01*
X122276518Y-80303128D01*
X118463075Y-76489685D01*
X118447835Y-76471165D01*
X118440358Y-76460038D01*
X118005469Y-75978450D01*
X117975148Y-75915502D01*
X117973499Y-75895344D01*
X117973499Y-75554462D01*
X117973498Y-75554446D01*
X117973218Y-75551707D01*
X117962887Y-75450574D01*
X117907115Y-75282262D01*
X117907111Y-75282256D01*
X117907110Y-75282253D01*
X117853783Y-75195797D01*
X117835342Y-75128405D01*
X117856264Y-75061741D01*
X117909906Y-75016972D01*
X117959321Y-75006700D01*
X122893614Y-75006700D01*
X122901713Y-75007230D01*
X122936000Y-75011745D01*
X122974319Y-75006700D01*
X122974321Y-75006700D01*
X123088637Y-74991650D01*
X123189208Y-74949990D01*
X123189211Y-74949990D01*
X123206468Y-74942841D01*
X123230873Y-74932734D01*
X123308116Y-74873463D01*
X123353013Y-74839013D01*
X123374075Y-74811562D01*
X123379416Y-74805472D01*
X131683101Y-66501788D01*
X131733046Y-66471352D01*
X132919703Y-66092305D01*
X132922203Y-66091591D01*
X132922627Y-66091445D01*
X132922635Y-66091444D01*
X132925160Y-66090576D01*
X132926305Y-66090196D01*
X133062449Y-66046710D01*
X133072433Y-66043294D01*
X133078295Y-66041152D01*
X133104596Y-66029264D01*
X133110000Y-66027120D01*
X133135574Y-66018342D01*
X133333576Y-65911189D01*
X133511240Y-65772906D01*
X133566513Y-65712863D01*
X133626398Y-65676875D01*
X133696236Y-65678975D01*
G37*
G04 #@! TD.AperFunction*
G04 #@! TA.AperFunction,Conductor*
G36*
X91237576Y-60725685D02*
G01*
X91283331Y-60778489D01*
X91293275Y-60847647D01*
X91264250Y-60911203D01*
X91205472Y-60948977D01*
X91202630Y-60949775D01*
X91044063Y-60992262D01*
X90682005Y-61131244D01*
X90336456Y-61307310D01*
X90011206Y-61518531D01*
X89753648Y-61727095D01*
X89753648Y-61727096D01*
X90651306Y-62624754D01*
X90589489Y-62583449D01*
X90516568Y-62568944D01*
X90467320Y-62568944D01*
X90394399Y-62583449D01*
X90311704Y-62638704D01*
X90256449Y-62721399D01*
X90237046Y-62818944D01*
X90256449Y-62916489D01*
X90297753Y-62978305D01*
X89400096Y-62080648D01*
X89400095Y-62080648D01*
X89191531Y-62338206D01*
X88980310Y-62663456D01*
X88804244Y-63009005D01*
X88665262Y-63371063D01*
X88564887Y-63745669D01*
X88564886Y-63745676D01*
X88504219Y-64128712D01*
X88483922Y-64515999D01*
X88483922Y-64516000D01*
X88504219Y-64903287D01*
X88564886Y-65286323D01*
X88564887Y-65286330D01*
X88665262Y-65660936D01*
X88804244Y-66022994D01*
X88980310Y-66368543D01*
X89191531Y-66693793D01*
X89400095Y-66951350D01*
X89400096Y-66951350D01*
X90297756Y-66053689D01*
X90256449Y-66115511D01*
X90237046Y-66213056D01*
X90256449Y-66310601D01*
X90311704Y-66393296D01*
X90394399Y-66448551D01*
X90467320Y-66463056D01*
X90516568Y-66463056D01*
X90589489Y-66448551D01*
X90651304Y-66407247D01*
X89753648Y-67304903D01*
X89753649Y-67304904D01*
X90011206Y-67513468D01*
X90336456Y-67724689D01*
X90682005Y-67900755D01*
X91044063Y-68039737D01*
X91418669Y-68140112D01*
X91418676Y-68140113D01*
X91801712Y-68200780D01*
X92188999Y-68221078D01*
X92189001Y-68221078D01*
X92576287Y-68200780D01*
X92959323Y-68140113D01*
X92959330Y-68140112D01*
X93333936Y-68039737D01*
X93695994Y-67900755D01*
X94041543Y-67724689D01*
X94366783Y-67513476D01*
X94366785Y-67513475D01*
X94624349Y-67304902D01*
X93726691Y-66407244D01*
X93788511Y-66448551D01*
X93861432Y-66463056D01*
X93910680Y-66463056D01*
X93983601Y-66448551D01*
X94066296Y-66393296D01*
X94121551Y-66310601D01*
X94140954Y-66213056D01*
X94121551Y-66115511D01*
X94080245Y-66053692D01*
X94977902Y-66951349D01*
X95186475Y-66693785D01*
X95186476Y-66693783D01*
X95397689Y-66368543D01*
X95573755Y-66022994D01*
X95712737Y-65660936D01*
X95813112Y-65286330D01*
X95813113Y-65286323D01*
X95873780Y-64903287D01*
X95894078Y-64516000D01*
X95894078Y-64515999D01*
X95873780Y-64128712D01*
X95813113Y-63745676D01*
X95813112Y-63745669D01*
X95712737Y-63371063D01*
X95573755Y-63009005D01*
X95397689Y-62663456D01*
X95186468Y-62338206D01*
X94977904Y-62080649D01*
X94977903Y-62080648D01*
X94080248Y-62978302D01*
X94121551Y-62916489D01*
X94140954Y-62818944D01*
X94121551Y-62721399D01*
X94066296Y-62638704D01*
X93983601Y-62583449D01*
X93910680Y-62568944D01*
X93861432Y-62568944D01*
X93788511Y-62583449D01*
X93726690Y-62624755D01*
X94624350Y-61727096D01*
X94624350Y-61727095D01*
X94366793Y-61518531D01*
X94041543Y-61307310D01*
X93695994Y-61131244D01*
X93333936Y-60992262D01*
X93175370Y-60949775D01*
X93115709Y-60913410D01*
X93085180Y-60850563D01*
X93093475Y-60781187D01*
X93137960Y-60727310D01*
X93204512Y-60706035D01*
X93207463Y-60706000D01*
X165551971Y-60706000D01*
X165619010Y-60725685D01*
X165664765Y-60778489D01*
X165674709Y-60847647D01*
X165645684Y-60911203D01*
X165586906Y-60948977D01*
X165558461Y-60953830D01*
X165474712Y-60958219D01*
X165091676Y-61018886D01*
X165091669Y-61018887D01*
X164717063Y-61119262D01*
X164355005Y-61258244D01*
X164009456Y-61434310D01*
X163684206Y-61645531D01*
X163426648Y-61854095D01*
X163426648Y-61854096D01*
X164324306Y-62751754D01*
X164262489Y-62710449D01*
X164189568Y-62695944D01*
X164140320Y-62695944D01*
X164067399Y-62710449D01*
X163984704Y-62765704D01*
X163929449Y-62848399D01*
X163910046Y-62945944D01*
X163929449Y-63043489D01*
X163970753Y-63105305D01*
X163073096Y-62207648D01*
X163073095Y-62207648D01*
X162864531Y-62465206D01*
X162653310Y-62790456D01*
X162477244Y-63136005D01*
X162338262Y-63498063D01*
X162237887Y-63872669D01*
X162237886Y-63872676D01*
X162177219Y-64255712D01*
X162156922Y-64642999D01*
X162156922Y-64643000D01*
X162177219Y-65030287D01*
X162237886Y-65413323D01*
X162237887Y-65413330D01*
X162338262Y-65787936D01*
X162477244Y-66149994D01*
X162653310Y-66495543D01*
X162864531Y-66820793D01*
X163073095Y-67078350D01*
X163073096Y-67078350D01*
X163970757Y-66180688D01*
X163929449Y-66242511D01*
X163910046Y-66340056D01*
X163929449Y-66437601D01*
X163984704Y-66520296D01*
X164067399Y-66575551D01*
X164140320Y-66590056D01*
X164189568Y-66590056D01*
X164262489Y-66575551D01*
X164324304Y-66534247D01*
X163426648Y-67431903D01*
X163426649Y-67431904D01*
X163684206Y-67640468D01*
X164009456Y-67851689D01*
X164355005Y-68027755D01*
X164717063Y-68166737D01*
X165091669Y-68267112D01*
X165091676Y-68267113D01*
X165474712Y-68327780D01*
X165861999Y-68348078D01*
X165862001Y-68348078D01*
X166249287Y-68327780D01*
X166632323Y-68267113D01*
X166632330Y-68267112D01*
X167006936Y-68166737D01*
X167368994Y-68027755D01*
X167714543Y-67851689D01*
X168039783Y-67640476D01*
X168039785Y-67640475D01*
X168297349Y-67431902D01*
X167399691Y-66534244D01*
X167461511Y-66575551D01*
X167534432Y-66590056D01*
X167583680Y-66590056D01*
X167656601Y-66575551D01*
X167739296Y-66520296D01*
X167794551Y-66437601D01*
X167813954Y-66340056D01*
X167794551Y-66242511D01*
X167753244Y-66180691D01*
X168650902Y-67078349D01*
X168859475Y-66820785D01*
X168859476Y-66820783D01*
X169070689Y-66495543D01*
X169246755Y-66149994D01*
X169385737Y-65787936D01*
X169486112Y-65413330D01*
X169486113Y-65413323D01*
X169546780Y-65030287D01*
X169567078Y-64643000D01*
X169567078Y-64642999D01*
X169546780Y-64255712D01*
X169486113Y-63872676D01*
X169486112Y-63872669D01*
X169385737Y-63498063D01*
X169246755Y-63136005D01*
X169070689Y-62790456D01*
X168859468Y-62465206D01*
X168650904Y-62207649D01*
X168650903Y-62207648D01*
X167753247Y-63105303D01*
X167794551Y-63043489D01*
X167813954Y-62945944D01*
X167794551Y-62848399D01*
X167739296Y-62765704D01*
X167656601Y-62710449D01*
X167583680Y-62695944D01*
X167534432Y-62695944D01*
X167461511Y-62710449D01*
X167399690Y-62751755D01*
X168297350Y-61854096D01*
X168297350Y-61854095D01*
X168039793Y-61645531D01*
X167714543Y-61434310D01*
X167368994Y-61258244D01*
X167006936Y-61119262D01*
X166632330Y-61018887D01*
X166632323Y-61018886D01*
X166249287Y-60958219D01*
X166165539Y-60953830D01*
X166099622Y-60930664D01*
X166056693Y-60875538D01*
X166050383Y-60805953D01*
X166082694Y-60744004D01*
X166143369Y-60709358D01*
X166172029Y-60706000D01*
X169802000Y-60706000D01*
X169869039Y-60725685D01*
X169914794Y-60778489D01*
X169926000Y-60830000D01*
X169926000Y-132845000D01*
X169906315Y-132912039D01*
X169853511Y-132957794D01*
X169802000Y-132969000D01*
X92639029Y-132969000D01*
X92571990Y-132949315D01*
X92526235Y-132896511D01*
X92516291Y-132827353D01*
X92545316Y-132763797D01*
X92604094Y-132726023D01*
X92632539Y-132721170D01*
X92716287Y-132716780D01*
X93099323Y-132656113D01*
X93099330Y-132656112D01*
X93473936Y-132555737D01*
X93835994Y-132416755D01*
X94181543Y-132240689D01*
X94506783Y-132029476D01*
X94506785Y-132029475D01*
X94764349Y-131820902D01*
X93866691Y-130923244D01*
X93928511Y-130964551D01*
X94001432Y-130979056D01*
X94050680Y-130979056D01*
X94123601Y-130964551D01*
X94206296Y-130909296D01*
X94261551Y-130826601D01*
X94280954Y-130729056D01*
X94261551Y-130631511D01*
X94220244Y-130569691D01*
X95117902Y-131467349D01*
X95326475Y-131209785D01*
X95326476Y-131209783D01*
X95537689Y-130884543D01*
X95713755Y-130538994D01*
X95852737Y-130176936D01*
X95853256Y-130175000D01*
X116098975Y-130175000D01*
X116119042Y-130429989D01*
X116178752Y-130678702D01*
X116276634Y-130915012D01*
X116276636Y-130915015D01*
X116410275Y-131133095D01*
X116410286Y-131133110D01*
X116413533Y-131136911D01*
X116413535Y-131136911D01*
X116977766Y-130572679D01*
X117021316Y-130654822D01*
X117141009Y-130795735D01*
X117288195Y-130907623D01*
X117330402Y-130927150D01*
X116767087Y-131490464D01*
X116767087Y-131490465D01*
X116770888Y-131493712D01*
X116770898Y-131493719D01*
X116988984Y-131627363D01*
X116988987Y-131627365D01*
X117225297Y-131725247D01*
X117474011Y-131784957D01*
X117474010Y-131784957D01*
X117729000Y-131805024D01*
X117983989Y-131784957D01*
X118232702Y-131725247D01*
X118469012Y-131627365D01*
X118469015Y-131627363D01*
X118687103Y-131493719D01*
X118690912Y-131490464D01*
X118127609Y-130927161D01*
X118246431Y-130855669D01*
X118380658Y-130728523D01*
X118483861Y-130576309D01*
X119044464Y-131136912D01*
X119047719Y-131133103D01*
X119181363Y-130915015D01*
X119181365Y-130915012D01*
X119279247Y-130678702D01*
X119338957Y-130429989D01*
X119359024Y-130175000D01*
X121178975Y-130175000D01*
X121199042Y-130429989D01*
X121258752Y-130678702D01*
X121356634Y-130915012D01*
X121356636Y-130915015D01*
X121490275Y-131133095D01*
X121490286Y-131133110D01*
X121493533Y-131136911D01*
X121493535Y-131136911D01*
X122057766Y-130572679D01*
X122101316Y-130654822D01*
X122221009Y-130795735D01*
X122368195Y-130907623D01*
X122410402Y-130927150D01*
X121847087Y-131490464D01*
X121847087Y-131490465D01*
X121850888Y-131493712D01*
X121850898Y-131493719D01*
X122068984Y-131627363D01*
X122068987Y-131627365D01*
X122305297Y-131725247D01*
X122554011Y-131784957D01*
X122554010Y-131784957D01*
X122809000Y-131805024D01*
X123063989Y-131784957D01*
X123312702Y-131725247D01*
X123549012Y-131627365D01*
X123549015Y-131627363D01*
X123767103Y-131493719D01*
X123770912Y-131490464D01*
X123207609Y-130927161D01*
X123326431Y-130855669D01*
X123460658Y-130728523D01*
X123563861Y-130576309D01*
X124124464Y-131136912D01*
X124127719Y-131133103D01*
X124261363Y-130915015D01*
X124261365Y-130915012D01*
X124304862Y-130809999D01*
X140736975Y-130809999D01*
X140757042Y-131064989D01*
X140816752Y-131313702D01*
X140914634Y-131550012D01*
X140914636Y-131550015D01*
X141048275Y-131768095D01*
X141048286Y-131768110D01*
X141051533Y-131771911D01*
X141051535Y-131771911D01*
X141615766Y-131207679D01*
X141659316Y-131289822D01*
X141779009Y-131430735D01*
X141926195Y-131542623D01*
X141968402Y-131562150D01*
X141405087Y-132125464D01*
X141405087Y-132125465D01*
X141408888Y-132128712D01*
X141408898Y-132128719D01*
X141626984Y-132262363D01*
X141626987Y-132262365D01*
X141863297Y-132360247D01*
X142112011Y-132419957D01*
X142112010Y-132419957D01*
X142366999Y-132440024D01*
X142621989Y-132419957D01*
X142870702Y-132360247D01*
X143107012Y-132262365D01*
X143107015Y-132262363D01*
X143325103Y-132128719D01*
X143328912Y-132125464D01*
X142765609Y-131562161D01*
X142884431Y-131490669D01*
X143018658Y-131363523D01*
X143121861Y-131211309D01*
X143682464Y-131771912D01*
X143685719Y-131768103D01*
X143819363Y-131550015D01*
X143819365Y-131550012D01*
X143917247Y-131313702D01*
X143976957Y-131064989D01*
X143997024Y-130810000D01*
X145816975Y-130810000D01*
X145837042Y-131064989D01*
X145896752Y-131313702D01*
X145994634Y-131550012D01*
X145994636Y-131550015D01*
X146128275Y-131768095D01*
X146128286Y-131768110D01*
X146131533Y-131771911D01*
X146131535Y-131771911D01*
X146695766Y-131207679D01*
X146739316Y-131289822D01*
X146859009Y-131430735D01*
X147006195Y-131542623D01*
X147048402Y-131562150D01*
X146485087Y-132125464D01*
X146485087Y-132125465D01*
X146488888Y-132128712D01*
X146488898Y-132128719D01*
X146706984Y-132262363D01*
X146706987Y-132262365D01*
X146943297Y-132360247D01*
X147192011Y-132419957D01*
X147192010Y-132419957D01*
X147446999Y-132440024D01*
X147701989Y-132419957D01*
X147950702Y-132360247D01*
X148187012Y-132262365D01*
X148187015Y-132262363D01*
X148405103Y-132128719D01*
X148408912Y-132125464D01*
X147845609Y-131562161D01*
X147964431Y-131490669D01*
X148098658Y-131363523D01*
X148201861Y-131211309D01*
X148762464Y-131771912D01*
X148765719Y-131768103D01*
X148899363Y-131550015D01*
X148899365Y-131550012D01*
X148997247Y-131313702D01*
X149056957Y-131064989D01*
X149077024Y-130810000D01*
X149056957Y-130555010D01*
X148997247Y-130306297D01*
X148899365Y-130069987D01*
X148899363Y-130069984D01*
X148765719Y-129851898D01*
X148765712Y-129851888D01*
X148762465Y-129848087D01*
X148762464Y-129848087D01*
X148198232Y-130412319D01*
X148154684Y-130330178D01*
X148034991Y-130189265D01*
X147887805Y-130077377D01*
X147845597Y-130057849D01*
X148408911Y-129494535D01*
X148408911Y-129494533D01*
X148405110Y-129491286D01*
X148405095Y-129491275D01*
X148187015Y-129357636D01*
X148187012Y-129357634D01*
X147950702Y-129259752D01*
X147701988Y-129200042D01*
X147701989Y-129200042D01*
X147447000Y-129179975D01*
X147192010Y-129200042D01*
X146943297Y-129259752D01*
X146706987Y-129357634D01*
X146706984Y-129357636D01*
X146488897Y-129491280D01*
X146485087Y-129494534D01*
X147048390Y-130057837D01*
X146929569Y-130129331D01*
X146795342Y-130256477D01*
X146692138Y-130408691D01*
X146131534Y-129848087D01*
X146128280Y-129851897D01*
X145994636Y-130069984D01*
X145994634Y-130069987D01*
X145896752Y-130306297D01*
X145837042Y-130555010D01*
X145816975Y-130810000D01*
X143997024Y-130810000D01*
X143976957Y-130555010D01*
X143917247Y-130306297D01*
X143819365Y-130069987D01*
X143819363Y-130069984D01*
X143685719Y-129851898D01*
X143685712Y-129851888D01*
X143682465Y-129848087D01*
X143682464Y-129848087D01*
X143118232Y-130412319D01*
X143074684Y-130330178D01*
X142954991Y-130189265D01*
X142807805Y-130077377D01*
X142765597Y-130057849D01*
X143328911Y-129494535D01*
X143328911Y-129494533D01*
X143325110Y-129491286D01*
X143325095Y-129491275D01*
X143107015Y-129357636D01*
X143107012Y-129357634D01*
X142870702Y-129259752D01*
X142621988Y-129200042D01*
X142621989Y-129200042D01*
X142367000Y-129179975D01*
X142112010Y-129200042D01*
X141863297Y-129259752D01*
X141626987Y-129357634D01*
X141626984Y-129357636D01*
X141408897Y-129491280D01*
X141405087Y-129494534D01*
X141968390Y-130057837D01*
X141849569Y-130129331D01*
X141715342Y-130256477D01*
X141612139Y-130408690D01*
X141051534Y-129848087D01*
X141048280Y-129851897D01*
X140914636Y-130069984D01*
X140914634Y-130069987D01*
X140816752Y-130306297D01*
X140757042Y-130555010D01*
X140736975Y-130809999D01*
X124304862Y-130809999D01*
X124359247Y-130678702D01*
X124418957Y-130429989D01*
X124439024Y-130174999D01*
X124418957Y-129920010D01*
X124359247Y-129671297D01*
X124261365Y-129434987D01*
X124261363Y-129434984D01*
X124127719Y-129216898D01*
X124127712Y-129216888D01*
X124124465Y-129213087D01*
X124124464Y-129213087D01*
X123560232Y-129777319D01*
X123516684Y-129695178D01*
X123396991Y-129554265D01*
X123249805Y-129442377D01*
X123207597Y-129422849D01*
X123770911Y-128859535D01*
X123770911Y-128859533D01*
X123767110Y-128856286D01*
X123767095Y-128856275D01*
X123549015Y-128722636D01*
X123549012Y-128722634D01*
X123312702Y-128624752D01*
X123063988Y-128565042D01*
X123063989Y-128565042D01*
X122809000Y-128544975D01*
X122554010Y-128565042D01*
X122305297Y-128624752D01*
X122068987Y-128722634D01*
X122068984Y-128722636D01*
X121850897Y-128856280D01*
X121847087Y-128859534D01*
X122410390Y-129422837D01*
X122291569Y-129494331D01*
X122157342Y-129621477D01*
X122054138Y-129773691D01*
X121493534Y-129213087D01*
X121490280Y-129216897D01*
X121356636Y-129434984D01*
X121356634Y-129434987D01*
X121258752Y-129671297D01*
X121199042Y-129920010D01*
X121178975Y-130175000D01*
X119359024Y-130175000D01*
X119338957Y-129920010D01*
X119279247Y-129671297D01*
X119181365Y-129434987D01*
X119181363Y-129434984D01*
X119047719Y-129216898D01*
X119047712Y-129216888D01*
X119044465Y-129213087D01*
X119044464Y-129213087D01*
X118480232Y-129777319D01*
X118436684Y-129695178D01*
X118316991Y-129554265D01*
X118169805Y-129442377D01*
X118127597Y-129422849D01*
X118690911Y-128859535D01*
X118690911Y-128859533D01*
X118687110Y-128856286D01*
X118687095Y-128856275D01*
X118469015Y-128722636D01*
X118469012Y-128722634D01*
X118232702Y-128624752D01*
X117983988Y-128565042D01*
X117983989Y-128565042D01*
X117729000Y-128544975D01*
X117474010Y-128565042D01*
X117225297Y-128624752D01*
X116988987Y-128722634D01*
X116988984Y-128722636D01*
X116770897Y-128856280D01*
X116767087Y-128859534D01*
X117330390Y-129422837D01*
X117211569Y-129494331D01*
X117077342Y-129621477D01*
X116974138Y-129773691D01*
X116413534Y-129213087D01*
X116410280Y-129216897D01*
X116276636Y-129434984D01*
X116276634Y-129434987D01*
X116178752Y-129671297D01*
X116119042Y-129920010D01*
X116098975Y-130175000D01*
X95853256Y-130175000D01*
X95953112Y-129802330D01*
X95953113Y-129802323D01*
X96013780Y-129419287D01*
X96034078Y-129032000D01*
X96034078Y-129031999D01*
X96013780Y-128644712D01*
X95953113Y-128261676D01*
X95953112Y-128261669D01*
X95852737Y-127887063D01*
X95713755Y-127525005D01*
X95537689Y-127179456D01*
X95326468Y-126854206D01*
X95117904Y-126596649D01*
X95117903Y-126596648D01*
X94220247Y-127494303D01*
X94261551Y-127432489D01*
X94280954Y-127334944D01*
X94261551Y-127237399D01*
X94206296Y-127154704D01*
X94123601Y-127099449D01*
X94050680Y-127084944D01*
X94001432Y-127084944D01*
X93928511Y-127099449D01*
X93866690Y-127140755D01*
X94764350Y-126243096D01*
X94764350Y-126243095D01*
X94506793Y-126034531D01*
X94181543Y-125823310D01*
X93835994Y-125647244D01*
X93473936Y-125508262D01*
X93099330Y-125407887D01*
X93099323Y-125407886D01*
X92716287Y-125347219D01*
X92329001Y-125326922D01*
X92328999Y-125326922D01*
X91941712Y-125347219D01*
X91558676Y-125407886D01*
X91558669Y-125407887D01*
X91184063Y-125508262D01*
X90822005Y-125647244D01*
X90476456Y-125823310D01*
X90151206Y-126034531D01*
X89893648Y-126243095D01*
X89893648Y-126243096D01*
X90791306Y-127140754D01*
X90729489Y-127099449D01*
X90656568Y-127084944D01*
X90607320Y-127084944D01*
X90534399Y-127099449D01*
X90451704Y-127154704D01*
X90396449Y-127237399D01*
X90377046Y-127334944D01*
X90396449Y-127432489D01*
X90437753Y-127494305D01*
X89540096Y-126596648D01*
X89540095Y-126596648D01*
X89331531Y-126854206D01*
X89120310Y-127179456D01*
X88944244Y-127525005D01*
X88805262Y-127887063D01*
X88704887Y-128261669D01*
X88704886Y-128261676D01*
X88644219Y-128644712D01*
X88623922Y-129031999D01*
X88623922Y-129032000D01*
X88644219Y-129419287D01*
X88704886Y-129802323D01*
X88704887Y-129802330D01*
X88805262Y-130176936D01*
X88944244Y-130538994D01*
X89120310Y-130884543D01*
X89331531Y-131209793D01*
X89540095Y-131467350D01*
X89540096Y-131467350D01*
X90437756Y-130569689D01*
X90396449Y-130631511D01*
X90377046Y-130729056D01*
X90396449Y-130826601D01*
X90451704Y-130909296D01*
X90534399Y-130964551D01*
X90607320Y-130979056D01*
X90656568Y-130979056D01*
X90729489Y-130964551D01*
X90791304Y-130923247D01*
X89893648Y-131820903D01*
X89893649Y-131820904D01*
X90151206Y-132029468D01*
X90476456Y-132240689D01*
X90822005Y-132416755D01*
X91184063Y-132555737D01*
X91558669Y-132656112D01*
X91558676Y-132656113D01*
X91941712Y-132716780D01*
X92025461Y-132721170D01*
X92091378Y-132744336D01*
X92134307Y-132799462D01*
X92140617Y-132869047D01*
X92108306Y-132930996D01*
X92047631Y-132965642D01*
X92018971Y-132969000D01*
X88262000Y-132969000D01*
X88194961Y-132949315D01*
X88149206Y-132896511D01*
X88138000Y-132845000D01*
X88138000Y-121548654D01*
X90081500Y-121548654D01*
X90088011Y-121609202D01*
X90088011Y-121609204D01*
X90139110Y-121746203D01*
X90139111Y-121746204D01*
X90226739Y-121863261D01*
X90343796Y-121950889D01*
X90480799Y-122001989D01*
X90508050Y-122004918D01*
X90541345Y-122008499D01*
X90541362Y-122008500D01*
X92284687Y-122008500D01*
X92292856Y-122009040D01*
X92295081Y-122009336D01*
X92295087Y-122009334D01*
X92299797Y-122009286D01*
X92310018Y-122008500D01*
X92338638Y-122008500D01*
X92338654Y-122008499D01*
X92376560Y-122004423D01*
X92399201Y-122001989D01*
X92437002Y-121987889D01*
X92440554Y-121986685D01*
X92448087Y-121984387D01*
X92448100Y-121984382D01*
X92448104Y-121984381D01*
X92461868Y-121979359D01*
X92499732Y-121965548D01*
X92499742Y-121965541D01*
X92506988Y-121962059D01*
X92512170Y-121959852D01*
X92536204Y-121950889D01*
X92587137Y-121912760D01*
X92592074Y-121909423D01*
X92624630Y-121889637D01*
X93295954Y-121336781D01*
X93360219Y-121309358D01*
X93374783Y-121308500D01*
X104815609Y-121308500D01*
X104831746Y-121310281D01*
X104831768Y-121310054D01*
X104839535Y-121310788D01*
X104839536Y-121310787D01*
X104839537Y-121310788D01*
X104846239Y-121310577D01*
X104911375Y-121308531D01*
X104913322Y-121308500D01*
X104943427Y-121308500D01*
X104943432Y-121308500D01*
X104950822Y-121307566D01*
X104956651Y-121307107D01*
X105005831Y-121305562D01*
X105026583Y-121299532D01*
X105045621Y-121295590D01*
X105067064Y-121292882D01*
X105112834Y-121274760D01*
X105118348Y-121272873D01*
X105144875Y-121265165D01*
X105165600Y-121259145D01*
X105184196Y-121248146D01*
X105201664Y-121239589D01*
X105221756Y-121231635D01*
X105261582Y-121202698D01*
X105266441Y-121199506D01*
X105308807Y-121174453D01*
X105324090Y-121159168D01*
X105338873Y-121146542D01*
X105356357Y-121133841D01*
X105387731Y-121095914D01*
X105391645Y-121091613D01*
X111488440Y-114994819D01*
X111549764Y-114961334D01*
X111576122Y-114958500D01*
X118658609Y-114958500D01*
X118674746Y-114960281D01*
X118674768Y-114960054D01*
X118682535Y-114960788D01*
X118682536Y-114960787D01*
X118682537Y-114960788D01*
X118689239Y-114960577D01*
X118754375Y-114958531D01*
X118756322Y-114958500D01*
X118786427Y-114958500D01*
X118786432Y-114958500D01*
X118793822Y-114957566D01*
X118799651Y-114957107D01*
X118848831Y-114955562D01*
X118869583Y-114949532D01*
X118888621Y-114945590D01*
X118910064Y-114942882D01*
X118955834Y-114924760D01*
X118961348Y-114922873D01*
X118987875Y-114915165D01*
X119008600Y-114909145D01*
X119027196Y-114898146D01*
X119044664Y-114889589D01*
X119064756Y-114881635D01*
X119104582Y-114852698D01*
X119109441Y-114849506D01*
X119151807Y-114824453D01*
X119167090Y-114809168D01*
X119181873Y-114796542D01*
X119199357Y-114783841D01*
X119230731Y-114745914D01*
X119234645Y-114741613D01*
X119394262Y-114581996D01*
X119455583Y-114548513D01*
X119525275Y-114553497D01*
X119581208Y-114595369D01*
X119605391Y-114658008D01*
X119610225Y-114709142D01*
X119610500Y-114714980D01*
X119610500Y-125452473D01*
X119597933Y-125506866D01*
X119510119Y-125686768D01*
X119463023Y-125738379D01*
X119395499Y-125756334D01*
X119328988Y-125734933D01*
X119284605Y-125680971D01*
X119276442Y-125611580D01*
X119278112Y-125603428D01*
X119338957Y-125349988D01*
X119359024Y-125095000D01*
X119338957Y-124840010D01*
X119279247Y-124591297D01*
X119181365Y-124354987D01*
X119181363Y-124354984D01*
X119047719Y-124136898D01*
X119047712Y-124136888D01*
X119044465Y-124133087D01*
X119044464Y-124133087D01*
X118480232Y-124697319D01*
X118436684Y-124615178D01*
X118316991Y-124474265D01*
X118169805Y-124362377D01*
X118127596Y-124342849D01*
X118690911Y-123779535D01*
X118690911Y-123779533D01*
X118687110Y-123776286D01*
X118687095Y-123776275D01*
X118469015Y-123642636D01*
X118469012Y-123642634D01*
X118232702Y-123544752D01*
X117983988Y-123485042D01*
X117983989Y-123485042D01*
X117729000Y-123464975D01*
X117474010Y-123485042D01*
X117225297Y-123544752D01*
X116988987Y-123642634D01*
X116988984Y-123642636D01*
X116770897Y-123776280D01*
X116767087Y-123779534D01*
X117330391Y-124342837D01*
X117211569Y-124414331D01*
X117077342Y-124541477D01*
X116974138Y-124693691D01*
X116413534Y-124133087D01*
X116410280Y-124136897D01*
X116276636Y-124354984D01*
X116276634Y-124354987D01*
X116178752Y-124591297D01*
X116119042Y-124840010D01*
X116098975Y-125095000D01*
X116119042Y-125349989D01*
X116178752Y-125598702D01*
X116276634Y-125835012D01*
X116276636Y-125835015D01*
X116410275Y-126053095D01*
X116410286Y-126053110D01*
X116413533Y-126056911D01*
X116413535Y-126056911D01*
X116977766Y-125492679D01*
X117021316Y-125574822D01*
X117141009Y-125715735D01*
X117288195Y-125827623D01*
X117330402Y-125847150D01*
X116767087Y-126410464D01*
X116767087Y-126410465D01*
X116770888Y-126413712D01*
X116770898Y-126413719D01*
X116988984Y-126547363D01*
X116988987Y-126547365D01*
X117225297Y-126645247D01*
X117474011Y-126704957D01*
X117474010Y-126704957D01*
X117729000Y-126725024D01*
X117983989Y-126704957D01*
X118232702Y-126645247D01*
X118469012Y-126547365D01*
X118469015Y-126547363D01*
X118687103Y-126413719D01*
X118690912Y-126410464D01*
X118127609Y-125847161D01*
X118246431Y-125775669D01*
X118380658Y-125648523D01*
X118483860Y-125496309D01*
X119044464Y-126056912D01*
X119047719Y-126053102D01*
X119047720Y-126053101D01*
X119088262Y-125986942D01*
X119140073Y-125940065D01*
X119209003Y-125928642D01*
X119273166Y-125956298D01*
X119312191Y-126014253D01*
X119313688Y-126084107D01*
X119305423Y-126106123D01*
X118907636Y-126921061D01*
X118904785Y-126926258D01*
X118898418Y-126936650D01*
X118898415Y-126936655D01*
X118890117Y-126956685D01*
X118888556Y-126960149D01*
X118864318Y-127009807D01*
X118860999Y-127016876D01*
X118859121Y-127021036D01*
X118859117Y-127021046D01*
X118859116Y-127021049D01*
X118834614Y-127087114D01*
X118834613Y-127087116D01*
X118834612Y-127087121D01*
X118834446Y-127087773D01*
X118828849Y-127104601D01*
X118806044Y-127159660D01*
X118749695Y-127394369D01*
X118730758Y-127635000D01*
X118749695Y-127875631D01*
X118806044Y-128110343D01*
X118898415Y-128333347D01*
X119024532Y-128539150D01*
X119024533Y-128539152D01*
X119024534Y-128539154D01*
X119024536Y-128539156D01*
X119181299Y-128722701D01*
X119364844Y-128879464D01*
X119364846Y-128879465D01*
X119364847Y-128879466D01*
X119364849Y-128879467D01*
X119570652Y-129005584D01*
X119793656Y-129097955D01*
X119852334Y-129112042D01*
X120028366Y-129154304D01*
X120269000Y-129173242D01*
X120509634Y-129154304D01*
X120744343Y-129097955D01*
X120967347Y-129005584D01*
X121173156Y-128879464D01*
X121356701Y-128722701D01*
X121513464Y-128539156D01*
X121639584Y-128333347D01*
X121731955Y-128110343D01*
X121788304Y-127875634D01*
X121807242Y-127635000D01*
X121788304Y-127394366D01*
X121731955Y-127159657D01*
X121685264Y-127046935D01*
X121683527Y-127042208D01*
X121671984Y-127006331D01*
X121649451Y-126960169D01*
X121647886Y-126956696D01*
X121644071Y-126947486D01*
X121639584Y-126936653D01*
X121633211Y-126926253D01*
X121630362Y-126921061D01*
X121611296Y-126882000D01*
X121232574Y-126106121D01*
X121220857Y-126037243D01*
X121248239Y-125972962D01*
X121306027Y-125933690D01*
X121375874Y-125931894D01*
X121435603Y-125968146D01*
X121449735Y-125986940D01*
X121490275Y-126053095D01*
X121490286Y-126053110D01*
X121493533Y-126056911D01*
X121493535Y-126056911D01*
X122057766Y-125492679D01*
X122101316Y-125574822D01*
X122221009Y-125715735D01*
X122368195Y-125827623D01*
X122410402Y-125847150D01*
X121847087Y-126410464D01*
X121847087Y-126410465D01*
X121850888Y-126413712D01*
X121850898Y-126413719D01*
X122068984Y-126547363D01*
X122068987Y-126547365D01*
X122305297Y-126645247D01*
X122554011Y-126704957D01*
X122554010Y-126704957D01*
X122809000Y-126725024D01*
X123063989Y-126704957D01*
X123312702Y-126645247D01*
X123549012Y-126547365D01*
X123549015Y-126547363D01*
X123767103Y-126413719D01*
X123770912Y-126410464D01*
X123207609Y-125847161D01*
X123326431Y-125775669D01*
X123460658Y-125648523D01*
X123563861Y-125496309D01*
X124124464Y-126056912D01*
X124127719Y-126053103D01*
X124261363Y-125835015D01*
X124261365Y-125835012D01*
X124359247Y-125598702D01*
X124418957Y-125349989D01*
X124439024Y-125094999D01*
X124418957Y-124840010D01*
X124359247Y-124591297D01*
X124261365Y-124354987D01*
X124261363Y-124354984D01*
X124127719Y-124136898D01*
X124127712Y-124136888D01*
X124124465Y-124133087D01*
X124124464Y-124133087D01*
X123560232Y-124697319D01*
X123516684Y-124615178D01*
X123396991Y-124474265D01*
X123249805Y-124362377D01*
X123207596Y-124342849D01*
X123770911Y-123779535D01*
X123770911Y-123779533D01*
X123767110Y-123776286D01*
X123767095Y-123776275D01*
X123549015Y-123642636D01*
X123549012Y-123642634D01*
X123312702Y-123544752D01*
X123063988Y-123485042D01*
X123063989Y-123485042D01*
X122809000Y-123464975D01*
X122554010Y-123485042D01*
X122305297Y-123544752D01*
X122068987Y-123642634D01*
X122068984Y-123642636D01*
X121850897Y-123776280D01*
X121847087Y-123779534D01*
X122410391Y-124342837D01*
X122291569Y-124414331D01*
X122157342Y-124541477D01*
X122054138Y-124693691D01*
X121493534Y-124133087D01*
X121490280Y-124136897D01*
X121356636Y-124354984D01*
X121356634Y-124354987D01*
X121258752Y-124591297D01*
X121199042Y-124840010D01*
X121178975Y-125095000D01*
X121199042Y-125349989D01*
X121259887Y-125603428D01*
X121256396Y-125673211D01*
X121215732Y-125730028D01*
X121150806Y-125755841D01*
X121082230Y-125742455D01*
X121031778Y-125694119D01*
X121027894Y-125686797D01*
X120940065Y-125506863D01*
X120927500Y-125452473D01*
X120927500Y-121091602D01*
X120927500Y-115005117D01*
X120947184Y-114938082D01*
X120963809Y-114917450D01*
X125504432Y-110376827D01*
X125565751Y-110343345D01*
X125635443Y-110348329D01*
X125691376Y-110390201D01*
X125699249Y-110403777D01*
X125699747Y-110403483D01*
X125787314Y-110551552D01*
X125787321Y-110551561D01*
X125903438Y-110667678D01*
X125903447Y-110667685D01*
X126044803Y-110751282D01*
X126044806Y-110751283D01*
X126202504Y-110797099D01*
X126202510Y-110797100D01*
X126239350Y-110799999D01*
X126239366Y-110800000D01*
X126880000Y-110800000D01*
X126880000Y-110250000D01*
X127380000Y-110250000D01*
X127380000Y-110800000D01*
X128020634Y-110800000D01*
X128020649Y-110799999D01*
X128057489Y-110797100D01*
X128057495Y-110797099D01*
X128215193Y-110751283D01*
X128215196Y-110751282D01*
X128356552Y-110667685D01*
X128356561Y-110667678D01*
X128472678Y-110551561D01*
X128472685Y-110551552D01*
X128556281Y-110410198D01*
X128602100Y-110252486D01*
X128602295Y-110250001D01*
X128602295Y-110250000D01*
X127380000Y-110250000D01*
X126880000Y-110250000D01*
X126880000Y-109874000D01*
X126899685Y-109806961D01*
X126952489Y-109761206D01*
X127004000Y-109750000D01*
X128602295Y-109750000D01*
X128602295Y-109749998D01*
X128602100Y-109747513D01*
X128556281Y-109589801D01*
X128472683Y-109448443D01*
X128472031Y-109447603D01*
X128471725Y-109446824D01*
X128468712Y-109441729D01*
X128469534Y-109441242D01*
X128446499Y-109382565D01*
X128460182Y-109314048D01*
X128475318Y-109293468D01*
X128474673Y-109292968D01*
X128479445Y-109286814D01*
X128479453Y-109286807D01*
X128564145Y-109143601D01*
X128610562Y-108983831D01*
X128613500Y-108946502D01*
X128613500Y-108513498D01*
X128610562Y-108476169D01*
X128564145Y-108316399D01*
X128512048Y-108228308D01*
X128479456Y-108173197D01*
X128477755Y-108171005D01*
X128476956Y-108168970D01*
X128475482Y-108166478D01*
X128475883Y-108166240D01*
X128452217Y-108105970D01*
X128465894Y-108037452D01*
X128477755Y-108018995D01*
X128479449Y-108016810D01*
X128479453Y-108016807D01*
X128564145Y-107873601D01*
X128610562Y-107713831D01*
X128613500Y-107676502D01*
X128613500Y-107243498D01*
X128610562Y-107206169D01*
X128564145Y-107046399D01*
X128511100Y-106956705D01*
X128479456Y-106903197D01*
X128477755Y-106901005D01*
X128476956Y-106898970D01*
X128475482Y-106896478D01*
X128475883Y-106896240D01*
X128452217Y-106835970D01*
X128465894Y-106767452D01*
X128477755Y-106748995D01*
X128479449Y-106746810D01*
X128479453Y-106746807D01*
X128564145Y-106603601D01*
X128600685Y-106477829D01*
X128610561Y-106443835D01*
X128610562Y-106443829D01*
X128612496Y-106419255D01*
X128613500Y-106406502D01*
X128613500Y-105973498D01*
X128610562Y-105936169D01*
X128609158Y-105931338D01*
X128564146Y-105776403D01*
X128564145Y-105776399D01*
X128495014Y-105659505D01*
X128479456Y-105633197D01*
X128477755Y-105631005D01*
X128476956Y-105628970D01*
X128475482Y-105626478D01*
X128475883Y-105626240D01*
X128452217Y-105565970D01*
X128465894Y-105497452D01*
X128477755Y-105478995D01*
X128479449Y-105476810D01*
X128479453Y-105476807D01*
X128564145Y-105333601D01*
X128610562Y-105173831D01*
X128613500Y-105136502D01*
X128613500Y-104703498D01*
X128610562Y-104666169D01*
X128564145Y-104506399D01*
X128512923Y-104419788D01*
X128479456Y-104363197D01*
X128477755Y-104361005D01*
X128476956Y-104358970D01*
X128475482Y-104356478D01*
X128475883Y-104356240D01*
X128452217Y-104295970D01*
X128465894Y-104227452D01*
X128477755Y-104208995D01*
X128479449Y-104206810D01*
X128479453Y-104206807D01*
X128564145Y-104063601D01*
X128610562Y-103903831D01*
X128613500Y-103866502D01*
X128613500Y-103433498D01*
X128610562Y-103396169D01*
X128564145Y-103236399D01*
X128524527Y-103169408D01*
X128479456Y-103093197D01*
X128477755Y-103091005D01*
X128476956Y-103088970D01*
X128475482Y-103086478D01*
X128475883Y-103086240D01*
X128452217Y-103025970D01*
X128465894Y-102957452D01*
X128477755Y-102938995D01*
X128479449Y-102936810D01*
X128479453Y-102936807D01*
X128564145Y-102793601D01*
X128610562Y-102633831D01*
X128613500Y-102596502D01*
X128613500Y-102163498D01*
X128610562Y-102126169D01*
X128564145Y-101966399D01*
X128482061Y-101827603D01*
X128479455Y-101823196D01*
X128474670Y-101817027D01*
X128476583Y-101815542D01*
X128448848Y-101764749D01*
X128453832Y-101695057D01*
X128468748Y-101668292D01*
X128468712Y-101668271D01*
X128469545Y-101666862D01*
X128472042Y-101662382D01*
X128472684Y-101661553D01*
X128556281Y-101520198D01*
X128602100Y-101362486D01*
X128602295Y-101360001D01*
X128602295Y-101360000D01*
X127004000Y-101360000D01*
X126936961Y-101340315D01*
X126891206Y-101287511D01*
X126880000Y-101236000D01*
X126880000Y-100310000D01*
X127380000Y-100310000D01*
X127380000Y-100860000D01*
X128602295Y-100860000D01*
X128602295Y-100859998D01*
X128602100Y-100857513D01*
X128556281Y-100699801D01*
X128472685Y-100558447D01*
X128472678Y-100558438D01*
X128356561Y-100442321D01*
X128356552Y-100442314D01*
X128215196Y-100358717D01*
X128215193Y-100358716D01*
X128057495Y-100312900D01*
X128057489Y-100312899D01*
X128020649Y-100310000D01*
X127380000Y-100310000D01*
X126880000Y-100310000D01*
X126600500Y-100310000D01*
X126533461Y-100290315D01*
X126487706Y-100237511D01*
X126476500Y-100186000D01*
X126476500Y-93098852D01*
X126496185Y-93031813D01*
X126512819Y-93011171D01*
X126883989Y-92640001D01*
X129242704Y-92640001D01*
X129242899Y-92642486D01*
X129288718Y-92800198D01*
X129372314Y-92941552D01*
X129372321Y-92941561D01*
X129488438Y-93057678D01*
X129488447Y-93057685D01*
X129629803Y-93141282D01*
X129629806Y-93141283D01*
X129787504Y-93187099D01*
X129787510Y-93187100D01*
X129824350Y-93189999D01*
X129824366Y-93190000D01*
X130227500Y-93190000D01*
X130227500Y-92640000D01*
X129242705Y-92640000D01*
X129242704Y-92640001D01*
X126883989Y-92640001D01*
X126958454Y-92565536D01*
X127421185Y-92102804D01*
X127482506Y-92069321D01*
X127552197Y-92074305D01*
X127596545Y-92102806D01*
X127608187Y-92114448D01*
X127608196Y-92114455D01*
X127659165Y-92144598D01*
X127751399Y-92199145D01*
X127770138Y-92204589D01*
X127911164Y-92245561D01*
X127911167Y-92245561D01*
X127911169Y-92245562D01*
X127948498Y-92248500D01*
X127948504Y-92248500D01*
X129256496Y-92248500D01*
X129256502Y-92248500D01*
X129293831Y-92245562D01*
X129343908Y-92231012D01*
X129351537Y-92229309D01*
X129359660Y-92228026D01*
X129377985Y-92221271D01*
X129382106Y-92219914D01*
X129453601Y-92199145D01*
X129469673Y-92189639D01*
X129489905Y-92180027D01*
X129496802Y-92177486D01*
X129538486Y-92154936D01*
X129597487Y-92140000D01*
X130603500Y-92140000D01*
X130670539Y-92159685D01*
X130716294Y-92212489D01*
X130727500Y-92264000D01*
X130727500Y-93199583D01*
X130749458Y-93239796D01*
X130744474Y-93309488D01*
X130715973Y-93353835D01*
X130492135Y-93577674D01*
X130486033Y-93583025D01*
X130458585Y-93604087D01*
X130401433Y-93678572D01*
X130364725Y-93726409D01*
X130364085Y-93728110D01*
X130305951Y-93868459D01*
X130305949Y-93868464D01*
X130292129Y-93973444D01*
X130285855Y-94021099D01*
X130290369Y-94055385D01*
X130290900Y-94063486D01*
X130290900Y-102659213D01*
X130290369Y-102667314D01*
X130285855Y-102701599D01*
X130285855Y-102701602D01*
X130290280Y-102735213D01*
X130290281Y-102735221D01*
X130305950Y-102854236D01*
X130305950Y-102854237D01*
X130334860Y-102924031D01*
X130364864Y-102996470D01*
X130364865Y-102996472D01*
X130364866Y-102996473D01*
X130392799Y-103032876D01*
X130416820Y-103064181D01*
X130456672Y-103116118D01*
X130458587Y-103118613D01*
X130486035Y-103139674D01*
X130492125Y-103145015D01*
X130551910Y-103204800D01*
X130579964Y-103232854D01*
X130613449Y-103294177D01*
X130611361Y-103355126D01*
X130599438Y-103396168D01*
X130599437Y-103396174D01*
X130596500Y-103433492D01*
X130596500Y-103866507D01*
X130599437Y-103903829D01*
X130599438Y-103903835D01*
X130645853Y-104063596D01*
X130645855Y-104063601D01*
X130730547Y-104206808D01*
X130732249Y-104209002D01*
X130733047Y-104211034D01*
X130734518Y-104213522D01*
X130734116Y-104213759D01*
X130757783Y-104274039D01*
X130744101Y-104342556D01*
X130732249Y-104360998D01*
X130730547Y-104363191D01*
X130645855Y-104506398D01*
X130645853Y-104506403D01*
X130599438Y-104666164D01*
X130599437Y-104666170D01*
X130596500Y-104703492D01*
X130596500Y-105136507D01*
X130599437Y-105173829D01*
X130599438Y-105173835D01*
X130645853Y-105333596D01*
X130645855Y-105333601D01*
X130730547Y-105476808D01*
X130732249Y-105479002D01*
X130733047Y-105481034D01*
X130734518Y-105483522D01*
X130734116Y-105483759D01*
X130757783Y-105544039D01*
X130744101Y-105612556D01*
X130732249Y-105630998D01*
X130730547Y-105633191D01*
X130645855Y-105776398D01*
X130645853Y-105776403D01*
X130599438Y-105936164D01*
X130599437Y-105936170D01*
X130596500Y-105973492D01*
X130596500Y-106406507D01*
X130599437Y-106443829D01*
X130599438Y-106443835D01*
X130645853Y-106603596D01*
X130645855Y-106603601D01*
X130718816Y-106726972D01*
X130730547Y-106746807D01*
X130730549Y-106746809D01*
X130732245Y-106748995D01*
X130733043Y-106751029D01*
X130734518Y-106753522D01*
X130734115Y-106753759D01*
X130757782Y-106814031D01*
X130744104Y-106882549D01*
X130732254Y-106900991D01*
X130730548Y-106903190D01*
X130645855Y-107046398D01*
X130645853Y-107046403D01*
X130599438Y-107206164D01*
X130599437Y-107206170D01*
X130596500Y-107243492D01*
X130596500Y-107676507D01*
X130599437Y-107713829D01*
X130599438Y-107713835D01*
X130645853Y-107873596D01*
X130645855Y-107873601D01*
X130730547Y-108016808D01*
X130732249Y-108019002D01*
X130733047Y-108021034D01*
X130734518Y-108023522D01*
X130734116Y-108023759D01*
X130757783Y-108084039D01*
X130744101Y-108152556D01*
X130732249Y-108170998D01*
X130730547Y-108173191D01*
X130645855Y-108316398D01*
X130645853Y-108316403D01*
X130599438Y-108476164D01*
X130599437Y-108476170D01*
X130596500Y-108513492D01*
X130596500Y-108946507D01*
X130599437Y-108983829D01*
X130599438Y-108983835D01*
X130645853Y-109143596D01*
X130645855Y-109143601D01*
X130730547Y-109286808D01*
X130732249Y-109289002D01*
X130733047Y-109291034D01*
X130734518Y-109293522D01*
X130734116Y-109293759D01*
X130757783Y-109354039D01*
X130744101Y-109422556D01*
X130732249Y-109440998D01*
X130730547Y-109443191D01*
X130645855Y-109586398D01*
X130645853Y-109586403D01*
X130599438Y-109746164D01*
X130599437Y-109746170D01*
X130596500Y-109783492D01*
X130596500Y-110216507D01*
X130599437Y-110253829D01*
X130599438Y-110253835D01*
X130645853Y-110413596D01*
X130645855Y-110413601D01*
X130730544Y-110556803D01*
X130730551Y-110556812D01*
X130848187Y-110674448D01*
X130848191Y-110674451D01*
X130848193Y-110674453D01*
X130991399Y-110759145D01*
X131033530Y-110771385D01*
X131151164Y-110805561D01*
X131151167Y-110805561D01*
X131151169Y-110805562D01*
X131188498Y-110808500D01*
X131770826Y-110808500D01*
X131834623Y-110826171D01*
X132172252Y-111028748D01*
X132196136Y-111047396D01*
X144212181Y-123063440D01*
X144245666Y-123124763D01*
X144248500Y-123151121D01*
X144248500Y-126087473D01*
X144235933Y-126141866D01*
X144148119Y-126321768D01*
X144101023Y-126373379D01*
X144033499Y-126391334D01*
X143966988Y-126369933D01*
X143922605Y-126315971D01*
X143914442Y-126246580D01*
X143916112Y-126238428D01*
X143976957Y-125984988D01*
X143997024Y-125730000D01*
X143976957Y-125475010D01*
X143917247Y-125226297D01*
X143819365Y-124989987D01*
X143819363Y-124989984D01*
X143685719Y-124771898D01*
X143685712Y-124771888D01*
X143682465Y-124768087D01*
X143682464Y-124768087D01*
X143118232Y-125332319D01*
X143074684Y-125250178D01*
X142954991Y-125109265D01*
X142807805Y-124997377D01*
X142765597Y-124977849D01*
X143328911Y-124414535D01*
X143328911Y-124414533D01*
X143325110Y-124411286D01*
X143325095Y-124411275D01*
X143107015Y-124277636D01*
X143107012Y-124277634D01*
X142870702Y-124179752D01*
X142621988Y-124120042D01*
X142621989Y-124120042D01*
X142367000Y-124099975D01*
X142112010Y-124120042D01*
X141863297Y-124179752D01*
X141626987Y-124277634D01*
X141626984Y-124277636D01*
X141408897Y-124411280D01*
X141405087Y-124414534D01*
X141968390Y-124977837D01*
X141849569Y-125049331D01*
X141715342Y-125176477D01*
X141612138Y-125328691D01*
X141051534Y-124768087D01*
X141048280Y-124771897D01*
X140914636Y-124989984D01*
X140914634Y-124989987D01*
X140816752Y-125226297D01*
X140757042Y-125475010D01*
X140736975Y-125729999D01*
X140757042Y-125984989D01*
X140816752Y-126233702D01*
X140914634Y-126470012D01*
X140914636Y-126470015D01*
X141048275Y-126688095D01*
X141048286Y-126688110D01*
X141051533Y-126691911D01*
X141051535Y-126691911D01*
X141615766Y-126127679D01*
X141659316Y-126209822D01*
X141779009Y-126350735D01*
X141926195Y-126462623D01*
X141968402Y-126482150D01*
X141405087Y-127045464D01*
X141405087Y-127045465D01*
X141408888Y-127048712D01*
X141408898Y-127048719D01*
X141626984Y-127182363D01*
X141626987Y-127182365D01*
X141863297Y-127280247D01*
X142112011Y-127339957D01*
X142112010Y-127339957D01*
X142366999Y-127360024D01*
X142621989Y-127339957D01*
X142870702Y-127280247D01*
X143107012Y-127182365D01*
X143107015Y-127182363D01*
X143325103Y-127048719D01*
X143328912Y-127045464D01*
X142765609Y-126482161D01*
X142884431Y-126410669D01*
X143018658Y-126283523D01*
X143121861Y-126131308D01*
X143682464Y-126691912D01*
X143685719Y-126688102D01*
X143685720Y-126688101D01*
X143726262Y-126621942D01*
X143778073Y-126575065D01*
X143847003Y-126563642D01*
X143911166Y-126591298D01*
X143950191Y-126649253D01*
X143951688Y-126719107D01*
X143943423Y-126741123D01*
X143545636Y-127556061D01*
X143542785Y-127561258D01*
X143536418Y-127571650D01*
X143536415Y-127571655D01*
X143528117Y-127591685D01*
X143526556Y-127595149D01*
X143502318Y-127644807D01*
X143498999Y-127651876D01*
X143497121Y-127656036D01*
X143497117Y-127656046D01*
X143497116Y-127656049D01*
X143472614Y-127722114D01*
X143472613Y-127722116D01*
X143472612Y-127722121D01*
X143472446Y-127722773D01*
X143466849Y-127739601D01*
X143444044Y-127794660D01*
X143387695Y-128029369D01*
X143368758Y-128269999D01*
X143387695Y-128510631D01*
X143444044Y-128745343D01*
X143536415Y-128968347D01*
X143662532Y-129174150D01*
X143662533Y-129174152D01*
X143662534Y-129174154D01*
X143662536Y-129174156D01*
X143819299Y-129357701D01*
X144002844Y-129514464D01*
X144002846Y-129514465D01*
X144002847Y-129514466D01*
X144002849Y-129514467D01*
X144208652Y-129640584D01*
X144431656Y-129732955D01*
X144490334Y-129747042D01*
X144666366Y-129789304D01*
X144907000Y-129808242D01*
X145147634Y-129789304D01*
X145382343Y-129732955D01*
X145605347Y-129640584D01*
X145811156Y-129514464D01*
X145994701Y-129357701D01*
X146151464Y-129174156D01*
X146277584Y-128968347D01*
X146303823Y-128905000D01*
X162042922Y-128905000D01*
X162063219Y-129292287D01*
X162123886Y-129675323D01*
X162123887Y-129675330D01*
X162224262Y-130049936D01*
X162363244Y-130411994D01*
X162539310Y-130757543D01*
X162750531Y-131082793D01*
X162959095Y-131340350D01*
X162959096Y-131340350D01*
X163856757Y-130442688D01*
X163815449Y-130504511D01*
X163796046Y-130602056D01*
X163815449Y-130699601D01*
X163870704Y-130782296D01*
X163953399Y-130837551D01*
X164026320Y-130852056D01*
X164075568Y-130852056D01*
X164148489Y-130837551D01*
X164210304Y-130796247D01*
X163312648Y-131693903D01*
X163312649Y-131693904D01*
X163570206Y-131902468D01*
X163895456Y-132113689D01*
X164241005Y-132289755D01*
X164603063Y-132428737D01*
X164977669Y-132529112D01*
X164977676Y-132529113D01*
X165360712Y-132589780D01*
X165747999Y-132610078D01*
X165748001Y-132610078D01*
X166135287Y-132589780D01*
X166518323Y-132529113D01*
X166518330Y-132529112D01*
X166892936Y-132428737D01*
X167254994Y-132289755D01*
X167600543Y-132113689D01*
X167925783Y-131902476D01*
X167925785Y-131902475D01*
X168183349Y-131693902D01*
X167285691Y-130796244D01*
X167347511Y-130837551D01*
X167420432Y-130852056D01*
X167469680Y-130852056D01*
X167542601Y-130837551D01*
X167625296Y-130782296D01*
X167680551Y-130699601D01*
X167699954Y-130602056D01*
X167680551Y-130504511D01*
X167639244Y-130442691D01*
X168536902Y-131340349D01*
X168745475Y-131082785D01*
X168745476Y-131082783D01*
X168956689Y-130757543D01*
X169132755Y-130411994D01*
X169271737Y-130049936D01*
X169372112Y-129675330D01*
X169372113Y-129675323D01*
X169432780Y-129292287D01*
X169453078Y-128905000D01*
X169453078Y-128904999D01*
X169432780Y-128517712D01*
X169372113Y-128134676D01*
X169372112Y-128134669D01*
X169271737Y-127760063D01*
X169132755Y-127398005D01*
X168956689Y-127052456D01*
X168745468Y-126727206D01*
X168536904Y-126469649D01*
X168536903Y-126469648D01*
X167639247Y-127367303D01*
X167680551Y-127305489D01*
X167699954Y-127207944D01*
X167680551Y-127110399D01*
X167625296Y-127027704D01*
X167542601Y-126972449D01*
X167469680Y-126957944D01*
X167420432Y-126957944D01*
X167347511Y-126972449D01*
X167285690Y-127013755D01*
X168183350Y-126116096D01*
X168183350Y-126116095D01*
X167925793Y-125907531D01*
X167600543Y-125696310D01*
X167254994Y-125520244D01*
X166892936Y-125381262D01*
X166518330Y-125280887D01*
X166518323Y-125280886D01*
X166135287Y-125220219D01*
X165748001Y-125199922D01*
X165747999Y-125199922D01*
X165360712Y-125220219D01*
X164977676Y-125280886D01*
X164977669Y-125280887D01*
X164603063Y-125381262D01*
X164241005Y-125520244D01*
X163895456Y-125696310D01*
X163570206Y-125907531D01*
X163312648Y-126116095D01*
X163312648Y-126116096D01*
X164210306Y-127013754D01*
X164148489Y-126972449D01*
X164075568Y-126957944D01*
X164026320Y-126957944D01*
X163953399Y-126972449D01*
X163870704Y-127027704D01*
X163815449Y-127110399D01*
X163796046Y-127207944D01*
X163815449Y-127305489D01*
X163856753Y-127367305D01*
X162959096Y-126469648D01*
X162959095Y-126469648D01*
X162750531Y-126727206D01*
X162539310Y-127052456D01*
X162363244Y-127398005D01*
X162224262Y-127760063D01*
X162123887Y-128134669D01*
X162123886Y-128134676D01*
X162063219Y-128517712D01*
X162042922Y-128904999D01*
X162042922Y-128905000D01*
X146303823Y-128905000D01*
X146369955Y-128745343D01*
X146426304Y-128510634D01*
X146445242Y-128270000D01*
X146426304Y-128029366D01*
X146369955Y-127794657D01*
X146323264Y-127681935D01*
X146321527Y-127677208D01*
X146309984Y-127641331D01*
X146287451Y-127595169D01*
X146285886Y-127591696D01*
X146282071Y-127582486D01*
X146277584Y-127571653D01*
X146271211Y-127561253D01*
X146268362Y-127556061D01*
X146243733Y-127505604D01*
X145870574Y-126741121D01*
X145858857Y-126672243D01*
X145886239Y-126607962D01*
X145944027Y-126568690D01*
X146013874Y-126566894D01*
X146073603Y-126603146D01*
X146087735Y-126621940D01*
X146128275Y-126688095D01*
X146128286Y-126688110D01*
X146131533Y-126691911D01*
X146131535Y-126691911D01*
X146695766Y-126127679D01*
X146739316Y-126209822D01*
X146859009Y-126350735D01*
X147006195Y-126462623D01*
X147048402Y-126482150D01*
X146485087Y-127045464D01*
X146485087Y-127045465D01*
X146488888Y-127048712D01*
X146488898Y-127048719D01*
X146706984Y-127182363D01*
X146706987Y-127182365D01*
X146943297Y-127280247D01*
X147192011Y-127339957D01*
X147192010Y-127339957D01*
X147446999Y-127360024D01*
X147701989Y-127339957D01*
X147950702Y-127280247D01*
X148187012Y-127182365D01*
X148187015Y-127182363D01*
X148405103Y-127048719D01*
X148408912Y-127045464D01*
X147845609Y-126482161D01*
X147964431Y-126410669D01*
X148098658Y-126283523D01*
X148201861Y-126131308D01*
X148762464Y-126691912D01*
X148765719Y-126688103D01*
X148899363Y-126470015D01*
X148899365Y-126470012D01*
X148997247Y-126233702D01*
X149056957Y-125984989D01*
X149077024Y-125730000D01*
X149056957Y-125475010D01*
X148997247Y-125226297D01*
X148899365Y-124989987D01*
X148899363Y-124989984D01*
X148765719Y-124771898D01*
X148765712Y-124771888D01*
X148762465Y-124768087D01*
X148762464Y-124768087D01*
X148198232Y-125332319D01*
X148154684Y-125250178D01*
X148034991Y-125109265D01*
X147887805Y-124997377D01*
X147845596Y-124977849D01*
X148408911Y-124414535D01*
X148408911Y-124414533D01*
X148405110Y-124411286D01*
X148405095Y-124411275D01*
X148187015Y-124277636D01*
X148187012Y-124277634D01*
X147950702Y-124179752D01*
X147701988Y-124120042D01*
X147701989Y-124120042D01*
X147447000Y-124099975D01*
X147192010Y-124120042D01*
X146943297Y-124179752D01*
X146706987Y-124277634D01*
X146706984Y-124277636D01*
X146488897Y-124411280D01*
X146485087Y-124414534D01*
X147048391Y-124977837D01*
X146929569Y-125049331D01*
X146795342Y-125176477D01*
X146692138Y-125328691D01*
X146131534Y-124768087D01*
X146128280Y-124771897D01*
X145994636Y-124989984D01*
X145994634Y-124989987D01*
X145896752Y-125226297D01*
X145837042Y-125475010D01*
X145816975Y-125730000D01*
X145837042Y-125984989D01*
X145897887Y-126238428D01*
X145894396Y-126308211D01*
X145853732Y-126365028D01*
X145788806Y-126390841D01*
X145720230Y-126377455D01*
X145669778Y-126329119D01*
X145665894Y-126321797D01*
X145578065Y-126141863D01*
X145565500Y-126087473D01*
X145565500Y-122913387D01*
X145567282Y-122897249D01*
X145567054Y-122897228D01*
X145567788Y-122889465D01*
X145565531Y-122817624D01*
X145565500Y-122815677D01*
X145565500Y-122785573D01*
X145565500Y-122785568D01*
X145564566Y-122778175D01*
X145564107Y-122772347D01*
X145562562Y-122723169D01*
X145556536Y-122702428D01*
X145552590Y-122683377D01*
X145549882Y-122661936D01*
X145531763Y-122616172D01*
X145529876Y-122610665D01*
X145516145Y-122563400D01*
X145505148Y-122544807D01*
X145496591Y-122527340D01*
X145488635Y-122507244D01*
X145459705Y-122467425D01*
X145456495Y-122462539D01*
X145431453Y-122420195D01*
X145431452Y-122420193D01*
X145431450Y-122420191D01*
X145431447Y-122420187D01*
X145416178Y-122404918D01*
X145403541Y-122390122D01*
X145390843Y-122372644D01*
X145390840Y-122372641D01*
X145352914Y-122341267D01*
X145348592Y-122337333D01*
X133545899Y-110534639D01*
X133512414Y-110473316D01*
X133514503Y-110412365D01*
X133560562Y-110253831D01*
X133563500Y-110216502D01*
X133563499Y-109889540D01*
X133583183Y-109822505D01*
X133635987Y-109776750D01*
X133705146Y-109766806D01*
X133768701Y-109795831D01*
X133775180Y-109801863D01*
X143757858Y-119784540D01*
X143768012Y-119797213D01*
X143768188Y-119797069D01*
X143773158Y-119803077D01*
X143825575Y-119852300D01*
X143826975Y-119853657D01*
X143848244Y-119874926D01*
X143853499Y-119879002D01*
X143854124Y-119879487D01*
X143858567Y-119883282D01*
X143894442Y-119916971D01*
X143894444Y-119916972D01*
X143913371Y-119927377D01*
X143929631Y-119938057D01*
X143946708Y-119951304D01*
X143991878Y-119970851D01*
X143997114Y-119973415D01*
X144040240Y-119997124D01*
X144060244Y-120002260D01*
X144061163Y-120002496D01*
X144079568Y-120008797D01*
X144099400Y-120017379D01*
X144148030Y-120025081D01*
X144153699Y-120026255D01*
X144201389Y-120038500D01*
X144222995Y-120038500D01*
X144242393Y-120040026D01*
X144263728Y-120043406D01*
X144308841Y-120039141D01*
X144312718Y-120038775D01*
X144318556Y-120038500D01*
X164427812Y-120038500D01*
X164494851Y-120058185D01*
X164540606Y-120110989D01*
X164541084Y-120112048D01*
X165000772Y-121144116D01*
X165011500Y-121194568D01*
X165011500Y-121548654D01*
X165018011Y-121609202D01*
X165018011Y-121609204D01*
X165069110Y-121746203D01*
X165069111Y-121746204D01*
X165156739Y-121863261D01*
X165273796Y-121950889D01*
X165410799Y-122001989D01*
X165438050Y-122004918D01*
X165471345Y-122008499D01*
X165471362Y-122008500D01*
X167268638Y-122008500D01*
X167268654Y-122008499D01*
X167295692Y-122005591D01*
X167329201Y-122001989D01*
X167466204Y-121950889D01*
X167583261Y-121863261D01*
X167670889Y-121746204D01*
X167721989Y-121609201D01*
X167725591Y-121575692D01*
X167728499Y-121548654D01*
X167728500Y-121548637D01*
X167728500Y-119751362D01*
X167728499Y-119751345D01*
X167725157Y-119720270D01*
X167721989Y-119690799D01*
X167670889Y-119553796D01*
X167583261Y-119436739D01*
X167466204Y-119349111D01*
X167466203Y-119349110D01*
X167329203Y-119298011D01*
X167268654Y-119291500D01*
X167268638Y-119291500D01*
X166791133Y-119291500D01*
X166754336Y-119285915D01*
X165597998Y-118926588D01*
X165547114Y-118895854D01*
X165536332Y-118885072D01*
X165530439Y-118880501D01*
X165526002Y-118876711D01*
X165490133Y-118843028D01*
X165490131Y-118843026D01*
X165471200Y-118832619D01*
X165454948Y-118821944D01*
X165437868Y-118808696D01*
X165437864Y-118808694D01*
X165392702Y-118789150D01*
X165387455Y-118786580D01*
X165344337Y-118762875D01*
X165344338Y-118762875D01*
X165323411Y-118757502D01*
X165305006Y-118751201D01*
X165285174Y-118742619D01*
X165236569Y-118734921D01*
X165230847Y-118733736D01*
X165197188Y-118725094D01*
X165183188Y-118721500D01*
X165183187Y-118721500D01*
X165161581Y-118721500D01*
X165142183Y-118719973D01*
X165133603Y-118718614D01*
X165120849Y-118716594D01*
X165120848Y-118716594D01*
X165071855Y-118721225D01*
X165066019Y-118721500D01*
X144608698Y-118721500D01*
X144541659Y-118701815D01*
X144521017Y-118685181D01*
X134166018Y-108330181D01*
X134132533Y-108268858D01*
X134137517Y-108199166D01*
X134179389Y-108143233D01*
X134244853Y-108118816D01*
X134253699Y-108118500D01*
X136599878Y-108118500D01*
X136666917Y-108138185D01*
X136687559Y-108154819D01*
X141078280Y-112545540D01*
X141088430Y-112558208D01*
X141088606Y-112558064D01*
X141093580Y-112564076D01*
X141093583Y-112564079D01*
X141093584Y-112564080D01*
X141117912Y-112586925D01*
X141145982Y-112613285D01*
X141147382Y-112614642D01*
X141168662Y-112635923D01*
X141174551Y-112640491D01*
X141178994Y-112644286D01*
X141214864Y-112677970D01*
X141214866Y-112677971D01*
X141214867Y-112677972D01*
X141233803Y-112688382D01*
X141250049Y-112699053D01*
X141267132Y-112712304D01*
X141267137Y-112712306D01*
X141312296Y-112731848D01*
X141317544Y-112734420D01*
X141346149Y-112750145D01*
X141360663Y-112758124D01*
X141376823Y-112762272D01*
X141381583Y-112763495D01*
X141399986Y-112769795D01*
X141419824Y-112778380D01*
X141454567Y-112783882D01*
X141468431Y-112786078D01*
X141474146Y-112787261D01*
X141521812Y-112799500D01*
X141543419Y-112799500D01*
X141562816Y-112801026D01*
X141584152Y-112804406D01*
X141633144Y-112799774D01*
X141638981Y-112799500D01*
X160568609Y-112799500D01*
X160584746Y-112801281D01*
X160584768Y-112801054D01*
X160592535Y-112801788D01*
X160592536Y-112801787D01*
X160592537Y-112801788D01*
X160599239Y-112801577D01*
X160664375Y-112799531D01*
X160666322Y-112799500D01*
X160696427Y-112799500D01*
X160696432Y-112799500D01*
X160703822Y-112798566D01*
X160709651Y-112798107D01*
X160758831Y-112796562D01*
X160779583Y-112790532D01*
X160798621Y-112786590D01*
X160820064Y-112783882D01*
X160865834Y-112765760D01*
X160871348Y-112763873D01*
X160897875Y-112756165D01*
X160918600Y-112750145D01*
X160937196Y-112739146D01*
X160954664Y-112730589D01*
X160974756Y-112722635D01*
X161014582Y-112693698D01*
X161019441Y-112690506D01*
X161061807Y-112665453D01*
X161077090Y-112650168D01*
X161091873Y-112637542D01*
X161109357Y-112624841D01*
X161140731Y-112586914D01*
X161144645Y-112582613D01*
X166774543Y-106952715D01*
X166787214Y-106942566D01*
X166787068Y-106942389D01*
X166793074Y-106937419D01*
X166793080Y-106937416D01*
X166842339Y-106884959D01*
X166843611Y-106883647D01*
X166864927Y-106862333D01*
X166869495Y-106856442D01*
X166873282Y-106852008D01*
X166906972Y-106816133D01*
X166917380Y-106797200D01*
X166928059Y-106780942D01*
X166941304Y-106763868D01*
X166960852Y-106718691D01*
X166963409Y-106713472D01*
X166987124Y-106670337D01*
X166992495Y-106649413D01*
X166998796Y-106631009D01*
X167007380Y-106611176D01*
X167012677Y-106577731D01*
X167015079Y-106562565D01*
X167016264Y-106556841D01*
X167017777Y-106550950D01*
X167028500Y-106509188D01*
X167028500Y-106498083D01*
X167048185Y-106431044D01*
X167056781Y-106419255D01*
X167235712Y-106201981D01*
X167609637Y-105747929D01*
X167628082Y-105724145D01*
X167637121Y-105707094D01*
X167647407Y-105690870D01*
X167670889Y-105659504D01*
X167689728Y-105608992D01*
X167693036Y-105601630D01*
X167696545Y-105595014D01*
X167699213Y-105587583D01*
X167702276Y-105576151D01*
X167704072Y-105570534D01*
X167721989Y-105522501D01*
X167726447Y-105481034D01*
X167728499Y-105461954D01*
X167728500Y-105461937D01*
X167728500Y-103664662D01*
X167728499Y-103664645D01*
X167724350Y-103626060D01*
X167721989Y-103604099D01*
X167718228Y-103594016D01*
X167680151Y-103491928D01*
X167670889Y-103467096D01*
X167583261Y-103350039D01*
X167466204Y-103262411D01*
X167466203Y-103262410D01*
X167329203Y-103211311D01*
X167268654Y-103204800D01*
X167268638Y-103204800D01*
X165471362Y-103204800D01*
X165471345Y-103204800D01*
X165410797Y-103211311D01*
X165410795Y-103211311D01*
X165273795Y-103262411D01*
X165156739Y-103350039D01*
X165069111Y-103467095D01*
X165018011Y-103604095D01*
X165018011Y-103604097D01*
X165011500Y-103664645D01*
X165011500Y-105407975D01*
X165010959Y-105416150D01*
X165010662Y-105418379D01*
X165010712Y-105423088D01*
X165011500Y-105433325D01*
X165011500Y-105461954D01*
X165018010Y-105522499D01*
X165018011Y-105522501D01*
X165032104Y-105560289D01*
X165033311Y-105563851D01*
X165035610Y-105571381D01*
X165035622Y-105571417D01*
X165054449Y-105623028D01*
X165057948Y-105630312D01*
X165060155Y-105635495D01*
X165069109Y-105659501D01*
X165069111Y-105659504D01*
X165107230Y-105710426D01*
X165110573Y-105715372D01*
X165115910Y-105724152D01*
X165130362Y-105747930D01*
X165226104Y-105864188D01*
X165504286Y-106201981D01*
X165531709Y-106266245D01*
X165520034Y-106335132D01*
X165496248Y-106368490D01*
X160418559Y-111446181D01*
X160357236Y-111479666D01*
X160330878Y-111482500D01*
X141929122Y-111482500D01*
X141862083Y-111462815D01*
X141841441Y-111446181D01*
X137450717Y-107055457D01*
X137440564Y-107042785D01*
X137440388Y-107042931D01*
X137435415Y-107036919D01*
X137383015Y-106987712D01*
X137381647Y-106986387D01*
X137360333Y-106965073D01*
X137354438Y-106960500D01*
X137350002Y-106956711D01*
X137314133Y-106923028D01*
X137314131Y-106923026D01*
X137295200Y-106912619D01*
X137278948Y-106901944D01*
X137261868Y-106888696D01*
X137261864Y-106888694D01*
X137216702Y-106869150D01*
X137211455Y-106866580D01*
X137168337Y-106842875D01*
X137168338Y-106842875D01*
X137147411Y-106837502D01*
X137129006Y-106831201D01*
X137109174Y-106822619D01*
X137060569Y-106814921D01*
X137054847Y-106813736D01*
X137021188Y-106805094D01*
X137007188Y-106801500D01*
X137007187Y-106801500D01*
X136985581Y-106801500D01*
X136966183Y-106799973D01*
X136948706Y-106797205D01*
X136944849Y-106796594D01*
X136944848Y-106796594D01*
X136895855Y-106801225D01*
X136890019Y-106801500D01*
X134840121Y-106801500D01*
X134773082Y-106781815D01*
X134727327Y-106729011D01*
X134717383Y-106659853D01*
X134746408Y-106596297D01*
X134752440Y-106589819D01*
X136888440Y-104453819D01*
X136949763Y-104420334D01*
X136976121Y-104417500D01*
X141645609Y-104417500D01*
X141661746Y-104419281D01*
X141661768Y-104419054D01*
X141669535Y-104419788D01*
X141669536Y-104419787D01*
X141669537Y-104419788D01*
X141676239Y-104419577D01*
X141741375Y-104417531D01*
X141743322Y-104417500D01*
X141773427Y-104417500D01*
X141773432Y-104417500D01*
X141780822Y-104416566D01*
X141786651Y-104416107D01*
X141835831Y-104414562D01*
X141856583Y-104408532D01*
X141875621Y-104404590D01*
X141897064Y-104401882D01*
X141942834Y-104383760D01*
X141948348Y-104381873D01*
X141974875Y-104374165D01*
X141995600Y-104368145D01*
X142014196Y-104357146D01*
X142031664Y-104348589D01*
X142051756Y-104340635D01*
X142091582Y-104311698D01*
X142096441Y-104308506D01*
X142138807Y-104283453D01*
X142154090Y-104268168D01*
X142168873Y-104255542D01*
X142186357Y-104242841D01*
X142217732Y-104204913D01*
X142221636Y-104200622D01*
X147429440Y-98992819D01*
X147490763Y-98959334D01*
X147517121Y-98956500D01*
X158028609Y-98956500D01*
X158044746Y-98958281D01*
X158044768Y-98958054D01*
X158052535Y-98958788D01*
X158052536Y-98958787D01*
X158052537Y-98958788D01*
X158059239Y-98958577D01*
X158124375Y-98956531D01*
X158126322Y-98956500D01*
X158156427Y-98956500D01*
X158156432Y-98956500D01*
X158163822Y-98955566D01*
X158169651Y-98955107D01*
X158218831Y-98953562D01*
X158239583Y-98947532D01*
X158258621Y-98943590D01*
X158280064Y-98940882D01*
X158325834Y-98922760D01*
X158331348Y-98920873D01*
X158357875Y-98913165D01*
X158378600Y-98907145D01*
X158397196Y-98896146D01*
X158414664Y-98887589D01*
X158434756Y-98879635D01*
X158474582Y-98850698D01*
X158479441Y-98847506D01*
X158521807Y-98822453D01*
X158537090Y-98807168D01*
X158551873Y-98794542D01*
X158569357Y-98781841D01*
X158600731Y-98743914D01*
X158604645Y-98739613D01*
X166747529Y-90596729D01*
X166750660Y-90593809D01*
X166778394Y-90569697D01*
X166781049Y-90566621D01*
X166788099Y-90559719D01*
X166793077Y-90554417D01*
X166793080Y-90554416D01*
X166842309Y-90501990D01*
X166843612Y-90500646D01*
X166864927Y-90479333D01*
X166869495Y-90473442D01*
X166873282Y-90469008D01*
X166906972Y-90433133D01*
X166917379Y-90414200D01*
X166928057Y-90397945D01*
X166938951Y-90383898D01*
X166940969Y-90381434D01*
X167446751Y-89795746D01*
X167466288Y-89777526D01*
X167472831Y-89772628D01*
X167583261Y-89689961D01*
X167670889Y-89572904D01*
X167721989Y-89435901D01*
X167727199Y-89387439D01*
X167728499Y-89375354D01*
X167728500Y-89375337D01*
X167728500Y-87578062D01*
X167728499Y-87578045D01*
X167724768Y-87543349D01*
X167721989Y-87517499D01*
X167716092Y-87501690D01*
X167685683Y-87420160D01*
X167670889Y-87380496D01*
X167583261Y-87263439D01*
X167466204Y-87175811D01*
X167466203Y-87175810D01*
X167329203Y-87124711D01*
X167268654Y-87118200D01*
X167268638Y-87118200D01*
X165471362Y-87118200D01*
X165471345Y-87118200D01*
X165410797Y-87124711D01*
X165410795Y-87124711D01*
X165273795Y-87175811D01*
X165156739Y-87263439D01*
X165069111Y-87380495D01*
X165018011Y-87517495D01*
X165018011Y-87517497D01*
X165011500Y-87578045D01*
X165011500Y-89375354D01*
X165018010Y-89435897D01*
X165018012Y-89435905D01*
X165039494Y-89493501D01*
X165041553Y-89500135D01*
X165041863Y-89501377D01*
X165042480Y-89503519D01*
X165045565Y-89511922D01*
X165051089Y-89524794D01*
X165052203Y-89527575D01*
X165069111Y-89572905D01*
X165132695Y-89657843D01*
X165134154Y-89659876D01*
X165142894Y-89672604D01*
X165149975Y-89682916D01*
X165149977Y-89682918D01*
X165347457Y-89897240D01*
X165380472Y-89933070D01*
X165411423Y-89995710D01*
X165403595Y-90065140D01*
X165376962Y-90104776D01*
X157878559Y-97603181D01*
X157817236Y-97636666D01*
X157790878Y-97639500D01*
X147279391Y-97639500D01*
X147263253Y-97637718D01*
X147263232Y-97637946D01*
X147255464Y-97637211D01*
X147183625Y-97639469D01*
X147181678Y-97639500D01*
X147151566Y-97639500D01*
X147144172Y-97640433D01*
X147138354Y-97640891D01*
X147089173Y-97642437D01*
X147089163Y-97642439D01*
X147068422Y-97648464D01*
X147049382Y-97652407D01*
X147027946Y-97655116D01*
X147027931Y-97655119D01*
X146982178Y-97673233D01*
X146976654Y-97675124D01*
X146929402Y-97688854D01*
X146929394Y-97688857D01*
X146910803Y-97699852D01*
X146893338Y-97708408D01*
X146873247Y-97716363D01*
X146873242Y-97716366D01*
X146833427Y-97745292D01*
X146828545Y-97748499D01*
X146786190Y-97773549D01*
X146770916Y-97788823D01*
X146756128Y-97801454D01*
X146738643Y-97814158D01*
X146738640Y-97814162D01*
X146707266Y-97852084D01*
X146703334Y-97856405D01*
X141495559Y-103064181D01*
X141434236Y-103097666D01*
X141407878Y-103100500D01*
X136738391Y-103100500D01*
X136722253Y-103098718D01*
X136722232Y-103098946D01*
X136714464Y-103098211D01*
X136642625Y-103100469D01*
X136640678Y-103100500D01*
X136610566Y-103100500D01*
X136603172Y-103101433D01*
X136597354Y-103101891D01*
X136548173Y-103103437D01*
X136548163Y-103103439D01*
X136527422Y-103109464D01*
X136508382Y-103113407D01*
X136486946Y-103116116D01*
X136486931Y-103116119D01*
X136441178Y-103134233D01*
X136435654Y-103136124D01*
X136388402Y-103149854D01*
X136388394Y-103149857D01*
X136369803Y-103160852D01*
X136352338Y-103169408D01*
X136332247Y-103177363D01*
X136332242Y-103177366D01*
X136292427Y-103206292D01*
X136287545Y-103209499D01*
X136245190Y-103234549D01*
X136229916Y-103249823D01*
X136215128Y-103262454D01*
X136197643Y-103275158D01*
X136197640Y-103275162D01*
X136166266Y-103313084D01*
X136162334Y-103317405D01*
X134002559Y-105477181D01*
X133941236Y-105510666D01*
X133914878Y-105513500D01*
X133625067Y-105513500D01*
X133558028Y-105493815D01*
X133512273Y-105441011D01*
X133502329Y-105371853D01*
X133511267Y-105340250D01*
X133514139Y-105333611D01*
X133514145Y-105333601D01*
X133560562Y-105173831D01*
X133563500Y-105136502D01*
X133563500Y-105100421D01*
X133583185Y-105033382D01*
X133599814Y-105012745D01*
X164980189Y-73632369D01*
X165041510Y-73598886D01*
X165111202Y-73603870D01*
X165126952Y-73611034D01*
X165220214Y-73661587D01*
X165264577Y-73685634D01*
X165266913Y-73687130D01*
X165273792Y-73690887D01*
X165273794Y-73690887D01*
X165273796Y-73690889D01*
X165318452Y-73707545D01*
X165340782Y-73715874D01*
X165350682Y-73719742D01*
X165386102Y-73733584D01*
X165388436Y-73734176D01*
X165389587Y-73734468D01*
X165396013Y-73736473D01*
X165410799Y-73741989D01*
X165423286Y-73743331D01*
X165471345Y-73748499D01*
X165471362Y-73748500D01*
X167268638Y-73748500D01*
X167268654Y-73748499D01*
X167295692Y-73745591D01*
X167329201Y-73741989D01*
X167331494Y-73741134D01*
X167351735Y-73733584D01*
X167466204Y-73690889D01*
X167583261Y-73603261D01*
X167670889Y-73486204D01*
X167721989Y-73349201D01*
X167725591Y-73315692D01*
X167728499Y-73288654D01*
X167728500Y-73288637D01*
X167728500Y-71491362D01*
X167728499Y-71491345D01*
X167725157Y-71460270D01*
X167721989Y-71430799D01*
X167721318Y-71429001D01*
X167699522Y-71370564D01*
X167670889Y-71293796D01*
X167583261Y-71176739D01*
X167466204Y-71089111D01*
X167329203Y-71038011D01*
X167268654Y-71031500D01*
X167268638Y-71031500D01*
X165471362Y-71031500D01*
X165471345Y-71031500D01*
X165410797Y-71038011D01*
X165410795Y-71038011D01*
X165273795Y-71089111D01*
X165156739Y-71176739D01*
X165069111Y-71293795D01*
X165018011Y-71430795D01*
X165018011Y-71430797D01*
X165011500Y-71491345D01*
X165011500Y-71521777D01*
X164991815Y-71588816D01*
X164984520Y-71598997D01*
X164350658Y-72395281D01*
X164350639Y-72395305D01*
X164340574Y-72408626D01*
X164334941Y-72415099D01*
X133626995Y-103123043D01*
X133565672Y-103156528D01*
X133495980Y-103151544D01*
X133440047Y-103109672D01*
X133432583Y-103098485D01*
X133429454Y-103093195D01*
X133429453Y-103093193D01*
X133429450Y-103093190D01*
X133424670Y-103087027D01*
X133426583Y-103085542D01*
X133398848Y-103034749D01*
X133403832Y-102965057D01*
X133418748Y-102938292D01*
X133418712Y-102938271D01*
X133419545Y-102936862D01*
X133422042Y-102932382D01*
X133422684Y-102931553D01*
X133506282Y-102790196D01*
X133506283Y-102790193D01*
X133552099Y-102632495D01*
X133552100Y-102632489D01*
X133554999Y-102595649D01*
X133555000Y-102595634D01*
X133555000Y-102164365D01*
X133554999Y-102164350D01*
X133552100Y-102127510D01*
X133552099Y-102127504D01*
X133506283Y-101969806D01*
X133506282Y-101969803D01*
X133422683Y-101828443D01*
X133422031Y-101827603D01*
X133421725Y-101826824D01*
X133418712Y-101821729D01*
X133419534Y-101821242D01*
X133396499Y-101762565D01*
X133410182Y-101694048D01*
X133425318Y-101673468D01*
X133424673Y-101672968D01*
X133429445Y-101666814D01*
X133429453Y-101666807D01*
X133514145Y-101523601D01*
X133560562Y-101363831D01*
X133563500Y-101326502D01*
X133563500Y-100893498D01*
X133560562Y-100856169D01*
X133552811Y-100829491D01*
X133514146Y-100696403D01*
X133514145Y-100696399D01*
X133429453Y-100553193D01*
X133429451Y-100553191D01*
X133429448Y-100553187D01*
X133311812Y-100435551D01*
X133311803Y-100435544D01*
X133168601Y-100350855D01*
X133168596Y-100350853D01*
X133008835Y-100304438D01*
X133008829Y-100304437D01*
X132971507Y-100301500D01*
X132971502Y-100301500D01*
X132788700Y-100301500D01*
X132721661Y-100281815D01*
X132675906Y-100229011D01*
X132664700Y-100177500D01*
X132664699Y-97006050D01*
X132684384Y-96939011D01*
X132701013Y-96918374D01*
X136459299Y-93160089D01*
X136520620Y-93126606D01*
X136590312Y-93131590D01*
X136612068Y-93142230D01*
X136717262Y-93207115D01*
X136885574Y-93262887D01*
X136989455Y-93273500D01*
X137715544Y-93273499D01*
X137819426Y-93262887D01*
X137987738Y-93207115D01*
X138138652Y-93114030D01*
X138264030Y-92988652D01*
X138357115Y-92837738D01*
X138412887Y-92669426D01*
X138423500Y-92565545D01*
X138423499Y-90314456D01*
X138412887Y-90210574D01*
X138392195Y-90148130D01*
X138390808Y-90143294D01*
X138387165Y-90128313D01*
X138384182Y-90116039D01*
X138376547Y-90099604D01*
X138373920Y-90092978D01*
X138370815Y-90083609D01*
X138357115Y-90042262D01*
X138329840Y-89998042D01*
X138326379Y-89991611D01*
X138322604Y-89983484D01*
X138290560Y-89934325D01*
X138289775Y-89933087D01*
X138264030Y-89891347D01*
X138259552Y-89885684D01*
X138260041Y-89885296D01*
X138252704Y-89876252D01*
X137957321Y-89423110D01*
X137937203Y-89356199D01*
X137937200Y-89355396D01*
X137937200Y-84691381D01*
X137956885Y-84624342D01*
X137969898Y-84607476D01*
X137996387Y-84578652D01*
X138299066Y-84249288D01*
X138325270Y-84227657D01*
X138331152Y-84224030D01*
X138456530Y-84098652D01*
X138549615Y-83947738D01*
X138605387Y-83779426D01*
X138616000Y-83675545D01*
X138615999Y-82917347D01*
X138624725Y-82871655D01*
X138651610Y-82803831D01*
X138992539Y-81943743D01*
X139020128Y-81901761D01*
X141805058Y-79116831D01*
X141809886Y-79112485D01*
X141838305Y-79089505D01*
X141913625Y-79008322D01*
X141915167Y-79006722D01*
X141939480Y-78982409D01*
X141945570Y-78977069D01*
X141973013Y-78956013D01*
X141985917Y-78939195D01*
X141997656Y-78923899D01*
X142023131Y-78890696D01*
X142026872Y-78886265D01*
X142213608Y-78684999D01*
X142344495Y-78543926D01*
X142349601Y-78539211D01*
X142349536Y-78539146D01*
X142375422Y-78513260D01*
X142480030Y-78408652D01*
X142573115Y-78257738D01*
X142628887Y-78089426D01*
X142639500Y-77985545D01*
X142639499Y-77207161D01*
X142648168Y-77161612D01*
X142666459Y-77115300D01*
X143025082Y-76207285D01*
X143052729Y-76165159D01*
X143896870Y-75321019D01*
X143958194Y-75287534D01*
X143984552Y-75284700D01*
X146843740Y-75284700D01*
X146910779Y-75304385D01*
X146922972Y-75313315D01*
X147088213Y-75450574D01*
X147210419Y-75552086D01*
X147239643Y-75573087D01*
X147257737Y-75584257D01*
X147261120Y-75586067D01*
X147260917Y-75586446D01*
X147278253Y-75596740D01*
X147283793Y-75600887D01*
X147283796Y-75600889D01*
X147337141Y-75620786D01*
X147341278Y-75622502D01*
X147372984Y-75637017D01*
X147374769Y-75637310D01*
X147398012Y-75643489D01*
X147420799Y-75651989D01*
X147437779Y-75653814D01*
X147481345Y-75658499D01*
X147481362Y-75658500D01*
X147493669Y-75658500D01*
X147513762Y-75660139D01*
X147516908Y-75660655D01*
X147517209Y-75660705D01*
X147526162Y-75660884D01*
X147526163Y-75660883D01*
X147526166Y-75660884D01*
X147526170Y-75660884D01*
X147562782Y-75659655D01*
X147581093Y-75659041D01*
X147581096Y-75659040D01*
X147581115Y-75659038D01*
X147589268Y-75658500D01*
X149878638Y-75658500D01*
X149878654Y-75658499D01*
X149905692Y-75655591D01*
X149939201Y-75651989D01*
X150076204Y-75600889D01*
X150193261Y-75513261D01*
X150280889Y-75396204D01*
X150331989Y-75259201D01*
X150335591Y-75225692D01*
X150338499Y-75198654D01*
X150338500Y-75198637D01*
X150338500Y-74201362D01*
X150338499Y-74201345D01*
X150334338Y-74162652D01*
X150331989Y-74140799D01*
X150328702Y-74131987D01*
X150309522Y-74080564D01*
X150280889Y-74003796D01*
X150193261Y-73886739D01*
X150076204Y-73799111D01*
X150048021Y-73788599D01*
X149939203Y-73748011D01*
X149878654Y-73741500D01*
X149878638Y-73741500D01*
X147558235Y-73741500D01*
X147551511Y-73741134D01*
X147544495Y-73740368D01*
X147525674Y-73738314D01*
X147525671Y-73738315D01*
X147515292Y-73739964D01*
X147495837Y-73741500D01*
X147481345Y-73741500D01*
X147420799Y-73748010D01*
X147420796Y-73748011D01*
X147395680Y-73757379D01*
X147388085Y-73759670D01*
X147381322Y-73761246D01*
X147372772Y-73763894D01*
X147321154Y-73782968D01*
X147315675Y-73785630D01*
X147315626Y-73785530D01*
X147300716Y-73792799D01*
X147283800Y-73799109D01*
X147283797Y-73799110D01*
X147283796Y-73799111D01*
X147283794Y-73799112D01*
X147283793Y-73799113D01*
X147235851Y-73835000D01*
X147231122Y-73838211D01*
X147196574Y-73859411D01*
X146922973Y-74086684D01*
X146858826Y-74114379D01*
X146843740Y-74115300D01*
X143733386Y-74115300D01*
X143725286Y-74114769D01*
X143691000Y-74110255D01*
X143690996Y-74110255D01*
X143658763Y-74114498D01*
X143658747Y-74114501D01*
X143538363Y-74130350D01*
X143538362Y-74130350D01*
X143460380Y-74162652D01*
X143396128Y-74189265D01*
X143396126Y-74189266D01*
X143367992Y-74210855D01*
X143273987Y-74282986D01*
X143252928Y-74310429D01*
X143247576Y-74316532D01*
X142469490Y-75094618D01*
X142408167Y-75128103D01*
X142338475Y-75123119D01*
X142320288Y-75114599D01*
X142317355Y-75112923D01*
X142315580Y-75111870D01*
X142203738Y-75042885D01*
X142203737Y-75042884D01*
X142203733Y-75042882D01*
X142035428Y-74987113D01*
X141931546Y-74976500D01*
X141180462Y-74976500D01*
X141180446Y-74976501D01*
X141076572Y-74987113D01*
X140908264Y-75042884D01*
X140908259Y-75042886D01*
X140757346Y-75135971D01*
X140631971Y-75261346D01*
X140538886Y-75412259D01*
X140538884Y-75412264D01*
X140483113Y-75580572D01*
X140472500Y-75684447D01*
X140472500Y-77985537D01*
X140472501Y-77985553D01*
X140483113Y-78089427D01*
X140498851Y-78136925D01*
X140501927Y-78149066D01*
X140502977Y-78152799D01*
X140509859Y-78170414D01*
X140510962Y-78173473D01*
X140526722Y-78221031D01*
X140537687Y-78254124D01*
X140538884Y-78257734D01*
X140538886Y-78257740D01*
X140546883Y-78270704D01*
X140554030Y-78285039D01*
X140554258Y-78284931D01*
X140556161Y-78288933D01*
X140662615Y-78476933D01*
X140678519Y-78544968D01*
X140655115Y-78610802D01*
X140642394Y-78625713D01*
X138438202Y-80829906D01*
X138376879Y-80863391D01*
X138307187Y-80858407D01*
X138285425Y-80847764D01*
X138180235Y-80782883D01*
X138011928Y-80727113D01*
X137908046Y-80716500D01*
X137181962Y-80716500D01*
X137181946Y-80716501D01*
X137078072Y-80727113D01*
X136909764Y-80782884D01*
X136909759Y-80782886D01*
X136758846Y-80875971D01*
X136633471Y-81001346D01*
X136540386Y-81152259D01*
X136540384Y-81152264D01*
X136484613Y-81320572D01*
X136474000Y-81424447D01*
X136474000Y-83675537D01*
X136474001Y-83675553D01*
X136484613Y-83779428D01*
X136514696Y-83870215D01*
X136516305Y-83875992D01*
X136523818Y-83909079D01*
X136523819Y-83909083D01*
X136747857Y-84493559D01*
X136759585Y-84524155D01*
X136767800Y-84568537D01*
X136767800Y-89355393D01*
X136748115Y-89422432D01*
X136747679Y-89423107D01*
X136452286Y-89876263D01*
X136444965Y-89885307D01*
X136445446Y-89885687D01*
X136440968Y-89891350D01*
X136415266Y-89933019D01*
X136414438Y-89934325D01*
X136374446Y-89995676D01*
X136374432Y-89995700D01*
X136359953Y-90020930D01*
X136359952Y-90020931D01*
X136356474Y-90027876D01*
X136353811Y-90032653D01*
X136347886Y-90042259D01*
X136329537Y-90097629D01*
X136328836Y-90099628D01*
X136313102Y-90142180D01*
X136311330Y-90149829D01*
X136310793Y-90149704D01*
X136308078Y-90162391D01*
X136292113Y-90210570D01*
X136281500Y-90314447D01*
X136281500Y-91072647D01*
X136272774Y-91118340D01*
X135904960Y-92046253D01*
X135877368Y-92088241D01*
X135710178Y-92255430D01*
X135648857Y-92288914D01*
X135579166Y-92283930D01*
X135523232Y-92242059D01*
X135498815Y-92176594D01*
X135498499Y-92167748D01*
X135498499Y-90314462D01*
X135498498Y-90314446D01*
X135494349Y-90273831D01*
X135487887Y-90210574D01*
X135432115Y-90042262D01*
X135339030Y-89891348D01*
X135213652Y-89765970D01*
X135117476Y-89706648D01*
X135062740Y-89672886D01*
X135062735Y-89672884D01*
X134894427Y-89617113D01*
X134790546Y-89606500D01*
X134064462Y-89606500D01*
X134064446Y-89606501D01*
X133960572Y-89617113D01*
X133792264Y-89672884D01*
X133792259Y-89672886D01*
X133641346Y-89765971D01*
X133515971Y-89891346D01*
X133422886Y-90042259D01*
X133422884Y-90042264D01*
X133367113Y-90210572D01*
X133356500Y-90314447D01*
X133356500Y-90581605D01*
X133336815Y-90648644D01*
X133313597Y-90675409D01*
X133140447Y-90825104D01*
X133076859Y-90854058D01*
X133059350Y-90855300D01*
X132166999Y-90855300D01*
X132099960Y-90835615D01*
X132054205Y-90782811D01*
X132042999Y-90731300D01*
X132043000Y-83258700D01*
X132062685Y-83191661D01*
X132115489Y-83145906D01*
X132167000Y-83134700D01*
X133251851Y-83134700D01*
X133318890Y-83154385D01*
X133332948Y-83164896D01*
X133506097Y-83314589D01*
X133543938Y-83373324D01*
X133549000Y-83408393D01*
X133549000Y-83675536D01*
X133549001Y-83675553D01*
X133559613Y-83779427D01*
X133591611Y-83875992D01*
X133615385Y-83947738D01*
X133708470Y-84098652D01*
X133833848Y-84224030D01*
X133984762Y-84317115D01*
X134153074Y-84372887D01*
X134256955Y-84383500D01*
X134983044Y-84383499D01*
X135086926Y-84372887D01*
X135255238Y-84317115D01*
X135406152Y-84224030D01*
X135531530Y-84098652D01*
X135624615Y-83947738D01*
X135680387Y-83779426D01*
X135691000Y-83675545D01*
X135690999Y-81424456D01*
X135680387Y-81320574D01*
X135624615Y-81152262D01*
X135531530Y-81001348D01*
X135406152Y-80875970D01*
X135273970Y-80794439D01*
X135255240Y-80782886D01*
X135255235Y-80782884D01*
X135086927Y-80727113D01*
X134983046Y-80716500D01*
X134256962Y-80716500D01*
X134256946Y-80716501D01*
X134153072Y-80727113D01*
X133984764Y-80782884D01*
X133984759Y-80782886D01*
X133833846Y-80875971D01*
X133708471Y-81001346D01*
X133615386Y-81152259D01*
X133615384Y-81152264D01*
X133559613Y-81320572D01*
X133549000Y-81424447D01*
X133548999Y-81424460D01*
X133548999Y-81691605D01*
X133529314Y-81758645D01*
X133506097Y-81785409D01*
X133470127Y-81816507D01*
X133332946Y-81935104D01*
X133269359Y-81964058D01*
X133251850Y-81965300D01*
X131845932Y-81965300D01*
X131778893Y-81945615D01*
X131733138Y-81892811D01*
X131722314Y-81831571D01*
X131722341Y-81831227D01*
X131723500Y-81816502D01*
X131723500Y-81383498D01*
X131720562Y-81346169D01*
X131713125Y-81320572D01*
X131677080Y-81196501D01*
X131674145Y-81186399D01*
X131589453Y-81043193D01*
X131589451Y-81043191D01*
X131589448Y-81043187D01*
X131471812Y-80925551D01*
X131471803Y-80925544D01*
X131328601Y-80840855D01*
X131328596Y-80840853D01*
X131168835Y-80794438D01*
X131168829Y-80794437D01*
X131131507Y-80791500D01*
X131131502Y-80791500D01*
X129823498Y-80791500D01*
X129823492Y-80791500D01*
X129786174Y-80794437D01*
X129786162Y-80794439D01*
X129736097Y-80808984D01*
X129728472Y-80810687D01*
X129720343Y-80811971D01*
X129720326Y-80811976D01*
X129701982Y-80818736D01*
X129697844Y-80820097D01*
X129626401Y-80840853D01*
X129610342Y-80850351D01*
X129590110Y-80859964D01*
X129583203Y-80862509D01*
X129583188Y-80862516D01*
X129328374Y-81000364D01*
X129269374Y-81015300D01*
X125579844Y-81015300D01*
X125526236Y-81003113D01*
X125197125Y-80845324D01*
X125191389Y-80842192D01*
X125103320Y-80787870D01*
X125095242Y-80782887D01*
X125095239Y-80782885D01*
X125095238Y-80782885D01*
X125091357Y-80781599D01*
X124926927Y-80727113D01*
X124823046Y-80716500D01*
X124096962Y-80716500D01*
X124096944Y-80716501D01*
X123992989Y-80727121D01*
X123924296Y-80714351D01*
X123873412Y-80666470D01*
X123856492Y-80598680D01*
X123878908Y-80532504D01*
X123892701Y-80516088D01*
X125043271Y-79365519D01*
X125104594Y-79332034D01*
X125130952Y-79329200D01*
X128809214Y-79329200D01*
X128817313Y-79329730D01*
X128851600Y-79334245D01*
X128889919Y-79329200D01*
X128889921Y-79329200D01*
X129004237Y-79314150D01*
X129104808Y-79272490D01*
X129104811Y-79272490D01*
X129122068Y-79265341D01*
X129146473Y-79255234D01*
X129214562Y-79202987D01*
X129268613Y-79161513D01*
X129289675Y-79134062D01*
X129295016Y-79127972D01*
X131337988Y-77085000D01*
X137531001Y-77085000D01*
X137531001Y-77984986D01*
X137541494Y-78087697D01*
X137596641Y-78254119D01*
X137596643Y-78254124D01*
X137688684Y-78403345D01*
X137812654Y-78527315D01*
X137961875Y-78619356D01*
X137961880Y-78619358D01*
X138128302Y-78674505D01*
X138128309Y-78674506D01*
X138231019Y-78684999D01*
X138355999Y-78684999D01*
X138356000Y-78684998D01*
X138356000Y-77085000D01*
X138856000Y-77085000D01*
X138856000Y-78684999D01*
X138980972Y-78684999D01*
X138980986Y-78684998D01*
X139083697Y-78674505D01*
X139250119Y-78619358D01*
X139250124Y-78619356D01*
X139399345Y-78527315D01*
X139523315Y-78403345D01*
X139615356Y-78254124D01*
X139615358Y-78254119D01*
X139670505Y-78087697D01*
X139670506Y-78087690D01*
X139680999Y-77984986D01*
X139681000Y-77984973D01*
X139681000Y-77085000D01*
X138856000Y-77085000D01*
X138356000Y-77085000D01*
X137531001Y-77085000D01*
X131337988Y-77085000D01*
X131837988Y-76585000D01*
X137531000Y-76585000D01*
X138356000Y-76585000D01*
X138356000Y-74985000D01*
X138856000Y-74985000D01*
X138856000Y-76585000D01*
X139680999Y-76585000D01*
X139680999Y-75685028D01*
X139680998Y-75685013D01*
X139670505Y-75582302D01*
X139615358Y-75415880D01*
X139615356Y-75415875D01*
X139523315Y-75266654D01*
X139399345Y-75142684D01*
X139250124Y-75050643D01*
X139250119Y-75050641D01*
X139083697Y-74995494D01*
X139083690Y-74995493D01*
X138980986Y-74985000D01*
X138856000Y-74985000D01*
X138356000Y-74985000D01*
X138231027Y-74985000D01*
X138231012Y-74985001D01*
X138128302Y-74995494D01*
X137961880Y-75050641D01*
X137961875Y-75050643D01*
X137812654Y-75142684D01*
X137688684Y-75266654D01*
X137596643Y-75415875D01*
X137596641Y-75415880D01*
X137541494Y-75582302D01*
X137541493Y-75582309D01*
X137531000Y-75685013D01*
X137531000Y-76585000D01*
X131837988Y-76585000D01*
X134844780Y-73578209D01*
X134850870Y-73572869D01*
X134878313Y-73551813D01*
X134930877Y-73483310D01*
X134972034Y-73429673D01*
X135030950Y-73287437D01*
X135051046Y-73134800D01*
X135046531Y-73100506D01*
X135046000Y-73092404D01*
X135046000Y-66798453D01*
X135065685Y-66731414D01*
X135097114Y-66698135D01*
X135121380Y-66680505D01*
X135630504Y-66310601D01*
X135848547Y-66152182D01*
X135914353Y-66128702D01*
X135921433Y-66128500D01*
X136026638Y-66128500D01*
X136026654Y-66128499D01*
X136053692Y-66125591D01*
X136087201Y-66121989D01*
X136224204Y-66070889D01*
X136341261Y-65983261D01*
X136428889Y-65866204D01*
X136479989Y-65729201D01*
X136485389Y-65678975D01*
X136486499Y-65668654D01*
X136486500Y-65668637D01*
X136486500Y-63871362D01*
X136486499Y-63871345D01*
X136482672Y-63835759D01*
X136479989Y-63810799D01*
X136428889Y-63673796D01*
X136341261Y-63556739D01*
X136224204Y-63469111D01*
X136087203Y-63418011D01*
X136026654Y-63411500D01*
X136026638Y-63411500D01*
X134229362Y-63411500D01*
X134229345Y-63411500D01*
X134168797Y-63418011D01*
X134168795Y-63418011D01*
X134031795Y-63469111D01*
X133914739Y-63556739D01*
X133827111Y-63673795D01*
X133781861Y-63795111D01*
X133739989Y-63851044D01*
X133674524Y-63875460D01*
X133606252Y-63860607D01*
X133574454Y-63835762D01*
X133511240Y-63767094D01*
X133333576Y-63628811D01*
X133333575Y-63628810D01*
X133333572Y-63628808D01*
X133135580Y-63521661D01*
X133135577Y-63521659D01*
X133135574Y-63521658D01*
X133135571Y-63521657D01*
X133135569Y-63521656D01*
X132922637Y-63448556D01*
X132700569Y-63411500D01*
X132475431Y-63411500D01*
X132253362Y-63448556D01*
X132040430Y-63521656D01*
X132040419Y-63521661D01*
X131842427Y-63628808D01*
X131842422Y-63628812D01*
X131664761Y-63767092D01*
X131664756Y-63767097D01*
X131512284Y-63932723D01*
X131512276Y-63932734D01*
X131421808Y-64071206D01*
X131368662Y-64116562D01*
X131299431Y-64125986D01*
X131236095Y-64096484D01*
X131214192Y-64071206D01*
X131123723Y-63932734D01*
X131123715Y-63932723D01*
X130971243Y-63767097D01*
X130971238Y-63767092D01*
X130793577Y-63628812D01*
X130793572Y-63628808D01*
X130595580Y-63521661D01*
X130595577Y-63521659D01*
X130595574Y-63521658D01*
X130595571Y-63521657D01*
X130595569Y-63521656D01*
X130382637Y-63448556D01*
X130160569Y-63411500D01*
X129935431Y-63411500D01*
X129713362Y-63448556D01*
X129500430Y-63521656D01*
X129500419Y-63521661D01*
X129302427Y-63628808D01*
X129302422Y-63628812D01*
X129124761Y-63767092D01*
X129124756Y-63767097D01*
X128972284Y-63932723D01*
X128972276Y-63932734D01*
X128878251Y-64076650D01*
X128825105Y-64122007D01*
X128755873Y-64131430D01*
X128692538Y-64101928D01*
X128672868Y-64079951D01*
X128546113Y-63898926D01*
X128546108Y-63898920D01*
X128379082Y-63731894D01*
X128185578Y-63596399D01*
X127971492Y-63496570D01*
X127971483Y-63496566D01*
X127743326Y-63435432D01*
X127743315Y-63435430D01*
X127508002Y-63414843D01*
X127507996Y-63414843D01*
X127455116Y-63419469D01*
X127386616Y-63405702D01*
X127336434Y-63357086D01*
X127320501Y-63289057D01*
X127343877Y-63223214D01*
X127356622Y-63208267D01*
X127840871Y-62724019D01*
X127902195Y-62690534D01*
X127928553Y-62687700D01*
X153630448Y-62687700D01*
X153697487Y-62707385D01*
X153718129Y-62724019D01*
X155715981Y-64721871D01*
X155749466Y-64783194D01*
X155752300Y-64809552D01*
X155752300Y-71214538D01*
X155742768Y-71262215D01*
X155483742Y-71884117D01*
X155481405Y-71889927D01*
X155480093Y-71893309D01*
X155480091Y-71893316D01*
X155460467Y-71955257D01*
X155459175Y-71961513D01*
X155458894Y-71961455D01*
X155455028Y-71979555D01*
X155440114Y-72024567D01*
X155440113Y-72024572D01*
X155429500Y-72128447D01*
X155429500Y-74429537D01*
X155429501Y-74429553D01*
X155440113Y-74533427D01*
X155460927Y-74596241D01*
X155462257Y-74600844D01*
X155469482Y-74630028D01*
X155476878Y-74645776D01*
X155479613Y-74652634D01*
X155495883Y-74701732D01*
X155495886Y-74701740D01*
X155524516Y-74748156D01*
X155527867Y-74754351D01*
X155531611Y-74762322D01*
X155531616Y-74762331D01*
X155557464Y-74801624D01*
X155558434Y-74803147D01*
X155588970Y-74852652D01*
X155593452Y-74858321D01*
X155593204Y-74858516D01*
X155601953Y-74869255D01*
X155907895Y-75334336D01*
X155928293Y-75401160D01*
X155928300Y-75402482D01*
X155928300Y-76111447D01*
X155908615Y-76178486D01*
X155891981Y-76199128D01*
X155012129Y-77078981D01*
X154950806Y-77112466D01*
X154924448Y-77115300D01*
X150516258Y-77115300D01*
X150449219Y-77095615D01*
X150437029Y-77086687D01*
X150150187Y-76848417D01*
X150149583Y-76847915D01*
X150149569Y-76847905D01*
X150145529Y-76845002D01*
X150120356Y-76826912D01*
X150102262Y-76815742D01*
X150098884Y-76813935D01*
X150099085Y-76813558D01*
X150081753Y-76803265D01*
X150076204Y-76799111D01*
X150076203Y-76799110D01*
X150076201Y-76799109D01*
X150033468Y-76783170D01*
X150022875Y-76779219D01*
X150018740Y-76777504D01*
X149987016Y-76762981D01*
X149985199Y-76762683D01*
X149961983Y-76756508D01*
X149939198Y-76748010D01*
X149939200Y-76748010D01*
X149878654Y-76741500D01*
X149878638Y-76741500D01*
X149866339Y-76741500D01*
X149846252Y-76739862D01*
X149842792Y-76739294D01*
X149842787Y-76739293D01*
X149842781Y-76739293D01*
X149833837Y-76739114D01*
X149833832Y-76739114D01*
X149778906Y-76740957D01*
X149778875Y-76740962D01*
X149770723Y-76741500D01*
X147481345Y-76741500D01*
X147420797Y-76748011D01*
X147420795Y-76748011D01*
X147283795Y-76799111D01*
X147166739Y-76886739D01*
X147079111Y-77003795D01*
X147028011Y-77140795D01*
X147028011Y-77140797D01*
X147021500Y-77201345D01*
X147021500Y-78198654D01*
X147028011Y-78259201D01*
X147028011Y-78259204D01*
X147065992Y-78361032D01*
X147079111Y-78396204D01*
X147166739Y-78513261D01*
X147283796Y-78600889D01*
X147420799Y-78651989D01*
X147448050Y-78654918D01*
X147481345Y-78658499D01*
X147481362Y-78658500D01*
X149801832Y-78658500D01*
X149808568Y-78658867D01*
X149834363Y-78661684D01*
X149834363Y-78661683D01*
X149834364Y-78661684D01*
X149844726Y-78660036D01*
X149864190Y-78658500D01*
X149878638Y-78658500D01*
X149878654Y-78658499D01*
X149916560Y-78654423D01*
X149939201Y-78651989D01*
X149964361Y-78642604D01*
X149971953Y-78640314D01*
X149978690Y-78638744D01*
X149978710Y-78638741D01*
X149987264Y-78636091D01*
X150038846Y-78617029D01*
X150038857Y-78617022D01*
X150044323Y-78614368D01*
X150044372Y-78614470D01*
X150059282Y-78607200D01*
X150076204Y-78600889D01*
X150124183Y-78564970D01*
X150128881Y-78561781D01*
X150163421Y-78540589D01*
X150437026Y-78313314D01*
X150501172Y-78285621D01*
X150516258Y-78284700D01*
X154995093Y-78284700D01*
X155033308Y-78292302D01*
X155033511Y-78291545D01*
X155041353Y-78293645D01*
X155041362Y-78293649D01*
X155178091Y-78311650D01*
X155193999Y-78313745D01*
X155194000Y-78313745D01*
X155194001Y-78313745D01*
X155244879Y-78307046D01*
X155346637Y-78293650D01*
X155488873Y-78234734D01*
X155611013Y-78141013D01*
X155632075Y-78113562D01*
X155637416Y-78107472D01*
X156896480Y-76848409D01*
X156902570Y-76843069D01*
X156930013Y-76822013D01*
X156975309Y-76762982D01*
X157023734Y-76699873D01*
X157082650Y-76557637D01*
X157102746Y-76405000D01*
X157098230Y-76370704D01*
X157097699Y-76362601D01*
X157097699Y-75895344D01*
X157097699Y-75402477D01*
X157117384Y-75335442D01*
X157117974Y-75334533D01*
X157424040Y-74869261D01*
X157432795Y-74858516D01*
X157432547Y-74858320D01*
X157437020Y-74852661D01*
X157437030Y-74852652D01*
X157467606Y-74803079D01*
X157468506Y-74801664D01*
X157502554Y-74749908D01*
X157517424Y-74724176D01*
X157521311Y-74716447D01*
X157523899Y-74711814D01*
X157530115Y-74701738D01*
X157549270Y-74643929D01*
X157549977Y-74641914D01*
X157564968Y-74601445D01*
X157566749Y-74593759D01*
X157567319Y-74593891D01*
X157569973Y-74581451D01*
X157580726Y-74549000D01*
X157585887Y-74533426D01*
X157596500Y-74429545D01*
X157596499Y-73529000D01*
X158388001Y-73529000D01*
X158388001Y-74428986D01*
X158398494Y-74531697D01*
X158453641Y-74698119D01*
X158453643Y-74698124D01*
X158545684Y-74847345D01*
X158669654Y-74971315D01*
X158818875Y-75063356D01*
X158818880Y-75063358D01*
X158985302Y-75118505D01*
X158985309Y-75118506D01*
X159088019Y-75128999D01*
X159212999Y-75128999D01*
X159212999Y-75128998D01*
X159213000Y-73529000D01*
X159713000Y-73529000D01*
X159713000Y-75128999D01*
X159837972Y-75128999D01*
X159837986Y-75128998D01*
X159940697Y-75118505D01*
X160107119Y-75063358D01*
X160107124Y-75063356D01*
X160256345Y-74971315D01*
X160380315Y-74847345D01*
X160472356Y-74698124D01*
X160472358Y-74698119D01*
X160527505Y-74531697D01*
X160527506Y-74531690D01*
X160537999Y-74428986D01*
X160538000Y-74428973D01*
X160538000Y-73529000D01*
X159713000Y-73529000D01*
X159213000Y-73529000D01*
X158388001Y-73529000D01*
X157596499Y-73529000D01*
X157596499Y-73029000D01*
X158388000Y-73029000D01*
X159213000Y-73029000D01*
X159213000Y-71429000D01*
X159713000Y-71429000D01*
X159713000Y-73029000D01*
X160537999Y-73029000D01*
X160537999Y-72129028D01*
X160537998Y-72129013D01*
X160527505Y-72026302D01*
X160472358Y-71859880D01*
X160472356Y-71859875D01*
X160380315Y-71710654D01*
X160256345Y-71586684D01*
X160107124Y-71494643D01*
X160107119Y-71494641D01*
X159940697Y-71439494D01*
X159940690Y-71439493D01*
X159837986Y-71429000D01*
X159713000Y-71429000D01*
X159213000Y-71429000D01*
X159088027Y-71429000D01*
X159088012Y-71429001D01*
X158985302Y-71439494D01*
X158818880Y-71494641D01*
X158818875Y-71494643D01*
X158669654Y-71586684D01*
X158545684Y-71710654D01*
X158453643Y-71859875D01*
X158453641Y-71859880D01*
X158398494Y-72026302D01*
X158398493Y-72026309D01*
X158388000Y-72129013D01*
X158388000Y-73029000D01*
X157596499Y-73029000D01*
X157596499Y-72128456D01*
X157585887Y-72024574D01*
X157530115Y-71856262D01*
X157437030Y-71705348D01*
X157311652Y-71579970D01*
X157307387Y-71576598D01*
X157292179Y-71562339D01*
X156953584Y-71186598D01*
X156923328Y-71123618D01*
X156921700Y-71103588D01*
X156921700Y-64558385D01*
X156922231Y-64550283D01*
X156922843Y-64545640D01*
X156926745Y-64516000D01*
X156921364Y-64475127D01*
X156906650Y-64363363D01*
X156865925Y-64265044D01*
X156847734Y-64221127D01*
X156777542Y-64129651D01*
X156754013Y-64098987D01*
X156748344Y-64094637D01*
X156726568Y-64077927D01*
X156720465Y-64072574D01*
X154367423Y-61719533D01*
X154362074Y-61713434D01*
X154341013Y-61685987D01*
X154263386Y-61626422D01*
X154218873Y-61592266D01*
X154218872Y-61592265D01*
X154218870Y-61592264D01*
X154177211Y-61575009D01*
X154118296Y-61550605D01*
X154076637Y-61533350D01*
X153962321Y-61518300D01*
X153962319Y-61518300D01*
X153957234Y-61517630D01*
X153957197Y-61517625D01*
X153924002Y-61513255D01*
X153923999Y-61513255D01*
X153910864Y-61514984D01*
X153889710Y-61517769D01*
X153881612Y-61518300D01*
X127677394Y-61518300D01*
X127669294Y-61517769D01*
X127654285Y-61515793D01*
X127635001Y-61513254D01*
X127634999Y-61513254D01*
X127482363Y-61533349D01*
X127340126Y-61592266D01*
X127217986Y-61685987D01*
X127196931Y-61713426D01*
X127191579Y-61719528D01*
X125872901Y-63038206D01*
X125822950Y-63068645D01*
X124636269Y-63447700D01*
X124633768Y-63448417D01*
X124630880Y-63449407D01*
X124629639Y-63449818D01*
X124493469Y-63493315D01*
X124493459Y-63493319D01*
X124483403Y-63496762D01*
X124483350Y-63496781D01*
X124477533Y-63498909D01*
X124477499Y-63498922D01*
X124451307Y-63510765D01*
X124445898Y-63512911D01*
X124420437Y-63521653D01*
X124420423Y-63521659D01*
X124222427Y-63628809D01*
X124222422Y-63628812D01*
X124044761Y-63767092D01*
X124044756Y-63767097D01*
X123892284Y-63932723D01*
X123892276Y-63932734D01*
X123801808Y-64071206D01*
X123748662Y-64116562D01*
X123679431Y-64125986D01*
X123616095Y-64096484D01*
X123594192Y-64071206D01*
X123503723Y-63932734D01*
X123503715Y-63932723D01*
X123351243Y-63767097D01*
X123351238Y-63767092D01*
X123173577Y-63628812D01*
X123173572Y-63628808D01*
X122975580Y-63521661D01*
X122975577Y-63521659D01*
X122975574Y-63521658D01*
X122975571Y-63521657D01*
X122975569Y-63521656D01*
X122762637Y-63448556D01*
X122540569Y-63411500D01*
X122315431Y-63411500D01*
X122093362Y-63448556D01*
X121880430Y-63521656D01*
X121880419Y-63521661D01*
X121682427Y-63628808D01*
X121682422Y-63628812D01*
X121504761Y-63767092D01*
X121504756Y-63767097D01*
X121352284Y-63932723D01*
X121352276Y-63932734D01*
X121229140Y-64121207D01*
X121138703Y-64327385D01*
X121083436Y-64545628D01*
X121083434Y-64545640D01*
X121064844Y-64769994D01*
X121064844Y-64770005D01*
X121083434Y-64994359D01*
X121083436Y-64994371D01*
X121138703Y-65212614D01*
X121229140Y-65418792D01*
X121352276Y-65607265D01*
X121352284Y-65607276D01*
X121504756Y-65772902D01*
X121504761Y-65772907D01*
X121524070Y-65787936D01*
X121682424Y-65911189D01*
X121682425Y-65911189D01*
X121682427Y-65911191D01*
X121742314Y-65943600D01*
X121880426Y-66018342D01*
X122093365Y-66091444D01*
X122315431Y-66128500D01*
X122540569Y-66128500D01*
X122762635Y-66091444D01*
X122975574Y-66018342D01*
X123173576Y-65911189D01*
X123351240Y-65772906D01*
X123463583Y-65650870D01*
X123503715Y-65607276D01*
X123503715Y-65607275D01*
X123503722Y-65607268D01*
X123594193Y-65468790D01*
X123647338Y-65423437D01*
X123716569Y-65414013D01*
X123779905Y-65443515D01*
X123801804Y-65468787D01*
X123892278Y-65607268D01*
X123892283Y-65607273D01*
X123892284Y-65607276D01*
X124044756Y-65772902D01*
X124044761Y-65772907D01*
X124064070Y-65787936D01*
X124222424Y-65911189D01*
X124222425Y-65911189D01*
X124222427Y-65911191D01*
X124282314Y-65943600D01*
X124420426Y-66018342D01*
X124633365Y-66091444D01*
X124855431Y-66128500D01*
X125080569Y-66128500D01*
X125302635Y-66091444D01*
X125515574Y-66018342D01*
X125713576Y-65911189D01*
X125891240Y-65772906D01*
X126003583Y-65650870D01*
X126043715Y-65607276D01*
X126043715Y-65607275D01*
X126043722Y-65607268D01*
X126137749Y-65463347D01*
X126190894Y-65417994D01*
X126260125Y-65408570D01*
X126323461Y-65438072D01*
X126343130Y-65460048D01*
X126469890Y-65641078D01*
X126636917Y-65808105D01*
X126830421Y-65943600D01*
X127044507Y-66043429D01*
X127044516Y-66043433D01*
X127272673Y-66104567D01*
X127272684Y-66104569D01*
X127507998Y-66125157D01*
X127507999Y-66125157D01*
X127560877Y-66120530D01*
X127629377Y-66134296D01*
X127679561Y-66182910D01*
X127695495Y-66250939D01*
X127672121Y-66316783D01*
X127659367Y-66331739D01*
X120533529Y-73457581D01*
X120472206Y-73491066D01*
X120445848Y-73493900D01*
X112399786Y-73493900D01*
X112391686Y-73493369D01*
X112357400Y-73488855D01*
X112357396Y-73488855D01*
X112325163Y-73493098D01*
X112325147Y-73493101D01*
X112204764Y-73508949D01*
X112121442Y-73543461D01*
X112121442Y-73543462D01*
X112091984Y-73555664D01*
X112062526Y-73567866D01*
X112057914Y-73571405D01*
X112054699Y-73573873D01*
X112052785Y-73575342D01*
X111940387Y-73661586D01*
X111919328Y-73689029D01*
X111913976Y-73695132D01*
X111503535Y-74105574D01*
X111497433Y-74110925D01*
X111469989Y-74131985D01*
X111469988Y-74131986D01*
X111469987Y-74131987D01*
X111426037Y-74189265D01*
X111426036Y-74189266D01*
X111376124Y-74254310D01*
X111375484Y-74256013D01*
X111317351Y-74396359D01*
X111317349Y-74396364D01*
X111310483Y-74448520D01*
X111302300Y-74510679D01*
X111297255Y-74549000D01*
X111301527Y-74581451D01*
X111301769Y-74583285D01*
X111302300Y-74591386D01*
X111302300Y-97371678D01*
X111282615Y-97438717D01*
X111229811Y-97484472D01*
X111160653Y-97494416D01*
X111097097Y-97465391D01*
X111090619Y-97459359D01*
X110499019Y-96867759D01*
X110465534Y-96806436D01*
X110462700Y-96780078D01*
X110462700Y-93380587D01*
X110464482Y-93364449D01*
X110464254Y-93364428D01*
X110464988Y-93356665D01*
X110462731Y-93284824D01*
X110462700Y-93282877D01*
X110462700Y-93252774D01*
X110462700Y-93252768D01*
X110461766Y-93245375D01*
X110461307Y-93239547D01*
X110459762Y-93190369D01*
X110453736Y-93169628D01*
X110449790Y-93150577D01*
X110447082Y-93129136D01*
X110428963Y-93083372D01*
X110427072Y-93077848D01*
X110413697Y-93031813D01*
X110413345Y-93030600D01*
X110402349Y-93012008D01*
X110393789Y-92994535D01*
X110385835Y-92974444D01*
X110385831Y-92974438D01*
X110356911Y-92934634D01*
X110353702Y-92929749D01*
X110342179Y-92910265D01*
X110328653Y-92887393D01*
X110328649Y-92887389D01*
X110328646Y-92887385D01*
X110313375Y-92872114D01*
X110300737Y-92857318D01*
X110288039Y-92839840D01*
X110250121Y-92808472D01*
X110245798Y-92804538D01*
X107374819Y-89933559D01*
X107341334Y-89872236D01*
X107338500Y-89845878D01*
X107338500Y-87233787D01*
X107340282Y-87217649D01*
X107340054Y-87217628D01*
X107340788Y-87209865D01*
X107338531Y-87138024D01*
X107338500Y-87136077D01*
X107338500Y-87105974D01*
X107338500Y-87105968D01*
X107337566Y-87098575D01*
X107337107Y-87092747D01*
X107335562Y-87043569D01*
X107329536Y-87022828D01*
X107325590Y-87003777D01*
X107322882Y-86982336D01*
X107304763Y-86936572D01*
X107302876Y-86931065D01*
X107289145Y-86883800D01*
X107278148Y-86865207D01*
X107269591Y-86847740D01*
X107261635Y-86827644D01*
X107232705Y-86787825D01*
X107229495Y-86782939D01*
X107204453Y-86740595D01*
X107204452Y-86740593D01*
X107204450Y-86740591D01*
X107204447Y-86740587D01*
X107189178Y-86725318D01*
X107176541Y-86710522D01*
X107163843Y-86693044D01*
X107163840Y-86693041D01*
X107125914Y-86661667D01*
X107121592Y-86657733D01*
X93109718Y-72645858D01*
X93082937Y-72605869D01*
X92995202Y-72395305D01*
X92814457Y-71961513D01*
X92808038Y-71946108D01*
X92798500Y-71898416D01*
X92798500Y-71491362D01*
X92798499Y-71491345D01*
X92795157Y-71460270D01*
X92791989Y-71430799D01*
X92791318Y-71429001D01*
X92769522Y-71370564D01*
X92740889Y-71293796D01*
X92653261Y-71176739D01*
X92536204Y-71089111D01*
X92536204Y-71089110D01*
X92399203Y-71038011D01*
X92338654Y-71031500D01*
X92338638Y-71031500D01*
X90541362Y-71031500D01*
X90541345Y-71031500D01*
X90480797Y-71038011D01*
X90480795Y-71038011D01*
X90343795Y-71089111D01*
X90226739Y-71176739D01*
X90139111Y-71293795D01*
X90088011Y-71430795D01*
X90088011Y-71430797D01*
X90081500Y-71491345D01*
X90081500Y-73288654D01*
X90088011Y-73349202D01*
X90088011Y-73349204D01*
X90128435Y-73457581D01*
X90139111Y-73486204D01*
X90226739Y-73603261D01*
X90343796Y-73690889D01*
X90410783Y-73715874D01*
X90478506Y-73741134D01*
X90480799Y-73741989D01*
X90508050Y-73744918D01*
X90541345Y-73748499D01*
X90541362Y-73748500D01*
X90948417Y-73748500D01*
X90996109Y-73758038D01*
X91139094Y-73817615D01*
X92580241Y-74418092D01*
X92677035Y-74447620D01*
X92681535Y-74448520D01*
X92691078Y-74450335D01*
X92837143Y-74455549D01*
X92837151Y-74455547D01*
X92943784Y-74428328D01*
X93013609Y-74430820D01*
X93062134Y-74460794D01*
X105985181Y-87383841D01*
X106018666Y-87445164D01*
X106021500Y-87471522D01*
X106021500Y-90083609D01*
X106019718Y-90099746D01*
X106019946Y-90099768D01*
X106019211Y-90107535D01*
X106021469Y-90179374D01*
X106021500Y-90181321D01*
X106021500Y-90211434D01*
X106022433Y-90218829D01*
X106022891Y-90224647D01*
X106024437Y-90273829D01*
X106024438Y-90273832D01*
X106030464Y-90294577D01*
X106034407Y-90313618D01*
X106037116Y-90335053D01*
X106037117Y-90335057D01*
X106037118Y-90335064D01*
X106053284Y-90375897D01*
X106055234Y-90380822D01*
X106057125Y-90386348D01*
X106070854Y-90433598D01*
X106081850Y-90452191D01*
X106090410Y-90469665D01*
X106098363Y-90489754D01*
X106127289Y-90529565D01*
X106130490Y-90534437D01*
X106155547Y-90576807D01*
X106155551Y-90576811D01*
X106170821Y-90592081D01*
X106183458Y-90606876D01*
X106196159Y-90624357D01*
X106234072Y-90655721D01*
X106238383Y-90659643D01*
X107693189Y-92114448D01*
X109109381Y-93530640D01*
X109142866Y-93591963D01*
X109145700Y-93618321D01*
X109145700Y-97017809D01*
X109143918Y-97033946D01*
X109144146Y-97033968D01*
X109143411Y-97041735D01*
X109145669Y-97113574D01*
X109145700Y-97115521D01*
X109145700Y-97145634D01*
X109146633Y-97153029D01*
X109147091Y-97158847D01*
X109148637Y-97208029D01*
X109148638Y-97208032D01*
X109154664Y-97228777D01*
X109158607Y-97247818D01*
X109161316Y-97269253D01*
X109161317Y-97269257D01*
X109161318Y-97269264D01*
X109177484Y-97310097D01*
X109179434Y-97315022D01*
X109181325Y-97320548D01*
X109195054Y-97367798D01*
X109195055Y-97367800D01*
X109197348Y-97371678D01*
X109206050Y-97386391D01*
X109214610Y-97403865D01*
X109222563Y-97423954D01*
X109233290Y-97438717D01*
X109248287Y-97459359D01*
X109251489Y-97463765D01*
X109254690Y-97468637D01*
X109279747Y-97511007D01*
X109279751Y-97511011D01*
X109295021Y-97526281D01*
X109307658Y-97541076D01*
X109320359Y-97558557D01*
X109358272Y-97589921D01*
X109362583Y-97593843D01*
X110968581Y-99199841D01*
X112503280Y-100734540D01*
X112513430Y-100747208D01*
X112513606Y-100747064D01*
X112518580Y-100753076D01*
X112570982Y-100802285D01*
X112572382Y-100803642D01*
X112593662Y-100824923D01*
X112599551Y-100829491D01*
X112603994Y-100833286D01*
X112639864Y-100866970D01*
X112639866Y-100866971D01*
X112639867Y-100866972D01*
X112658803Y-100877382D01*
X112675049Y-100888053D01*
X112692132Y-100901304D01*
X112692137Y-100901306D01*
X112737296Y-100920848D01*
X112742544Y-100923420D01*
X112774234Y-100940840D01*
X112785663Y-100947124D01*
X112801823Y-100951272D01*
X112806583Y-100952495D01*
X112824986Y-100958795D01*
X112844824Y-100967380D01*
X112881960Y-100973261D01*
X112893431Y-100975078D01*
X112899146Y-100976261D01*
X112946812Y-100988500D01*
X112968419Y-100988500D01*
X112987816Y-100990026D01*
X113009152Y-100993406D01*
X113058144Y-100988774D01*
X113063981Y-100988500D01*
X121214878Y-100988500D01*
X121281917Y-101008185D01*
X121302559Y-101024819D01*
X124327559Y-104049819D01*
X124361044Y-104111142D01*
X124356060Y-104180834D01*
X124314188Y-104236767D01*
X124248724Y-104261184D01*
X124239878Y-104261500D01*
X121627122Y-104261500D01*
X121560083Y-104241815D01*
X121539441Y-104225181D01*
X119779717Y-102465457D01*
X119769564Y-102452785D01*
X119769388Y-102452931D01*
X119764415Y-102446919D01*
X119712015Y-102397712D01*
X119710647Y-102396387D01*
X119689333Y-102375073D01*
X119683438Y-102370500D01*
X119679002Y-102366711D01*
X119643133Y-102333028D01*
X119643131Y-102333026D01*
X119624200Y-102322619D01*
X119607948Y-102311944D01*
X119590868Y-102298696D01*
X119590864Y-102298694D01*
X119545702Y-102279150D01*
X119540455Y-102276580D01*
X119497337Y-102252875D01*
X119497338Y-102252875D01*
X119476411Y-102247502D01*
X119458006Y-102241201D01*
X119438174Y-102232619D01*
X119389569Y-102224921D01*
X119383847Y-102223736D01*
X119350188Y-102215094D01*
X119336188Y-102211500D01*
X119336187Y-102211500D01*
X119314581Y-102211500D01*
X119295183Y-102209973D01*
X119286583Y-102208611D01*
X119273849Y-102206594D01*
X119273848Y-102206594D01*
X119224855Y-102211225D01*
X119219019Y-102211500D01*
X110703387Y-102211500D01*
X110687245Y-102209718D01*
X110687224Y-102209946D01*
X110673108Y-102208611D01*
X110608220Y-102182702D01*
X110597102Y-102172843D01*
X96496417Y-88072157D01*
X96486264Y-88059485D01*
X96486088Y-88059631D01*
X96481115Y-88053619D01*
X96428715Y-88004412D01*
X96427347Y-88003087D01*
X96406033Y-87981773D01*
X96400138Y-87977200D01*
X96395702Y-87973411D01*
X96359833Y-87939728D01*
X96359831Y-87939726D01*
X96340900Y-87929319D01*
X96324648Y-87918644D01*
X96307568Y-87905396D01*
X96307564Y-87905394D01*
X96262402Y-87885850D01*
X96257155Y-87883280D01*
X96214037Y-87859575D01*
X96214038Y-87859575D01*
X96193111Y-87854202D01*
X96174706Y-87847901D01*
X96154874Y-87839319D01*
X96106269Y-87831621D01*
X96100547Y-87830436D01*
X96066888Y-87821794D01*
X96052888Y-87818200D01*
X96052887Y-87818200D01*
X96031281Y-87818200D01*
X96011883Y-87816673D01*
X96003303Y-87815314D01*
X95990549Y-87813294D01*
X95990548Y-87813294D01*
X95941555Y-87817925D01*
X95935719Y-87818200D01*
X93374784Y-87818200D01*
X93307745Y-87798515D01*
X93295956Y-87789919D01*
X92624647Y-87237076D01*
X92624646Y-87237075D01*
X92624630Y-87237062D01*
X92600845Y-87218617D01*
X92583785Y-87209571D01*
X92567570Y-87199291D01*
X92553705Y-87188912D01*
X92536205Y-87175811D01*
X92485712Y-87156978D01*
X92478328Y-87153660D01*
X92471719Y-87150156D01*
X92471715Y-87150154D01*
X92471714Y-87150154D01*
X92464283Y-87147486D01*
X92464282Y-87147485D01*
X92464280Y-87147485D01*
X92461593Y-87146764D01*
X92452828Y-87144415D01*
X92447226Y-87142623D01*
X92399204Y-87124712D01*
X92399202Y-87124711D01*
X92399201Y-87124711D01*
X92399200Y-87124710D01*
X92399197Y-87124710D01*
X92338654Y-87118200D01*
X92338638Y-87118200D01*
X90541362Y-87118200D01*
X90541345Y-87118200D01*
X90480797Y-87124711D01*
X90480795Y-87124711D01*
X90343795Y-87175811D01*
X90226739Y-87263439D01*
X90139111Y-87380495D01*
X90088011Y-87517495D01*
X90088011Y-87517497D01*
X90081500Y-87578045D01*
X90081500Y-89375354D01*
X90088011Y-89435902D01*
X90088011Y-89435904D01*
X90121680Y-89526170D01*
X90139111Y-89572904D01*
X90226739Y-89689961D01*
X90343796Y-89777589D01*
X90480799Y-89828689D01*
X90508050Y-89831618D01*
X90541345Y-89835199D01*
X90541362Y-89835200D01*
X92284687Y-89835200D01*
X92292856Y-89835740D01*
X92295081Y-89836036D01*
X92295087Y-89836034D01*
X92299797Y-89835986D01*
X92310018Y-89835200D01*
X92338638Y-89835200D01*
X92338654Y-89835199D01*
X92376560Y-89831123D01*
X92399201Y-89828689D01*
X92437002Y-89814589D01*
X92440554Y-89813385D01*
X92448087Y-89811087D01*
X92448100Y-89811082D01*
X92448104Y-89811081D01*
X92461868Y-89806059D01*
X92499732Y-89792248D01*
X92499742Y-89792241D01*
X92506988Y-89788759D01*
X92512170Y-89786552D01*
X92536204Y-89777589D01*
X92587137Y-89739460D01*
X92592074Y-89736123D01*
X92624630Y-89716337D01*
X93185513Y-89254432D01*
X93295955Y-89163481D01*
X93360219Y-89136058D01*
X93374783Y-89135200D01*
X95645578Y-89135200D01*
X95712617Y-89154885D01*
X95733259Y-89171519D01*
X109972065Y-103410325D01*
X109986940Y-103428305D01*
X109992123Y-103435931D01*
X109992129Y-103435938D01*
X110037545Y-103475978D01*
X110040368Y-103478628D01*
X110053667Y-103491927D01*
X110053668Y-103491928D01*
X110068518Y-103503446D01*
X110071510Y-103505921D01*
X110097121Y-103528500D01*
X110116926Y-103545961D01*
X110125136Y-103550144D01*
X110144844Y-103562651D01*
X110152132Y-103568304D01*
X110207726Y-103592361D01*
X110211237Y-103594014D01*
X110231025Y-103604097D01*
X110265168Y-103621494D01*
X110274152Y-103623502D01*
X110296358Y-103630717D01*
X110301400Y-103632898D01*
X110304823Y-103634380D01*
X110364641Y-103643853D01*
X110368462Y-103644583D01*
X110369205Y-103644749D01*
X110427537Y-103657788D01*
X110436755Y-103657498D01*
X110460045Y-103658963D01*
X110469152Y-103660406D01*
X110469153Y-103660405D01*
X110469154Y-103660406D01*
X110504870Y-103657029D01*
X110529434Y-103654706D01*
X110533301Y-103654463D01*
X110593831Y-103652562D01*
X110602683Y-103649989D01*
X110625613Y-103645616D01*
X110634789Y-103644749D01*
X110691750Y-103624241D01*
X110695454Y-103623038D01*
X110716470Y-103616932D01*
X110753600Y-103606145D01*
X110761526Y-103601456D01*
X110782654Y-103591513D01*
X110791329Y-103588391D01*
X110841434Y-103554338D01*
X110844665Y-103552288D01*
X110855698Y-103545763D01*
X110918813Y-103528500D01*
X118928878Y-103528500D01*
X118995917Y-103548185D01*
X119016559Y-103564819D01*
X120771559Y-105319819D01*
X120805044Y-105381142D01*
X120800060Y-105450834D01*
X120758188Y-105506767D01*
X120692724Y-105531184D01*
X120683878Y-105531500D01*
X93479075Y-105531500D01*
X93412036Y-105511815D01*
X93366281Y-105459011D01*
X93364613Y-105455192D01*
X92808038Y-104119408D01*
X92798500Y-104071716D01*
X92798500Y-103664662D01*
X92798499Y-103664645D01*
X92794350Y-103626060D01*
X92791989Y-103604099D01*
X92788228Y-103594016D01*
X92750151Y-103491928D01*
X92740889Y-103467096D01*
X92653261Y-103350039D01*
X92536204Y-103262411D01*
X92536203Y-103262411D01*
X92399203Y-103211311D01*
X92338654Y-103204800D01*
X92338638Y-103204800D01*
X90541362Y-103204800D01*
X90541345Y-103204800D01*
X90480797Y-103211311D01*
X90480795Y-103211311D01*
X90343795Y-103262411D01*
X90226739Y-103350039D01*
X90139111Y-103467095D01*
X90088011Y-103604095D01*
X90088011Y-103604097D01*
X90081500Y-103664645D01*
X90081500Y-105461954D01*
X90088011Y-105522502D01*
X90088011Y-105522504D01*
X90129297Y-105633193D01*
X90139111Y-105659504D01*
X90226739Y-105776561D01*
X90343796Y-105864189D01*
X90480799Y-105915289D01*
X90508050Y-105918218D01*
X90541345Y-105921799D01*
X90541362Y-105921800D01*
X90948417Y-105921800D01*
X90996109Y-105931338D01*
X91007706Y-105936170D01*
X92483183Y-106550951D01*
X92523171Y-106577731D01*
X92539980Y-106594540D01*
X92550130Y-106607208D01*
X92550306Y-106607064D01*
X92555280Y-106613076D01*
X92555283Y-106613079D01*
X92555284Y-106613080D01*
X92574369Y-106631002D01*
X92607682Y-106662285D01*
X92609082Y-106663642D01*
X92630362Y-106684923D01*
X92636251Y-106689491D01*
X92640694Y-106693286D01*
X92676564Y-106726970D01*
X92676566Y-106726971D01*
X92676567Y-106726972D01*
X92695503Y-106737382D01*
X92711749Y-106748053D01*
X92728832Y-106761304D01*
X92774007Y-106780853D01*
X92779228Y-106783410D01*
X92822363Y-106807124D01*
X92842543Y-106812305D01*
X92843286Y-106812496D01*
X92861697Y-106818800D01*
X92881523Y-106827380D01*
X92930152Y-106835081D01*
X92935841Y-106836260D01*
X92983512Y-106848500D01*
X93005114Y-106848500D01*
X93024510Y-106850026D01*
X93045852Y-106853406D01*
X93094844Y-106848774D01*
X93100681Y-106848500D01*
X124965877Y-106848500D01*
X125032916Y-106868185D01*
X125078671Y-106920989D01*
X125088615Y-106990147D01*
X125059590Y-107053703D01*
X125053558Y-107060181D01*
X118508559Y-113605181D01*
X118447236Y-113638666D01*
X118420878Y-113641500D01*
X111338391Y-113641500D01*
X111322253Y-113639718D01*
X111322232Y-113639946D01*
X111314464Y-113639211D01*
X111242625Y-113641469D01*
X111240678Y-113641500D01*
X111210566Y-113641500D01*
X111203172Y-113642433D01*
X111197354Y-113642891D01*
X111148173Y-113644437D01*
X111148163Y-113644439D01*
X111127422Y-113650464D01*
X111108382Y-113654407D01*
X111086946Y-113657116D01*
X111086931Y-113657119D01*
X111041178Y-113675233D01*
X111035654Y-113677124D01*
X110988399Y-113690855D01*
X110969808Y-113701850D01*
X110952339Y-113710408D01*
X110932246Y-113718364D01*
X110932245Y-113718364D01*
X110932244Y-113718365D01*
X110907641Y-113736239D01*
X110892433Y-113747289D01*
X110887550Y-113750496D01*
X110845192Y-113775546D01*
X110829913Y-113790826D01*
X110815127Y-113803455D01*
X110797643Y-113816159D01*
X110797641Y-113816161D01*
X110797640Y-113816162D01*
X110766271Y-113854078D01*
X110762339Y-113858399D01*
X104665559Y-119955181D01*
X104604236Y-119988666D01*
X104577878Y-119991500D01*
X93374784Y-119991500D01*
X93307745Y-119971815D01*
X93295956Y-119963219D01*
X92624647Y-119410376D01*
X92624646Y-119410375D01*
X92624630Y-119410362D01*
X92600845Y-119391917D01*
X92583785Y-119382871D01*
X92567570Y-119372591D01*
X92553705Y-119362212D01*
X92536205Y-119349111D01*
X92485712Y-119330278D01*
X92478328Y-119326960D01*
X92471719Y-119323456D01*
X92471715Y-119323454D01*
X92471714Y-119323454D01*
X92464283Y-119320786D01*
X92464282Y-119320785D01*
X92464280Y-119320785D01*
X92461593Y-119320064D01*
X92452828Y-119317715D01*
X92447226Y-119315923D01*
X92399204Y-119298012D01*
X92399202Y-119298011D01*
X92399201Y-119298011D01*
X92399200Y-119298010D01*
X92399197Y-119298010D01*
X92338654Y-119291500D01*
X92338638Y-119291500D01*
X90541362Y-119291500D01*
X90541345Y-119291500D01*
X90480797Y-119298011D01*
X90480795Y-119298011D01*
X90343795Y-119349111D01*
X90226739Y-119436739D01*
X90139111Y-119553795D01*
X90088011Y-119690795D01*
X90088011Y-119690797D01*
X90081500Y-119751345D01*
X90081500Y-121548654D01*
X88138000Y-121548654D01*
X88138000Y-60830000D01*
X88157685Y-60762961D01*
X88210489Y-60717206D01*
X88262000Y-60706000D01*
X91170537Y-60706000D01*
X91237576Y-60725685D01*
G37*
G04 #@! TD.AperFunction*
G04 #@! TA.AperFunction,Conductor*
G36*
X94185420Y-130534867D02*
G01*
X94123601Y-130493561D01*
X94050680Y-130479056D01*
X94001432Y-130479056D01*
X93928511Y-130493561D01*
X93845816Y-130548816D01*
X93790561Y-130631511D01*
X93771158Y-130729056D01*
X93790561Y-130826601D01*
X93831867Y-130888420D01*
X93273180Y-130329733D01*
X93463870Y-130166870D01*
X93626733Y-129976180D01*
X94185420Y-130534867D01*
G37*
G04 #@! TD.AperFunction*
G04 #@! TA.AperFunction,Conductor*
G36*
X91194130Y-130166870D02*
G01*
X91384819Y-130329733D01*
X90826135Y-130888416D01*
X90867439Y-130826601D01*
X90886842Y-130729056D01*
X90867439Y-130631511D01*
X90812184Y-130548816D01*
X90729489Y-130493561D01*
X90656568Y-130479056D01*
X90607320Y-130479056D01*
X90534399Y-130493561D01*
X90472577Y-130534868D01*
X91031266Y-129976180D01*
X91194130Y-130166870D01*
G37*
G04 #@! TD.AperFunction*
G04 #@! TA.AperFunction,Conductor*
G36*
X91384819Y-127734266D02*
G01*
X91194130Y-127897130D01*
X91031266Y-128087818D01*
X90472582Y-127529134D01*
X90534399Y-127570439D01*
X90607320Y-127584944D01*
X90656568Y-127584944D01*
X90729489Y-127570439D01*
X90812184Y-127515184D01*
X90867439Y-127432489D01*
X90886842Y-127334944D01*
X90867439Y-127237399D01*
X90826133Y-127175581D01*
X91384819Y-127734266D01*
G37*
G04 #@! TD.AperFunction*
G04 #@! TA.AperFunction,Conductor*
G36*
X93790561Y-127237399D02*
G01*
X93771158Y-127334944D01*
X93790561Y-127432489D01*
X93845816Y-127515184D01*
X93928511Y-127570439D01*
X94001432Y-127584944D01*
X94050680Y-127584944D01*
X94123601Y-127570439D01*
X94185415Y-127529135D01*
X93626732Y-128087818D01*
X93463870Y-127897130D01*
X93273180Y-127734266D01*
X93831867Y-127175578D01*
X93790561Y-127237399D01*
G37*
G04 #@! TD.AperFunction*
G04 #@! TA.AperFunction,Conductor*
G36*
X167718420Y-66145867D02*
G01*
X167656601Y-66104561D01*
X167583680Y-66090056D01*
X167534432Y-66090056D01*
X167461511Y-66104561D01*
X167378816Y-66159816D01*
X167323561Y-66242511D01*
X167304158Y-66340056D01*
X167323561Y-66437601D01*
X167364867Y-66499420D01*
X166806180Y-65940733D01*
X166996870Y-65777870D01*
X167159733Y-65587180D01*
X167718420Y-66145867D01*
G37*
G04 #@! TD.AperFunction*
G04 #@! TA.AperFunction,Conductor*
G36*
X164727130Y-65777870D02*
G01*
X164917819Y-65940733D01*
X164359135Y-66499416D01*
X164400439Y-66437601D01*
X164419842Y-66340056D01*
X164400439Y-66242511D01*
X164345184Y-66159816D01*
X164262489Y-66104561D01*
X164189568Y-66090056D01*
X164140320Y-66090056D01*
X164067399Y-66104561D01*
X164005576Y-66145869D01*
X164564266Y-65587179D01*
X164727130Y-65777870D01*
G37*
G04 #@! TD.AperFunction*
G04 #@! TA.AperFunction,Conductor*
G36*
X94045419Y-66018866D02*
G01*
X93983601Y-65977561D01*
X93910680Y-65963056D01*
X93861432Y-65963056D01*
X93788511Y-65977561D01*
X93705816Y-66032816D01*
X93650561Y-66115511D01*
X93631158Y-66213056D01*
X93650561Y-66310601D01*
X93691867Y-66372420D01*
X93133180Y-65813733D01*
X93323870Y-65650870D01*
X93486733Y-65460180D01*
X94045419Y-66018866D01*
G37*
G04 #@! TD.AperFunction*
G04 #@! TA.AperFunction,Conductor*
G36*
X91054130Y-65650870D02*
G01*
X91244819Y-65813733D01*
X90686135Y-66372416D01*
X90727439Y-66310601D01*
X90746842Y-66213056D01*
X90727439Y-66115511D01*
X90672184Y-66032816D01*
X90589489Y-65977561D01*
X90516568Y-65963056D01*
X90467320Y-65963056D01*
X90394399Y-65977561D01*
X90332577Y-66018868D01*
X90891266Y-65460180D01*
X91054130Y-65650870D01*
G37*
G04 #@! TD.AperFunction*
G04 #@! TA.AperFunction,Conductor*
G36*
X164917819Y-63345266D02*
G01*
X164727130Y-63508130D01*
X164564266Y-63698818D01*
X164005582Y-63140134D01*
X164067399Y-63181439D01*
X164140320Y-63195944D01*
X164189568Y-63195944D01*
X164262489Y-63181439D01*
X164345184Y-63126184D01*
X164400439Y-63043489D01*
X164419842Y-62945944D01*
X164400439Y-62848399D01*
X164359133Y-62786581D01*
X164917819Y-63345266D01*
G37*
G04 #@! TD.AperFunction*
G04 #@! TA.AperFunction,Conductor*
G36*
X167323561Y-62848399D02*
G01*
X167304158Y-62945944D01*
X167323561Y-63043489D01*
X167378816Y-63126184D01*
X167461511Y-63181439D01*
X167534432Y-63195944D01*
X167583680Y-63195944D01*
X167656601Y-63181439D01*
X167718415Y-63140135D01*
X167159732Y-63698818D01*
X166996870Y-63508130D01*
X166806180Y-63345266D01*
X167364867Y-62786578D01*
X167323561Y-62848399D01*
G37*
G04 #@! TD.AperFunction*
G04 #@! TA.AperFunction,Conductor*
G36*
X91244819Y-63218266D02*
G01*
X91054130Y-63381130D01*
X90891266Y-63571818D01*
X90332582Y-63013134D01*
X90394399Y-63054439D01*
X90467320Y-63068944D01*
X90516568Y-63068944D01*
X90589489Y-63054439D01*
X90672184Y-62999184D01*
X90727439Y-62916489D01*
X90746842Y-62818944D01*
X90727439Y-62721399D01*
X90686133Y-62659581D01*
X91244819Y-63218266D01*
G37*
G04 #@! TD.AperFunction*
G04 #@! TA.AperFunction,Conductor*
G36*
X93650561Y-62721399D02*
G01*
X93631158Y-62818944D01*
X93650561Y-62916489D01*
X93705816Y-62999184D01*
X93788511Y-63054439D01*
X93861432Y-63068944D01*
X93910680Y-63068944D01*
X93983601Y-63054439D01*
X94045414Y-63013136D01*
X93486732Y-63571818D01*
X93323870Y-63381130D01*
X93133180Y-63218266D01*
X93691867Y-62659578D01*
X93650561Y-62721399D01*
G37*
G04 #@! TD.AperFunction*
M02*
