M48
; DRILL file {KiCad 7.0.5-0} date 2023 July 23, Sunday 12:14:38
; FORMAT={-:-/ absolute / metric / decimal}
; #@! TF.CreationDate,2023-07-23T12:14:38-07:00
; #@! TF.GenerationSoftware,Kicad,Pcbnew,7.0.5-0
; #@! TF.FileFunction,Plated,1,2,PTH
FMAT,2
METRIC
; #@! TA.AperFunction,Plated,PTH,ViaDrill
T1C0.300
; #@! TA.AperFunction,Plated,PTH,ComponentDrill
T2C0.500
; #@! TA.AperFunction,Plated,PTH,ComponentDrill
T3C1.000
; #@! TA.AperFunction,Plated,PTH,ComponentDrill
T4C1.500
; #@! TA.AperFunction,Plated,PTH,ComponentDrill
T5C1.700
; #@! TA.AperFunction,Plated,PTH,ComponentDrill
T6C3.200
%
G90
G05
T1
X90.465Y-70.664
X90.465Y-75.744
X90.465Y-78.284
X90.465Y-80.824
X90.465Y-83.364
X90.465Y-85.904
X90.465Y-90.984
X90.465Y-93.524
X90.465Y-96.064
X90.465Y-98.604
X90.465Y-101.144
X90.465Y-106.224
X90.465Y-108.764
X90.465Y-111.304
X90.465Y-113.844
X90.465Y-116.384
X90.465Y-118.924
X90.465Y-124.004
X93.005Y-70.664
X93.005Y-75.744
X93.005Y-78.284
X93.005Y-80.824
X93.005Y-83.364
X93.005Y-85.904
X93.005Y-90.984
X93.005Y-93.524
X93.005Y-96.064
X93.005Y-98.604
X93.005Y-101.144
X93.005Y-108.764
X93.005Y-111.304
X93.005Y-113.844
X93.005Y-116.384
X93.005Y-118.924
X93.005Y-124.004
X95.545Y-68.124
X95.545Y-70.664
X95.545Y-78.284
X95.545Y-80.824
X95.545Y-83.364
X95.545Y-85.904
X95.545Y-90.984
X95.545Y-93.524
X95.545Y-96.064
X95.545Y-98.604
X95.545Y-101.144
X95.545Y-108.764
X95.545Y-111.304
X95.545Y-113.844
X95.545Y-116.384
X95.545Y-118.924
X95.545Y-124.004
X98.085Y-63.044
X98.085Y-65.584
X98.085Y-68.124
X98.085Y-70.664
X98.085Y-75.744
X98.085Y-80.824
X98.085Y-83.364
X98.085Y-85.904
X98.085Y-93.524
X98.085Y-96.064
X98.085Y-98.604
X98.085Y-101.144
X98.085Y-108.764
X98.085Y-111.304
X98.085Y-113.844
X98.085Y-116.384
X98.085Y-124.004
X98.085Y-126.544
X98.085Y-129.084
X98.085Y-131.624
X100.625Y-63.044
X100.625Y-65.584
X100.625Y-68.124
X100.625Y-70.664
X100.625Y-78.284
X100.625Y-83.364
X100.625Y-85.904
X100.625Y-96.064
X100.625Y-98.604
X100.625Y-108.764
X100.625Y-111.304
X100.625Y-118.924
X100.625Y-124.004
X100.625Y-126.544
X100.625Y-129.084
X100.625Y-131.624
X103.165Y-63.044
X103.165Y-65.584
X103.165Y-68.124
X103.165Y-70.664
X103.165Y-78.284
X103.165Y-80.824
X103.165Y-85.904
X103.165Y-93.524
X103.165Y-98.604
X103.165Y-108.764
X103.165Y-111.304
X103.165Y-118.924
X103.165Y-124.004
X103.165Y-126.544
X103.165Y-129.084
X103.165Y-131.624
X105.705Y-63.044
X105.705Y-65.584
X105.705Y-68.124
X105.705Y-70.664
X105.705Y-78.284
X105.705Y-80.824
X105.705Y-83.364
X105.705Y-90.984
X105.705Y-93.524
X105.705Y-96.064
X105.705Y-103.684
X105.705Y-108.764
X105.705Y-111.304
X105.705Y-124.004
X105.705Y-126.544
X105.705Y-129.084
X105.705Y-131.624
X108.245Y-63.044
X108.245Y-65.584
X108.245Y-68.124
X108.245Y-70.664
X108.245Y-73.204
X108.245Y-80.824
X108.245Y-83.364
X108.245Y-85.904
X108.245Y-96.064
X108.245Y-98.604
X108.245Y-108.764
X108.245Y-111.304
X108.245Y-113.844
X108.245Y-121.464
X108.245Y-124.004
X108.245Y-126.544
X108.245Y-129.084
X108.245Y-131.624
X110.785Y-63.044
X110.785Y-65.584
X110.785Y-68.124
X110.785Y-70.664
X110.785Y-73.204
X110.785Y-80.824
X110.785Y-83.364
X110.785Y-85.904
X110.785Y-93.524
X110.785Y-96.064
X110.785Y-108.764
X110.785Y-111.304
X110.785Y-121.464
X110.785Y-124.004
X110.785Y-126.544
X110.785Y-129.084
X110.785Y-131.624
X113.325Y-63.044
X113.325Y-65.584
X113.325Y-68.124
X113.325Y-70.664
X113.325Y-85.904
X113.325Y-93.524
X113.325Y-108.764
X113.325Y-111.304
X113.325Y-121.464
X113.325Y-124.004
X113.325Y-126.544
X113.325Y-129.084
X113.325Y-131.624
X115.865Y-63.044
X115.865Y-65.584
X115.865Y-68.124
X115.865Y-70.664
X115.865Y-85.904
X115.865Y-93.524
X115.865Y-108.764
X115.865Y-111.304
X115.865Y-121.464
X115.865Y-126.544
X115.865Y-131.624
X118.405Y-63.044
X118.405Y-65.584
X118.405Y-68.124
X118.405Y-70.664
X118.405Y-80.824
X118.405Y-85.904
X118.405Y-96.064
X118.405Y-98.604
X118.405Y-108.764
X118.405Y-111.304
X118.405Y-118.924
X118.405Y-121.464
X120.945Y-63.044
X120.945Y-68.124
X120.945Y-70.664
X120.945Y-96.064
X120.945Y-98.604
X120.945Y-108.764
X120.945Y-131.624
X123.485Y-63.044
X123.485Y-68.124
X123.485Y-78.284
X123.485Y-85.904
X123.485Y-96.064
X123.485Y-98.604
X123.485Y-118.924
X123.485Y-121.464
X126.025Y-83.364
X126.025Y-85.904
X126.025Y-111.304
X126.025Y-113.844
X126.025Y-121.464
X126.025Y-124.004
X126.025Y-126.544
X126.025Y-129.084
X126.025Y-131.624
X128.565Y-63.044
X128.565Y-70.664
X128.565Y-85.904
X128.565Y-93.524
X128.565Y-96.064
X128.565Y-98.604
X128.565Y-111.304
X128.565Y-113.844
X128.565Y-121.464
X128.565Y-124.004
X128.565Y-126.544
X128.565Y-129.084
X128.565Y-131.624
X131.105Y-63.044
X131.105Y-68.124
X131.105Y-70.664
X131.105Y-73.204
X131.105Y-111.304
X131.105Y-113.844
X131.105Y-121.464
X131.105Y-124.004
X131.105Y-126.544
X131.105Y-129.084
X131.105Y-131.624
X133.645Y-63.044
X133.645Y-85.904
X133.645Y-113.844
X133.645Y-121.464
X133.645Y-124.004
X133.645Y-126.544
X133.645Y-129.084
X133.645Y-131.624
X136.185Y-63.044
X136.185Y-68.124
X136.185Y-70.664
X136.185Y-78.284
X136.185Y-85.904
X136.185Y-96.064
X136.185Y-98.604
X136.185Y-106.224
X136.185Y-108.764
X136.185Y-118.924
X136.185Y-121.464
X136.185Y-124.004
X136.185Y-126.544
X136.185Y-129.084
X136.185Y-131.624
X138.725Y-63.044
X138.725Y-65.584
X138.725Y-68.124
X138.725Y-70.664
X138.725Y-85.904
X138.725Y-93.524
X138.725Y-96.064
X138.725Y-106.224
X138.725Y-111.304
X138.725Y-118.924
X138.725Y-121.464
X138.725Y-124.004
X138.725Y-126.544
X138.725Y-129.084
X138.725Y-131.624
X141.265Y-63.044
X141.265Y-65.584
X141.265Y-68.124
X141.265Y-70.664
X141.265Y-80.824
X141.265Y-83.364
X141.265Y-85.904
X141.265Y-93.524
X141.265Y-98.604
X141.265Y-106.224
X141.265Y-108.764
X141.265Y-121.464
X143.805Y-63.044
X143.805Y-65.584
X143.805Y-68.124
X143.805Y-70.664
X143.805Y-73.204
X143.805Y-80.824
X143.805Y-83.364
X143.805Y-85.904
X143.805Y-96.064
X143.805Y-98.604
X143.805Y-106.224
X143.805Y-108.764
X143.805Y-113.844
X146.345Y-63.044
X146.345Y-65.584
X146.345Y-68.124
X146.345Y-70.664
X146.345Y-73.204
X146.345Y-80.824
X146.345Y-83.364
X146.345Y-85.904
X146.345Y-93.524
X146.345Y-96.064
X146.345Y-106.224
X146.345Y-108.764
X146.345Y-113.844
X146.345Y-121.464
X148.885Y-63.044
X148.885Y-65.584
X148.885Y-68.124
X148.885Y-70.664
X148.885Y-73.204
X148.885Y-80.824
X148.885Y-83.364
X148.885Y-85.904
X148.885Y-93.524
X148.885Y-96.064
X148.885Y-106.224
X148.885Y-108.764
X148.885Y-113.844
X148.885Y-121.464
X151.425Y-63.044
X151.425Y-65.584
X151.425Y-68.124
X151.425Y-70.664
X151.425Y-73.204
X151.425Y-80.824
X151.425Y-83.364
X151.425Y-93.524
X151.425Y-96.064
X151.425Y-106.224
X151.425Y-108.764
X151.425Y-113.844
X151.425Y-121.464
X151.425Y-124.004
X151.425Y-126.544
X151.425Y-129.084
X151.425Y-131.624
X153.965Y-65.584
X153.965Y-68.124
X153.965Y-70.664
X153.965Y-80.824
X153.965Y-85.904
X153.965Y-93.524
X153.965Y-96.064
X153.965Y-106.224
X153.965Y-108.764
X153.965Y-121.464
X153.965Y-124.004
X153.965Y-126.544
X153.965Y-129.084
X153.965Y-131.624
X156.505Y-78.284
X156.505Y-83.364
X156.505Y-85.904
X156.505Y-93.524
X156.505Y-96.064
X156.505Y-106.224
X156.505Y-108.764
X156.505Y-121.464
X156.505Y-124.004
X156.505Y-126.544
X156.505Y-129.084
X156.505Y-131.624
X159.045Y-63.044
X159.045Y-65.584
X159.045Y-68.124
X159.045Y-70.664
X159.045Y-80.824
X159.045Y-83.364
X159.045Y-85.904
X159.045Y-93.524
X159.045Y-103.684
X159.045Y-106.224
X159.045Y-108.764
X159.045Y-121.464
X159.045Y-124.004
X159.045Y-126.544
X159.045Y-129.084
X159.045Y-131.624
X161.585Y-63.044
X161.585Y-65.584
X161.585Y-68.124
X161.585Y-70.664
X161.585Y-78.284
X161.585Y-80.824
X161.585Y-83.364
X161.585Y-85.904
X161.585Y-90.984
X161.585Y-98.604
X161.585Y-103.684
X161.585Y-106.224
X161.585Y-108.764
X161.585Y-113.844
X161.585Y-116.384
X161.585Y-121.464
X161.585Y-124.004
X161.585Y-126.544
X161.585Y-129.084
X161.585Y-131.624
X164.125Y-70.664
X164.125Y-75.744
X164.125Y-78.284
X164.125Y-80.824
X164.125Y-83.364
X164.125Y-85.904
X164.125Y-96.064
X164.125Y-98.604
X164.125Y-103.684
X164.125Y-106.224
X164.125Y-111.304
X164.125Y-113.844
X164.125Y-116.384
X164.125Y-124.004
X166.665Y-70.664
X166.665Y-75.744
X166.665Y-78.284
X166.665Y-80.824
X166.665Y-83.364
X166.665Y-85.904
X166.665Y-93.524
X166.665Y-96.064
X166.665Y-98.604
X166.665Y-101.144
X166.665Y-108.764
X166.665Y-111.304
X166.665Y-113.844
X166.665Y-116.384
X166.665Y-118.924
X166.665Y-124.004
X169.205Y-68.124
X169.205Y-70.664
X169.205Y-73.204
X169.205Y-75.744
X169.205Y-78.284
X169.205Y-80.824
X169.205Y-83.364
X169.205Y-85.904
X169.205Y-88.444
X169.205Y-90.984
X169.205Y-93.524
X169.205Y-96.064
X169.205Y-98.604
X169.205Y-101.144
X169.205Y-103.684
X169.205Y-106.224
X169.205Y-108.764
X169.205Y-111.304
X169.205Y-113.844
X169.205Y-116.384
X169.205Y-118.924
X169.205Y-121.464
X169.205Y-124.004
X169.205Y-131.624
T2
X89.789Y-64.516
X89.929Y-129.032
X90.492Y-62.819
X90.492Y-66.213
X90.632Y-127.335
X90.632Y-130.729
X92.189Y-62.116
X92.189Y-66.916
X92.329Y-126.632
X92.329Y-131.432
X93.886Y-62.819
X93.886Y-66.213
X94.026Y-127.335
X94.026Y-130.729
X94.589Y-64.516
X94.729Y-129.032
X163.348Y-128.905
X163.462Y-64.643
X164.051Y-127.208
X164.051Y-130.602
X164.165Y-62.946
X164.165Y-66.34
X165.748Y-126.505
X165.748Y-131.305
X165.862Y-62.243
X165.862Y-67.043
X167.445Y-127.208
X167.445Y-130.602
X167.559Y-62.946
X167.559Y-66.34
X168.148Y-128.905
X168.262Y-64.643
T3
X91.44Y-72.39
X91.44Y-88.477
X91.44Y-104.563
X91.44Y-120.65
X122.428Y-64.77
X124.968Y-64.77
X127.508Y-64.77
X130.048Y-64.77
X132.588Y-64.77
X135.128Y-64.77
X166.37Y-72.39
X166.37Y-88.477
X166.37Y-104.563
X166.37Y-120.65
T4
X120.269Y-127.635
X144.907Y-128.27
T5
X117.729Y-125.095
X117.729Y-130.175
X122.809Y-125.095
X122.809Y-130.175
X142.367Y-125.73
X142.367Y-130.81
X147.447Y-125.73
X147.447Y-130.81
T6
X92.189Y-64.516
X92.329Y-129.032
X165.748Y-128.905
X165.862Y-64.643
T0
M30
