G04 #@! TF.GenerationSoftware,KiCad,Pcbnew,7.0.5-0*
G04 #@! TF.CreationDate,2023-07-23T12:14:28-07:00*
G04 #@! TF.ProjectId,switched-bandpass-filter,73776974-6368-4656-942d-62616e647061,v1.0*
G04 #@! TF.SameCoordinates,Original*
G04 #@! TF.FileFunction,Legend,Top*
G04 #@! TF.FilePolarity,Positive*
%FSLAX46Y46*%
G04 Gerber Fmt 4.6, Leading zero omitted, Abs format (unit mm)*
G04 Created by KiCad (PCBNEW 7.0.5-0) date 2023-07-23 12:14:28*
%MOMM*%
%LPD*%
G01*
G04 APERTURE LIST*
%ADD10C,0.150000*%
%ADD11C,0.120000*%
G04 APERTURE END LIST*
D10*
X96682160Y-63785200D02*
X96777398Y-63832819D01*
X96777398Y-63832819D02*
X96967874Y-63832819D01*
X96967874Y-63832819D02*
X97063112Y-63785200D01*
X97063112Y-63785200D02*
X97110731Y-63689961D01*
X97110731Y-63689961D02*
X97110731Y-63642342D01*
X97110731Y-63642342D02*
X97063112Y-63547104D01*
X97063112Y-63547104D02*
X96967874Y-63499485D01*
X96967874Y-63499485D02*
X96825017Y-63499485D01*
X96825017Y-63499485D02*
X96729779Y-63451866D01*
X96729779Y-63451866D02*
X96682160Y-63356628D01*
X96682160Y-63356628D02*
X96682160Y-63309009D01*
X96682160Y-63309009D02*
X96729779Y-63213771D01*
X96729779Y-63213771D02*
X96825017Y-63166152D01*
X96825017Y-63166152D02*
X96967874Y-63166152D01*
X96967874Y-63166152D02*
X97063112Y-63213771D01*
X97444065Y-63166152D02*
X97634541Y-63832819D01*
X97634541Y-63832819D02*
X97825017Y-63356628D01*
X97825017Y-63356628D02*
X98015493Y-63832819D01*
X98015493Y-63832819D02*
X98205969Y-63166152D01*
X98586922Y-63832819D02*
X98586922Y-63166152D01*
X98586922Y-62832819D02*
X98539303Y-62880438D01*
X98539303Y-62880438D02*
X98586922Y-62928057D01*
X98586922Y-62928057D02*
X98634541Y-62880438D01*
X98634541Y-62880438D02*
X98586922Y-62832819D01*
X98586922Y-62832819D02*
X98586922Y-62928057D01*
X98920255Y-63166152D02*
X99301207Y-63166152D01*
X99063112Y-62832819D02*
X99063112Y-63689961D01*
X99063112Y-63689961D02*
X99110731Y-63785200D01*
X99110731Y-63785200D02*
X99205969Y-63832819D01*
X99205969Y-63832819D02*
X99301207Y-63832819D01*
X100063112Y-63785200D02*
X99967874Y-63832819D01*
X99967874Y-63832819D02*
X99777398Y-63832819D01*
X99777398Y-63832819D02*
X99682160Y-63785200D01*
X99682160Y-63785200D02*
X99634541Y-63737580D01*
X99634541Y-63737580D02*
X99586922Y-63642342D01*
X99586922Y-63642342D02*
X99586922Y-63356628D01*
X99586922Y-63356628D02*
X99634541Y-63261390D01*
X99634541Y-63261390D02*
X99682160Y-63213771D01*
X99682160Y-63213771D02*
X99777398Y-63166152D01*
X99777398Y-63166152D02*
X99967874Y-63166152D01*
X99967874Y-63166152D02*
X100063112Y-63213771D01*
X100491684Y-63832819D02*
X100491684Y-62832819D01*
X100920255Y-63832819D02*
X100920255Y-63309009D01*
X100920255Y-63309009D02*
X100872636Y-63213771D01*
X100872636Y-63213771D02*
X100777398Y-63166152D01*
X100777398Y-63166152D02*
X100634541Y-63166152D01*
X100634541Y-63166152D02*
X100539303Y-63213771D01*
X100539303Y-63213771D02*
X100491684Y-63261390D01*
X101777398Y-63785200D02*
X101682160Y-63832819D01*
X101682160Y-63832819D02*
X101491684Y-63832819D01*
X101491684Y-63832819D02*
X101396446Y-63785200D01*
X101396446Y-63785200D02*
X101348827Y-63689961D01*
X101348827Y-63689961D02*
X101348827Y-63309009D01*
X101348827Y-63309009D02*
X101396446Y-63213771D01*
X101396446Y-63213771D02*
X101491684Y-63166152D01*
X101491684Y-63166152D02*
X101682160Y-63166152D01*
X101682160Y-63166152D02*
X101777398Y-63213771D01*
X101777398Y-63213771D02*
X101825017Y-63309009D01*
X101825017Y-63309009D02*
X101825017Y-63404247D01*
X101825017Y-63404247D02*
X101348827Y-63499485D01*
X102682160Y-63832819D02*
X102682160Y-62832819D01*
X102682160Y-63785200D02*
X102586922Y-63832819D01*
X102586922Y-63832819D02*
X102396446Y-63832819D01*
X102396446Y-63832819D02*
X102301208Y-63785200D01*
X102301208Y-63785200D02*
X102253589Y-63737580D01*
X102253589Y-63737580D02*
X102205970Y-63642342D01*
X102205970Y-63642342D02*
X102205970Y-63356628D01*
X102205970Y-63356628D02*
X102253589Y-63261390D01*
X102253589Y-63261390D02*
X102301208Y-63213771D01*
X102301208Y-63213771D02*
X102396446Y-63166152D01*
X102396446Y-63166152D02*
X102586922Y-63166152D01*
X102586922Y-63166152D02*
X102682160Y-63213771D01*
X103920256Y-63832819D02*
X103920256Y-62832819D01*
X103920256Y-63213771D02*
X104015494Y-63166152D01*
X104015494Y-63166152D02*
X104205970Y-63166152D01*
X104205970Y-63166152D02*
X104301208Y-63213771D01*
X104301208Y-63213771D02*
X104348827Y-63261390D01*
X104348827Y-63261390D02*
X104396446Y-63356628D01*
X104396446Y-63356628D02*
X104396446Y-63642342D01*
X104396446Y-63642342D02*
X104348827Y-63737580D01*
X104348827Y-63737580D02*
X104301208Y-63785200D01*
X104301208Y-63785200D02*
X104205970Y-63832819D01*
X104205970Y-63832819D02*
X104015494Y-63832819D01*
X104015494Y-63832819D02*
X103920256Y-63785200D01*
X105253589Y-63832819D02*
X105253589Y-63309009D01*
X105253589Y-63309009D02*
X105205970Y-63213771D01*
X105205970Y-63213771D02*
X105110732Y-63166152D01*
X105110732Y-63166152D02*
X104920256Y-63166152D01*
X104920256Y-63166152D02*
X104825018Y-63213771D01*
X105253589Y-63785200D02*
X105158351Y-63832819D01*
X105158351Y-63832819D02*
X104920256Y-63832819D01*
X104920256Y-63832819D02*
X104825018Y-63785200D01*
X104825018Y-63785200D02*
X104777399Y-63689961D01*
X104777399Y-63689961D02*
X104777399Y-63594723D01*
X104777399Y-63594723D02*
X104825018Y-63499485D01*
X104825018Y-63499485D02*
X104920256Y-63451866D01*
X104920256Y-63451866D02*
X105158351Y-63451866D01*
X105158351Y-63451866D02*
X105253589Y-63404247D01*
X105729780Y-63166152D02*
X105729780Y-63832819D01*
X105729780Y-63261390D02*
X105777399Y-63213771D01*
X105777399Y-63213771D02*
X105872637Y-63166152D01*
X105872637Y-63166152D02*
X106015494Y-63166152D01*
X106015494Y-63166152D02*
X106110732Y-63213771D01*
X106110732Y-63213771D02*
X106158351Y-63309009D01*
X106158351Y-63309009D02*
X106158351Y-63832819D01*
X107063113Y-63832819D02*
X107063113Y-62832819D01*
X107063113Y-63785200D02*
X106967875Y-63832819D01*
X106967875Y-63832819D02*
X106777399Y-63832819D01*
X106777399Y-63832819D02*
X106682161Y-63785200D01*
X106682161Y-63785200D02*
X106634542Y-63737580D01*
X106634542Y-63737580D02*
X106586923Y-63642342D01*
X106586923Y-63642342D02*
X106586923Y-63356628D01*
X106586923Y-63356628D02*
X106634542Y-63261390D01*
X106634542Y-63261390D02*
X106682161Y-63213771D01*
X106682161Y-63213771D02*
X106777399Y-63166152D01*
X106777399Y-63166152D02*
X106967875Y-63166152D01*
X106967875Y-63166152D02*
X107063113Y-63213771D01*
X107539304Y-63166152D02*
X107539304Y-64166152D01*
X107539304Y-63213771D02*
X107634542Y-63166152D01*
X107634542Y-63166152D02*
X107825018Y-63166152D01*
X107825018Y-63166152D02*
X107920256Y-63213771D01*
X107920256Y-63213771D02*
X107967875Y-63261390D01*
X107967875Y-63261390D02*
X108015494Y-63356628D01*
X108015494Y-63356628D02*
X108015494Y-63642342D01*
X108015494Y-63642342D02*
X107967875Y-63737580D01*
X107967875Y-63737580D02*
X107920256Y-63785200D01*
X107920256Y-63785200D02*
X107825018Y-63832819D01*
X107825018Y-63832819D02*
X107634542Y-63832819D01*
X107634542Y-63832819D02*
X107539304Y-63785200D01*
X108872637Y-63832819D02*
X108872637Y-63309009D01*
X108872637Y-63309009D02*
X108825018Y-63213771D01*
X108825018Y-63213771D02*
X108729780Y-63166152D01*
X108729780Y-63166152D02*
X108539304Y-63166152D01*
X108539304Y-63166152D02*
X108444066Y-63213771D01*
X108872637Y-63785200D02*
X108777399Y-63832819D01*
X108777399Y-63832819D02*
X108539304Y-63832819D01*
X108539304Y-63832819D02*
X108444066Y-63785200D01*
X108444066Y-63785200D02*
X108396447Y-63689961D01*
X108396447Y-63689961D02*
X108396447Y-63594723D01*
X108396447Y-63594723D02*
X108444066Y-63499485D01*
X108444066Y-63499485D02*
X108539304Y-63451866D01*
X108539304Y-63451866D02*
X108777399Y-63451866D01*
X108777399Y-63451866D02*
X108872637Y-63404247D01*
X109301209Y-63785200D02*
X109396447Y-63832819D01*
X109396447Y-63832819D02*
X109586923Y-63832819D01*
X109586923Y-63832819D02*
X109682161Y-63785200D01*
X109682161Y-63785200D02*
X109729780Y-63689961D01*
X109729780Y-63689961D02*
X109729780Y-63642342D01*
X109729780Y-63642342D02*
X109682161Y-63547104D01*
X109682161Y-63547104D02*
X109586923Y-63499485D01*
X109586923Y-63499485D02*
X109444066Y-63499485D01*
X109444066Y-63499485D02*
X109348828Y-63451866D01*
X109348828Y-63451866D02*
X109301209Y-63356628D01*
X109301209Y-63356628D02*
X109301209Y-63309009D01*
X109301209Y-63309009D02*
X109348828Y-63213771D01*
X109348828Y-63213771D02*
X109444066Y-63166152D01*
X109444066Y-63166152D02*
X109586923Y-63166152D01*
X109586923Y-63166152D02*
X109682161Y-63213771D01*
X110110733Y-63785200D02*
X110205971Y-63832819D01*
X110205971Y-63832819D02*
X110396447Y-63832819D01*
X110396447Y-63832819D02*
X110491685Y-63785200D01*
X110491685Y-63785200D02*
X110539304Y-63689961D01*
X110539304Y-63689961D02*
X110539304Y-63642342D01*
X110539304Y-63642342D02*
X110491685Y-63547104D01*
X110491685Y-63547104D02*
X110396447Y-63499485D01*
X110396447Y-63499485D02*
X110253590Y-63499485D01*
X110253590Y-63499485D02*
X110158352Y-63451866D01*
X110158352Y-63451866D02*
X110110733Y-63356628D01*
X110110733Y-63356628D02*
X110110733Y-63309009D01*
X110110733Y-63309009D02*
X110158352Y-63213771D01*
X110158352Y-63213771D02*
X110253590Y-63166152D01*
X110253590Y-63166152D02*
X110396447Y-63166152D01*
X110396447Y-63166152D02*
X110491685Y-63213771D01*
X111586924Y-63166152D02*
X111967876Y-63166152D01*
X111729781Y-63832819D02*
X111729781Y-62975676D01*
X111729781Y-62975676D02*
X111777400Y-62880438D01*
X111777400Y-62880438D02*
X111872638Y-62832819D01*
X111872638Y-62832819D02*
X111967876Y-62832819D01*
X112301210Y-63832819D02*
X112301210Y-63166152D01*
X112301210Y-62832819D02*
X112253591Y-62880438D01*
X112253591Y-62880438D02*
X112301210Y-62928057D01*
X112301210Y-62928057D02*
X112348829Y-62880438D01*
X112348829Y-62880438D02*
X112301210Y-62832819D01*
X112301210Y-62832819D02*
X112301210Y-62928057D01*
X112920257Y-63832819D02*
X112825019Y-63785200D01*
X112825019Y-63785200D02*
X112777400Y-63689961D01*
X112777400Y-63689961D02*
X112777400Y-62832819D01*
X113158353Y-63166152D02*
X113539305Y-63166152D01*
X113301210Y-62832819D02*
X113301210Y-63689961D01*
X113301210Y-63689961D02*
X113348829Y-63785200D01*
X113348829Y-63785200D02*
X113444067Y-63832819D01*
X113444067Y-63832819D02*
X113539305Y-63832819D01*
X114253591Y-63785200D02*
X114158353Y-63832819D01*
X114158353Y-63832819D02*
X113967877Y-63832819D01*
X113967877Y-63832819D02*
X113872639Y-63785200D01*
X113872639Y-63785200D02*
X113825020Y-63689961D01*
X113825020Y-63689961D02*
X113825020Y-63309009D01*
X113825020Y-63309009D02*
X113872639Y-63213771D01*
X113872639Y-63213771D02*
X113967877Y-63166152D01*
X113967877Y-63166152D02*
X114158353Y-63166152D01*
X114158353Y-63166152D02*
X114253591Y-63213771D01*
X114253591Y-63213771D02*
X114301210Y-63309009D01*
X114301210Y-63309009D02*
X114301210Y-63404247D01*
X114301210Y-63404247D02*
X113825020Y-63499485D01*
X114729782Y-63832819D02*
X114729782Y-63166152D01*
X114729782Y-63356628D02*
X114777401Y-63261390D01*
X114777401Y-63261390D02*
X114825020Y-63213771D01*
X114825020Y-63213771D02*
X114920258Y-63166152D01*
X114920258Y-63166152D02*
X115015496Y-63166152D01*
X96634541Y-66386152D02*
X96872636Y-67052819D01*
X96872636Y-67052819D02*
X97110731Y-66386152D01*
X98015493Y-67052819D02*
X97444065Y-67052819D01*
X97729779Y-67052819D02*
X97729779Y-66052819D01*
X97729779Y-66052819D02*
X97634541Y-66195676D01*
X97634541Y-66195676D02*
X97539303Y-66290914D01*
X97539303Y-66290914D02*
X97444065Y-66338533D01*
X98444065Y-66957580D02*
X98491684Y-67005200D01*
X98491684Y-67005200D02*
X98444065Y-67052819D01*
X98444065Y-67052819D02*
X98396446Y-67005200D01*
X98396446Y-67005200D02*
X98444065Y-66957580D01*
X98444065Y-66957580D02*
X98444065Y-67052819D01*
X99110731Y-66052819D02*
X99205969Y-66052819D01*
X99205969Y-66052819D02*
X99301207Y-66100438D01*
X99301207Y-66100438D02*
X99348826Y-66148057D01*
X99348826Y-66148057D02*
X99396445Y-66243295D01*
X99396445Y-66243295D02*
X99444064Y-66433771D01*
X99444064Y-66433771D02*
X99444064Y-66671866D01*
X99444064Y-66671866D02*
X99396445Y-66862342D01*
X99396445Y-66862342D02*
X99348826Y-66957580D01*
X99348826Y-66957580D02*
X99301207Y-67005200D01*
X99301207Y-67005200D02*
X99205969Y-67052819D01*
X99205969Y-67052819D02*
X99110731Y-67052819D01*
X99110731Y-67052819D02*
X99015493Y-67005200D01*
X99015493Y-67005200D02*
X98967874Y-66957580D01*
X98967874Y-66957580D02*
X98920255Y-66862342D01*
X98920255Y-66862342D02*
X98872636Y-66671866D01*
X98872636Y-66671866D02*
X98872636Y-66433771D01*
X98872636Y-66433771D02*
X98920255Y-66243295D01*
X98920255Y-66243295D02*
X98967874Y-66148057D01*
X98967874Y-66148057D02*
X99015493Y-66100438D01*
X99015493Y-66100438D02*
X99110731Y-66052819D01*
X101205969Y-66957580D02*
X101158350Y-67005200D01*
X101158350Y-67005200D02*
X101015493Y-67052819D01*
X101015493Y-67052819D02*
X100920255Y-67052819D01*
X100920255Y-67052819D02*
X100777398Y-67005200D01*
X100777398Y-67005200D02*
X100682160Y-66909961D01*
X100682160Y-66909961D02*
X100634541Y-66814723D01*
X100634541Y-66814723D02*
X100586922Y-66624247D01*
X100586922Y-66624247D02*
X100586922Y-66481390D01*
X100586922Y-66481390D02*
X100634541Y-66290914D01*
X100634541Y-66290914D02*
X100682160Y-66195676D01*
X100682160Y-66195676D02*
X100777398Y-66100438D01*
X100777398Y-66100438D02*
X100920255Y-66052819D01*
X100920255Y-66052819D02*
X101015493Y-66052819D01*
X101015493Y-66052819D02*
X101158350Y-66100438D01*
X101158350Y-66100438D02*
X101205969Y-66148057D01*
X101777398Y-67052819D02*
X101682160Y-67005200D01*
X101682160Y-67005200D02*
X101634541Y-66957580D01*
X101634541Y-66957580D02*
X101586922Y-66862342D01*
X101586922Y-66862342D02*
X101586922Y-66576628D01*
X101586922Y-66576628D02*
X101634541Y-66481390D01*
X101634541Y-66481390D02*
X101682160Y-66433771D01*
X101682160Y-66433771D02*
X101777398Y-66386152D01*
X101777398Y-66386152D02*
X101920255Y-66386152D01*
X101920255Y-66386152D02*
X102015493Y-66433771D01*
X102015493Y-66433771D02*
X102063112Y-66481390D01*
X102063112Y-66481390D02*
X102110731Y-66576628D01*
X102110731Y-66576628D02*
X102110731Y-66862342D01*
X102110731Y-66862342D02*
X102063112Y-66957580D01*
X102063112Y-66957580D02*
X102015493Y-67005200D01*
X102015493Y-67005200D02*
X101920255Y-67052819D01*
X101920255Y-67052819D02*
X101777398Y-67052819D01*
X102539303Y-66386152D02*
X102539303Y-67386152D01*
X102539303Y-66433771D02*
X102634541Y-66386152D01*
X102634541Y-66386152D02*
X102825017Y-66386152D01*
X102825017Y-66386152D02*
X102920255Y-66433771D01*
X102920255Y-66433771D02*
X102967874Y-66481390D01*
X102967874Y-66481390D02*
X103015493Y-66576628D01*
X103015493Y-66576628D02*
X103015493Y-66862342D01*
X103015493Y-66862342D02*
X102967874Y-66957580D01*
X102967874Y-66957580D02*
X102920255Y-67005200D01*
X102920255Y-67005200D02*
X102825017Y-67052819D01*
X102825017Y-67052819D02*
X102634541Y-67052819D01*
X102634541Y-67052819D02*
X102539303Y-67005200D01*
X103348827Y-66386152D02*
X103586922Y-67052819D01*
X103825017Y-66386152D02*
X103586922Y-67052819D01*
X103586922Y-67052819D02*
X103491684Y-67290914D01*
X103491684Y-67290914D02*
X103444065Y-67338533D01*
X103444065Y-67338533D02*
X103348827Y-67386152D01*
X104205970Y-67052819D02*
X104205970Y-66386152D01*
X104205970Y-66576628D02*
X104253589Y-66481390D01*
X104253589Y-66481390D02*
X104301208Y-66433771D01*
X104301208Y-66433771D02*
X104396446Y-66386152D01*
X104396446Y-66386152D02*
X104491684Y-66386152D01*
X104825018Y-67052819D02*
X104825018Y-66386152D01*
X104825018Y-66052819D02*
X104777399Y-66100438D01*
X104777399Y-66100438D02*
X104825018Y-66148057D01*
X104825018Y-66148057D02*
X104872637Y-66100438D01*
X104872637Y-66100438D02*
X104825018Y-66052819D01*
X104825018Y-66052819D02*
X104825018Y-66148057D01*
X105729779Y-66386152D02*
X105729779Y-67195676D01*
X105729779Y-67195676D02*
X105682160Y-67290914D01*
X105682160Y-67290914D02*
X105634541Y-67338533D01*
X105634541Y-67338533D02*
X105539303Y-67386152D01*
X105539303Y-67386152D02*
X105396446Y-67386152D01*
X105396446Y-67386152D02*
X105301208Y-67338533D01*
X105729779Y-67005200D02*
X105634541Y-67052819D01*
X105634541Y-67052819D02*
X105444065Y-67052819D01*
X105444065Y-67052819D02*
X105348827Y-67005200D01*
X105348827Y-67005200D02*
X105301208Y-66957580D01*
X105301208Y-66957580D02*
X105253589Y-66862342D01*
X105253589Y-66862342D02*
X105253589Y-66576628D01*
X105253589Y-66576628D02*
X105301208Y-66481390D01*
X105301208Y-66481390D02*
X105348827Y-66433771D01*
X105348827Y-66433771D02*
X105444065Y-66386152D01*
X105444065Y-66386152D02*
X105634541Y-66386152D01*
X105634541Y-66386152D02*
X105729779Y-66433771D01*
X106205970Y-67052819D02*
X106205970Y-66052819D01*
X106634541Y-67052819D02*
X106634541Y-66529009D01*
X106634541Y-66529009D02*
X106586922Y-66433771D01*
X106586922Y-66433771D02*
X106491684Y-66386152D01*
X106491684Y-66386152D02*
X106348827Y-66386152D01*
X106348827Y-66386152D02*
X106253589Y-66433771D01*
X106253589Y-66433771D02*
X106205970Y-66481390D01*
X106967875Y-66386152D02*
X107348827Y-66386152D01*
X107110732Y-66052819D02*
X107110732Y-66909961D01*
X107110732Y-66909961D02*
X107158351Y-67005200D01*
X107158351Y-67005200D02*
X107253589Y-67052819D01*
X107253589Y-67052819D02*
X107348827Y-67052819D01*
X109253590Y-66290914D02*
X109158351Y-66243295D01*
X109158351Y-66243295D02*
X108967875Y-66243295D01*
X108967875Y-66243295D02*
X108872637Y-66290914D01*
X108872637Y-66290914D02*
X108777399Y-66386152D01*
X108777399Y-66386152D02*
X108729780Y-66481390D01*
X108729780Y-66481390D02*
X108729780Y-66671866D01*
X108729780Y-66671866D02*
X108777399Y-66767104D01*
X108777399Y-66767104D02*
X108872637Y-66862342D01*
X108872637Y-66862342D02*
X108967875Y-66909961D01*
X108967875Y-66909961D02*
X109158351Y-66909961D01*
X109158351Y-66909961D02*
X109253590Y-66862342D01*
X109063113Y-65909961D02*
X108825018Y-65957580D01*
X108825018Y-65957580D02*
X108586923Y-66100438D01*
X108586923Y-66100438D02*
X108444066Y-66338533D01*
X108444066Y-66338533D02*
X108396447Y-66576628D01*
X108396447Y-66576628D02*
X108444066Y-66814723D01*
X108444066Y-66814723D02*
X108586923Y-67052819D01*
X108586923Y-67052819D02*
X108825018Y-67195676D01*
X108825018Y-67195676D02*
X109063113Y-67243295D01*
X109063113Y-67243295D02*
X109301209Y-67195676D01*
X109301209Y-67195676D02*
X109539304Y-67052819D01*
X109539304Y-67052819D02*
X109682161Y-66814723D01*
X109682161Y-66814723D02*
X109729780Y-66576628D01*
X109729780Y-66576628D02*
X109682161Y-66338533D01*
X109682161Y-66338533D02*
X109539304Y-66100438D01*
X109539304Y-66100438D02*
X109301209Y-65957580D01*
X109301209Y-65957580D02*
X109063113Y-65909961D01*
X110872638Y-66148057D02*
X110920257Y-66100438D01*
X110920257Y-66100438D02*
X111015495Y-66052819D01*
X111015495Y-66052819D02*
X111253590Y-66052819D01*
X111253590Y-66052819D02*
X111348828Y-66100438D01*
X111348828Y-66100438D02*
X111396447Y-66148057D01*
X111396447Y-66148057D02*
X111444066Y-66243295D01*
X111444066Y-66243295D02*
X111444066Y-66338533D01*
X111444066Y-66338533D02*
X111396447Y-66481390D01*
X111396447Y-66481390D02*
X110825019Y-67052819D01*
X110825019Y-67052819D02*
X111444066Y-67052819D01*
X112063114Y-66052819D02*
X112158352Y-66052819D01*
X112158352Y-66052819D02*
X112253590Y-66100438D01*
X112253590Y-66100438D02*
X112301209Y-66148057D01*
X112301209Y-66148057D02*
X112348828Y-66243295D01*
X112348828Y-66243295D02*
X112396447Y-66433771D01*
X112396447Y-66433771D02*
X112396447Y-66671866D01*
X112396447Y-66671866D02*
X112348828Y-66862342D01*
X112348828Y-66862342D02*
X112301209Y-66957580D01*
X112301209Y-66957580D02*
X112253590Y-67005200D01*
X112253590Y-67005200D02*
X112158352Y-67052819D01*
X112158352Y-67052819D02*
X112063114Y-67052819D01*
X112063114Y-67052819D02*
X111967876Y-67005200D01*
X111967876Y-67005200D02*
X111920257Y-66957580D01*
X111920257Y-66957580D02*
X111872638Y-66862342D01*
X111872638Y-66862342D02*
X111825019Y-66671866D01*
X111825019Y-66671866D02*
X111825019Y-66433771D01*
X111825019Y-66433771D02*
X111872638Y-66243295D01*
X111872638Y-66243295D02*
X111920257Y-66148057D01*
X111920257Y-66148057D02*
X111967876Y-66100438D01*
X111967876Y-66100438D02*
X112063114Y-66052819D01*
X112777400Y-66148057D02*
X112825019Y-66100438D01*
X112825019Y-66100438D02*
X112920257Y-66052819D01*
X112920257Y-66052819D02*
X113158352Y-66052819D01*
X113158352Y-66052819D02*
X113253590Y-66100438D01*
X113253590Y-66100438D02*
X113301209Y-66148057D01*
X113301209Y-66148057D02*
X113348828Y-66243295D01*
X113348828Y-66243295D02*
X113348828Y-66338533D01*
X113348828Y-66338533D02*
X113301209Y-66481390D01*
X113301209Y-66481390D02*
X112729781Y-67052819D01*
X112729781Y-67052819D02*
X113348828Y-67052819D01*
X113682162Y-66052819D02*
X114301209Y-66052819D01*
X114301209Y-66052819D02*
X113967876Y-66433771D01*
X113967876Y-66433771D02*
X114110733Y-66433771D01*
X114110733Y-66433771D02*
X114205971Y-66481390D01*
X114205971Y-66481390D02*
X114253590Y-66529009D01*
X114253590Y-66529009D02*
X114301209Y-66624247D01*
X114301209Y-66624247D02*
X114301209Y-66862342D01*
X114301209Y-66862342D02*
X114253590Y-66957580D01*
X114253590Y-66957580D02*
X114205971Y-67005200D01*
X114205971Y-67005200D02*
X114110733Y-67052819D01*
X114110733Y-67052819D02*
X113825019Y-67052819D01*
X113825019Y-67052819D02*
X113729781Y-67005200D01*
X113729781Y-67005200D02*
X113682162Y-66957580D01*
X115396448Y-66052819D02*
X115634543Y-67052819D01*
X115634543Y-67052819D02*
X115825019Y-66338533D01*
X115825019Y-66338533D02*
X116015495Y-67052819D01*
X116015495Y-67052819D02*
X116253591Y-66052819D01*
X116586924Y-66767104D02*
X117063114Y-66767104D01*
X116491686Y-67052819D02*
X116825019Y-66052819D01*
X116825019Y-66052819D02*
X117158352Y-67052819D01*
X117396448Y-66052819D02*
X118063114Y-66052819D01*
X118063114Y-66052819D02*
X117634543Y-67052819D01*
X118967876Y-66100438D02*
X118872638Y-66052819D01*
X118872638Y-66052819D02*
X118729781Y-66052819D01*
X118729781Y-66052819D02*
X118586924Y-66100438D01*
X118586924Y-66100438D02*
X118491686Y-66195676D01*
X118491686Y-66195676D02*
X118444067Y-66290914D01*
X118444067Y-66290914D02*
X118396448Y-66481390D01*
X118396448Y-66481390D02*
X118396448Y-66624247D01*
X118396448Y-66624247D02*
X118444067Y-66814723D01*
X118444067Y-66814723D02*
X118491686Y-66909961D01*
X118491686Y-66909961D02*
X118586924Y-67005200D01*
X118586924Y-67005200D02*
X118729781Y-67052819D01*
X118729781Y-67052819D02*
X118825019Y-67052819D01*
X118825019Y-67052819D02*
X118967876Y-67005200D01*
X118967876Y-67005200D02*
X119015495Y-66957580D01*
X119015495Y-66957580D02*
X119015495Y-66624247D01*
X119015495Y-66624247D02*
X118825019Y-66624247D01*
X119444067Y-67052819D02*
X119444067Y-66052819D01*
X120396447Y-67052819D02*
X119920257Y-67052819D01*
X119920257Y-67052819D02*
X119920257Y-66052819D01*
X124380788Y-67967219D02*
X123809360Y-67967219D01*
X124095074Y-67967219D02*
X124095074Y-66967219D01*
X124095074Y-66967219D02*
X123999836Y-67110076D01*
X123999836Y-67110076D02*
X123904598Y-67205314D01*
X123904598Y-67205314D02*
X123809360Y-67252933D01*
X124761741Y-67062457D02*
X124809360Y-67014838D01*
X124809360Y-67014838D02*
X124904598Y-66967219D01*
X124904598Y-66967219D02*
X125142693Y-66967219D01*
X125142693Y-66967219D02*
X125237931Y-67014838D01*
X125237931Y-67014838D02*
X125285550Y-67062457D01*
X125285550Y-67062457D02*
X125333169Y-67157695D01*
X125333169Y-67157695D02*
X125333169Y-67252933D01*
X125333169Y-67252933D02*
X125285550Y-67395790D01*
X125285550Y-67395790D02*
X124714122Y-67967219D01*
X124714122Y-67967219D02*
X125333169Y-67967219D01*
X127047455Y-67014838D02*
X126952217Y-66967219D01*
X126952217Y-66967219D02*
X126809360Y-66967219D01*
X126809360Y-66967219D02*
X126666503Y-67014838D01*
X126666503Y-67014838D02*
X126571265Y-67110076D01*
X126571265Y-67110076D02*
X126523646Y-67205314D01*
X126523646Y-67205314D02*
X126476027Y-67395790D01*
X126476027Y-67395790D02*
X126476027Y-67538647D01*
X126476027Y-67538647D02*
X126523646Y-67729123D01*
X126523646Y-67729123D02*
X126571265Y-67824361D01*
X126571265Y-67824361D02*
X126666503Y-67919600D01*
X126666503Y-67919600D02*
X126809360Y-67967219D01*
X126809360Y-67967219D02*
X126904598Y-67967219D01*
X126904598Y-67967219D02*
X127047455Y-67919600D01*
X127047455Y-67919600D02*
X127095074Y-67871980D01*
X127095074Y-67871980D02*
X127095074Y-67538647D01*
X127095074Y-67538647D02*
X126904598Y-67538647D01*
X127523646Y-67967219D02*
X127523646Y-66967219D01*
X127523646Y-66967219D02*
X127761741Y-66967219D01*
X127761741Y-66967219D02*
X127904598Y-67014838D01*
X127904598Y-67014838D02*
X127999836Y-67110076D01*
X127999836Y-67110076D02*
X128047455Y-67205314D01*
X128047455Y-67205314D02*
X128095074Y-67395790D01*
X128095074Y-67395790D02*
X128095074Y-67538647D01*
X128095074Y-67538647D02*
X128047455Y-67729123D01*
X128047455Y-67729123D02*
X127999836Y-67824361D01*
X127999836Y-67824361D02*
X127904598Y-67919600D01*
X127904598Y-67919600D02*
X127761741Y-67967219D01*
X127761741Y-67967219D02*
X127523646Y-67967219D01*
X129285551Y-67967219D02*
X129285551Y-66967219D01*
X129285551Y-66967219D02*
X129666503Y-66967219D01*
X129666503Y-66967219D02*
X129761741Y-67014838D01*
X129761741Y-67014838D02*
X129809360Y-67062457D01*
X129809360Y-67062457D02*
X129856979Y-67157695D01*
X129856979Y-67157695D02*
X129856979Y-67300552D01*
X129856979Y-67300552D02*
X129809360Y-67395790D01*
X129809360Y-67395790D02*
X129761741Y-67443409D01*
X129761741Y-67443409D02*
X129666503Y-67491028D01*
X129666503Y-67491028D02*
X129285551Y-67491028D01*
X130190313Y-66967219D02*
X130809360Y-66967219D01*
X130809360Y-66967219D02*
X130476027Y-67348171D01*
X130476027Y-67348171D02*
X130618884Y-67348171D01*
X130618884Y-67348171D02*
X130714122Y-67395790D01*
X130714122Y-67395790D02*
X130761741Y-67443409D01*
X130761741Y-67443409D02*
X130809360Y-67538647D01*
X130809360Y-67538647D02*
X130809360Y-67776742D01*
X130809360Y-67776742D02*
X130761741Y-67871980D01*
X130761741Y-67871980D02*
X130714122Y-67919600D01*
X130714122Y-67919600D02*
X130618884Y-67967219D01*
X130618884Y-67967219D02*
X130333170Y-67967219D01*
X130333170Y-67967219D02*
X130237932Y-67919600D01*
X130237932Y-67919600D02*
X130190313Y-67871980D01*
X131999837Y-67967219D02*
X131999837Y-66967219D01*
X131999837Y-66967219D02*
X132380789Y-66967219D01*
X132380789Y-66967219D02*
X132476027Y-67014838D01*
X132476027Y-67014838D02*
X132523646Y-67062457D01*
X132523646Y-67062457D02*
X132571265Y-67157695D01*
X132571265Y-67157695D02*
X132571265Y-67300552D01*
X132571265Y-67300552D02*
X132523646Y-67395790D01*
X132523646Y-67395790D02*
X132476027Y-67443409D01*
X132476027Y-67443409D02*
X132380789Y-67491028D01*
X132380789Y-67491028D02*
X131999837Y-67491028D01*
X132952218Y-67062457D02*
X132999837Y-67014838D01*
X132999837Y-67014838D02*
X133095075Y-66967219D01*
X133095075Y-66967219D02*
X133333170Y-66967219D01*
X133333170Y-66967219D02*
X133428408Y-67014838D01*
X133428408Y-67014838D02*
X133476027Y-67062457D01*
X133476027Y-67062457D02*
X133523646Y-67157695D01*
X133523646Y-67157695D02*
X133523646Y-67252933D01*
X133523646Y-67252933D02*
X133476027Y-67395790D01*
X133476027Y-67395790D02*
X132904599Y-67967219D01*
X132904599Y-67967219D02*
X133523646Y-67967219D01*
X134714123Y-67967219D02*
X134714123Y-66967219D01*
X134714123Y-66967219D02*
X135095075Y-66967219D01*
X135095075Y-66967219D02*
X135190313Y-67014838D01*
X135190313Y-67014838D02*
X135237932Y-67062457D01*
X135237932Y-67062457D02*
X135285551Y-67157695D01*
X135285551Y-67157695D02*
X135285551Y-67300552D01*
X135285551Y-67300552D02*
X135237932Y-67395790D01*
X135237932Y-67395790D02*
X135190313Y-67443409D01*
X135190313Y-67443409D02*
X135095075Y-67491028D01*
X135095075Y-67491028D02*
X134714123Y-67491028D01*
X136237932Y-67967219D02*
X135666504Y-67967219D01*
X135952218Y-67967219D02*
X135952218Y-66967219D01*
X135952218Y-66967219D02*
X135856980Y-67110076D01*
X135856980Y-67110076D02*
X135761742Y-67205314D01*
X135761742Y-67205314D02*
X135666504Y-67252933D01*
X144573666Y-122974819D02*
X144573666Y-123689104D01*
X144573666Y-123689104D02*
X144526047Y-123831961D01*
X144526047Y-123831961D02*
X144430809Y-123927200D01*
X144430809Y-123927200D02*
X144287952Y-123974819D01*
X144287952Y-123974819D02*
X144192714Y-123974819D01*
X145002238Y-123070057D02*
X145049857Y-123022438D01*
X145049857Y-123022438D02*
X145145095Y-122974819D01*
X145145095Y-122974819D02*
X145383190Y-122974819D01*
X145383190Y-122974819D02*
X145478428Y-123022438D01*
X145478428Y-123022438D02*
X145526047Y-123070057D01*
X145526047Y-123070057D02*
X145573666Y-123165295D01*
X145573666Y-123165295D02*
X145573666Y-123260533D01*
X145573666Y-123260533D02*
X145526047Y-123403390D01*
X145526047Y-123403390D02*
X144954619Y-123974819D01*
X144954619Y-123974819D02*
X145573666Y-123974819D01*
X90035238Y-74651009D02*
X89701905Y-74651009D01*
X89701905Y-75174819D02*
X89701905Y-74174819D01*
X89701905Y-74174819D02*
X90178095Y-74174819D01*
X90987619Y-74508152D02*
X90987619Y-75174819D01*
X90749524Y-74127200D02*
X90511429Y-74841485D01*
X90511429Y-74841485D02*
X91130476Y-74841485D01*
X92273334Y-75174819D02*
X92273334Y-74508152D01*
X92273334Y-74174819D02*
X92225715Y-74222438D01*
X92225715Y-74222438D02*
X92273334Y-74270057D01*
X92273334Y-74270057D02*
X92320953Y-74222438D01*
X92320953Y-74222438D02*
X92273334Y-74174819D01*
X92273334Y-74174819D02*
X92273334Y-74270057D01*
X92749524Y-74508152D02*
X92749524Y-75174819D01*
X92749524Y-74603390D02*
X92797143Y-74555771D01*
X92797143Y-74555771D02*
X92892381Y-74508152D01*
X92892381Y-74508152D02*
X93035238Y-74508152D01*
X93035238Y-74508152D02*
X93130476Y-74555771D01*
X93130476Y-74555771D02*
X93178095Y-74651009D01*
X93178095Y-74651009D02*
X93178095Y-75174819D01*
X90035238Y-106824309D02*
X89701905Y-106824309D01*
X89701905Y-107348119D02*
X89701905Y-106348119D01*
X89701905Y-106348119D02*
X90178095Y-106348119D01*
X90511429Y-106443357D02*
X90559048Y-106395738D01*
X90559048Y-106395738D02*
X90654286Y-106348119D01*
X90654286Y-106348119D02*
X90892381Y-106348119D01*
X90892381Y-106348119D02*
X90987619Y-106395738D01*
X90987619Y-106395738D02*
X91035238Y-106443357D01*
X91035238Y-106443357D02*
X91082857Y-106538595D01*
X91082857Y-106538595D02*
X91082857Y-106633833D01*
X91082857Y-106633833D02*
X91035238Y-106776690D01*
X91035238Y-106776690D02*
X90463810Y-107348119D01*
X90463810Y-107348119D02*
X91082857Y-107348119D01*
X92273334Y-107348119D02*
X92273334Y-106681452D01*
X92273334Y-106348119D02*
X92225715Y-106395738D01*
X92225715Y-106395738D02*
X92273334Y-106443357D01*
X92273334Y-106443357D02*
X92320953Y-106395738D01*
X92320953Y-106395738D02*
X92273334Y-106348119D01*
X92273334Y-106348119D02*
X92273334Y-106443357D01*
X92749524Y-106681452D02*
X92749524Y-107348119D01*
X92749524Y-106776690D02*
X92797143Y-106729071D01*
X92797143Y-106729071D02*
X92892381Y-106681452D01*
X92892381Y-106681452D02*
X93035238Y-106681452D01*
X93035238Y-106681452D02*
X93130476Y-106729071D01*
X93130476Y-106729071D02*
X93178095Y-106824309D01*
X93178095Y-106824309D02*
X93178095Y-107348119D01*
X135392023Y-85284819D02*
X134820595Y-85284819D01*
X135106309Y-85284819D02*
X135106309Y-84284819D01*
X135106309Y-84284819D02*
X135011071Y-84427676D01*
X135011071Y-84427676D02*
X134915833Y-84522914D01*
X134915833Y-84522914D02*
X134820595Y-84570533D01*
X136011071Y-84284819D02*
X136106309Y-84284819D01*
X136106309Y-84284819D02*
X136201547Y-84332438D01*
X136201547Y-84332438D02*
X136249166Y-84380057D01*
X136249166Y-84380057D02*
X136296785Y-84475295D01*
X136296785Y-84475295D02*
X136344404Y-84665771D01*
X136344404Y-84665771D02*
X136344404Y-84903866D01*
X136344404Y-84903866D02*
X136296785Y-85094342D01*
X136296785Y-85094342D02*
X136249166Y-85189580D01*
X136249166Y-85189580D02*
X136201547Y-85237200D01*
X136201547Y-85237200D02*
X136106309Y-85284819D01*
X136106309Y-85284819D02*
X136011071Y-85284819D01*
X136011071Y-85284819D02*
X135915833Y-85237200D01*
X135915833Y-85237200D02*
X135868214Y-85189580D01*
X135868214Y-85189580D02*
X135820595Y-85094342D01*
X135820595Y-85094342D02*
X135772976Y-84903866D01*
X135772976Y-84903866D02*
X135772976Y-84665771D01*
X135772976Y-84665771D02*
X135820595Y-84475295D01*
X135820595Y-84475295D02*
X135868214Y-84380057D01*
X135868214Y-84380057D02*
X135915833Y-84332438D01*
X135915833Y-84332438D02*
X136011071Y-84284819D01*
X136772976Y-85284819D02*
X136772976Y-84284819D01*
X137344404Y-85284819D02*
X136915833Y-84713390D01*
X137344404Y-84284819D02*
X136772976Y-84856247D01*
X122166190Y-93508152D02*
X122166190Y-94174819D01*
X121928095Y-93127200D02*
X121690000Y-93841485D01*
X121690000Y-93841485D02*
X122309047Y-93841485D01*
X122690000Y-94079580D02*
X122737619Y-94127200D01*
X122737619Y-94127200D02*
X122690000Y-94174819D01*
X122690000Y-94174819D02*
X122642381Y-94127200D01*
X122642381Y-94127200D02*
X122690000Y-94079580D01*
X122690000Y-94079580D02*
X122690000Y-94174819D01*
X123070952Y-93174819D02*
X123737618Y-93174819D01*
X123737618Y-93174819D02*
X123309047Y-94174819D01*
X124118571Y-94174819D02*
X124118571Y-93174819D01*
X124689999Y-94174819D02*
X124261428Y-93603390D01*
X124689999Y-93174819D02*
X124118571Y-93746247D01*
X113427142Y-81114819D02*
X112855714Y-81114819D01*
X113141428Y-81114819D02*
X113141428Y-80114819D01*
X113141428Y-80114819D02*
X113046190Y-80257676D01*
X113046190Y-80257676D02*
X112950952Y-80352914D01*
X112950952Y-80352914D02*
X112855714Y-80400533D01*
X113855714Y-81114819D02*
X113855714Y-80114819D01*
X113855714Y-80114819D02*
X114427142Y-81114819D01*
X114427142Y-81114819D02*
X114427142Y-80114819D01*
X115331904Y-80448152D02*
X115331904Y-81114819D01*
X115093809Y-80067200D02*
X114855714Y-80781485D01*
X114855714Y-80781485D02*
X115474761Y-80781485D01*
X116379523Y-81114819D02*
X115808095Y-81114819D01*
X116093809Y-81114819D02*
X116093809Y-80114819D01*
X116093809Y-80114819D02*
X115998571Y-80257676D01*
X115998571Y-80257676D02*
X115903333Y-80352914D01*
X115903333Y-80352914D02*
X115808095Y-80400533D01*
X117236666Y-80448152D02*
X117236666Y-81114819D01*
X116998571Y-80067200D02*
X116760476Y-80781485D01*
X116760476Y-80781485D02*
X117379523Y-80781485D01*
X117903333Y-80543390D02*
X117808095Y-80495771D01*
X117808095Y-80495771D02*
X117760476Y-80448152D01*
X117760476Y-80448152D02*
X117712857Y-80352914D01*
X117712857Y-80352914D02*
X117712857Y-80305295D01*
X117712857Y-80305295D02*
X117760476Y-80210057D01*
X117760476Y-80210057D02*
X117808095Y-80162438D01*
X117808095Y-80162438D02*
X117903333Y-80114819D01*
X117903333Y-80114819D02*
X118093809Y-80114819D01*
X118093809Y-80114819D02*
X118189047Y-80162438D01*
X118189047Y-80162438D02*
X118236666Y-80210057D01*
X118236666Y-80210057D02*
X118284285Y-80305295D01*
X118284285Y-80305295D02*
X118284285Y-80352914D01*
X118284285Y-80352914D02*
X118236666Y-80448152D01*
X118236666Y-80448152D02*
X118189047Y-80495771D01*
X118189047Y-80495771D02*
X118093809Y-80543390D01*
X118093809Y-80543390D02*
X117903333Y-80543390D01*
X117903333Y-80543390D02*
X117808095Y-80591009D01*
X117808095Y-80591009D02*
X117760476Y-80638628D01*
X117760476Y-80638628D02*
X117712857Y-80733866D01*
X117712857Y-80733866D02*
X117712857Y-80924342D01*
X117712857Y-80924342D02*
X117760476Y-81019580D01*
X117760476Y-81019580D02*
X117808095Y-81067200D01*
X117808095Y-81067200D02*
X117903333Y-81114819D01*
X117903333Y-81114819D02*
X118093809Y-81114819D01*
X118093809Y-81114819D02*
X118189047Y-81067200D01*
X118189047Y-81067200D02*
X118236666Y-81019580D01*
X118236666Y-81019580D02*
X118284285Y-80924342D01*
X118284285Y-80924342D02*
X118284285Y-80733866D01*
X118284285Y-80733866D02*
X118236666Y-80638628D01*
X118236666Y-80638628D02*
X118189047Y-80591009D01*
X118189047Y-80591009D02*
X118093809Y-80543390D01*
X113401742Y-74775219D02*
X112830314Y-74775219D01*
X113116028Y-74775219D02*
X113116028Y-73775219D01*
X113116028Y-73775219D02*
X113020790Y-73918076D01*
X113020790Y-73918076D02*
X112925552Y-74013314D01*
X112925552Y-74013314D02*
X112830314Y-74060933D01*
X113830314Y-74775219D02*
X113830314Y-73775219D01*
X113830314Y-73775219D02*
X114401742Y-74775219D01*
X114401742Y-74775219D02*
X114401742Y-73775219D01*
X115306504Y-74108552D02*
X115306504Y-74775219D01*
X115068409Y-73727600D02*
X114830314Y-74441885D01*
X114830314Y-74441885D02*
X115449361Y-74441885D01*
X116354123Y-74775219D02*
X115782695Y-74775219D01*
X116068409Y-74775219D02*
X116068409Y-73775219D01*
X116068409Y-73775219D02*
X115973171Y-73918076D01*
X115973171Y-73918076D02*
X115877933Y-74013314D01*
X115877933Y-74013314D02*
X115782695Y-74060933D01*
X117211266Y-74108552D02*
X117211266Y-74775219D01*
X116973171Y-73727600D02*
X116735076Y-74441885D01*
X116735076Y-74441885D02*
X117354123Y-74441885D01*
X117877933Y-74203790D02*
X117782695Y-74156171D01*
X117782695Y-74156171D02*
X117735076Y-74108552D01*
X117735076Y-74108552D02*
X117687457Y-74013314D01*
X117687457Y-74013314D02*
X117687457Y-73965695D01*
X117687457Y-73965695D02*
X117735076Y-73870457D01*
X117735076Y-73870457D02*
X117782695Y-73822838D01*
X117782695Y-73822838D02*
X117877933Y-73775219D01*
X117877933Y-73775219D02*
X118068409Y-73775219D01*
X118068409Y-73775219D02*
X118163647Y-73822838D01*
X118163647Y-73822838D02*
X118211266Y-73870457D01*
X118211266Y-73870457D02*
X118258885Y-73965695D01*
X118258885Y-73965695D02*
X118258885Y-74013314D01*
X118258885Y-74013314D02*
X118211266Y-74108552D01*
X118211266Y-74108552D02*
X118163647Y-74156171D01*
X118163647Y-74156171D02*
X118068409Y-74203790D01*
X118068409Y-74203790D02*
X117877933Y-74203790D01*
X117877933Y-74203790D02*
X117782695Y-74251409D01*
X117782695Y-74251409D02*
X117735076Y-74299028D01*
X117735076Y-74299028D02*
X117687457Y-74394266D01*
X117687457Y-74394266D02*
X117687457Y-74584742D01*
X117687457Y-74584742D02*
X117735076Y-74679980D01*
X117735076Y-74679980D02*
X117782695Y-74727600D01*
X117782695Y-74727600D02*
X117877933Y-74775219D01*
X117877933Y-74775219D02*
X118068409Y-74775219D01*
X118068409Y-74775219D02*
X118163647Y-74727600D01*
X118163647Y-74727600D02*
X118211266Y-74679980D01*
X118211266Y-74679980D02*
X118258885Y-74584742D01*
X118258885Y-74584742D02*
X118258885Y-74394266D01*
X118258885Y-74394266D02*
X118211266Y-74299028D01*
X118211266Y-74299028D02*
X118163647Y-74251409D01*
X118163647Y-74251409D02*
X118068409Y-74203790D01*
X113297142Y-88344819D02*
X112725714Y-88344819D01*
X113011428Y-88344819D02*
X113011428Y-87344819D01*
X113011428Y-87344819D02*
X112916190Y-87487676D01*
X112916190Y-87487676D02*
X112820952Y-87582914D01*
X112820952Y-87582914D02*
X112725714Y-87630533D01*
X113725714Y-88344819D02*
X113725714Y-87344819D01*
X113725714Y-87344819D02*
X114297142Y-88344819D01*
X114297142Y-88344819D02*
X114297142Y-87344819D01*
X115201904Y-87678152D02*
X115201904Y-88344819D01*
X114963809Y-87297200D02*
X114725714Y-88011485D01*
X114725714Y-88011485D02*
X115344761Y-88011485D01*
X116249523Y-88344819D02*
X115678095Y-88344819D01*
X115963809Y-88344819D02*
X115963809Y-87344819D01*
X115963809Y-87344819D02*
X115868571Y-87487676D01*
X115868571Y-87487676D02*
X115773333Y-87582914D01*
X115773333Y-87582914D02*
X115678095Y-87630533D01*
X117106666Y-87678152D02*
X117106666Y-88344819D01*
X116868571Y-87297200D02*
X116630476Y-88011485D01*
X116630476Y-88011485D02*
X117249523Y-88011485D01*
X117773333Y-87773390D02*
X117678095Y-87725771D01*
X117678095Y-87725771D02*
X117630476Y-87678152D01*
X117630476Y-87678152D02*
X117582857Y-87582914D01*
X117582857Y-87582914D02*
X117582857Y-87535295D01*
X117582857Y-87535295D02*
X117630476Y-87440057D01*
X117630476Y-87440057D02*
X117678095Y-87392438D01*
X117678095Y-87392438D02*
X117773333Y-87344819D01*
X117773333Y-87344819D02*
X117963809Y-87344819D01*
X117963809Y-87344819D02*
X118059047Y-87392438D01*
X118059047Y-87392438D02*
X118106666Y-87440057D01*
X118106666Y-87440057D02*
X118154285Y-87535295D01*
X118154285Y-87535295D02*
X118154285Y-87582914D01*
X118154285Y-87582914D02*
X118106666Y-87678152D01*
X118106666Y-87678152D02*
X118059047Y-87725771D01*
X118059047Y-87725771D02*
X117963809Y-87773390D01*
X117963809Y-87773390D02*
X117773333Y-87773390D01*
X117773333Y-87773390D02*
X117678095Y-87821009D01*
X117678095Y-87821009D02*
X117630476Y-87868628D01*
X117630476Y-87868628D02*
X117582857Y-87963866D01*
X117582857Y-87963866D02*
X117582857Y-88154342D01*
X117582857Y-88154342D02*
X117630476Y-88249580D01*
X117630476Y-88249580D02*
X117678095Y-88297200D01*
X117678095Y-88297200D02*
X117773333Y-88344819D01*
X117773333Y-88344819D02*
X117963809Y-88344819D01*
X117963809Y-88344819D02*
X118059047Y-88297200D01*
X118059047Y-88297200D02*
X118106666Y-88249580D01*
X118106666Y-88249580D02*
X118154285Y-88154342D01*
X118154285Y-88154342D02*
X118154285Y-87963866D01*
X118154285Y-87963866D02*
X118106666Y-87868628D01*
X118106666Y-87868628D02*
X118059047Y-87821009D01*
X118059047Y-87821009D02*
X117963809Y-87773390D01*
X128843095Y-99109819D02*
X128843095Y-99919342D01*
X128843095Y-99919342D02*
X128890714Y-100014580D01*
X128890714Y-100014580D02*
X128938333Y-100062200D01*
X128938333Y-100062200D02*
X129033571Y-100109819D01*
X129033571Y-100109819D02*
X129224047Y-100109819D01*
X129224047Y-100109819D02*
X129319285Y-100062200D01*
X129319285Y-100062200D02*
X129366904Y-100014580D01*
X129366904Y-100014580D02*
X129414523Y-99919342D01*
X129414523Y-99919342D02*
X129414523Y-99109819D01*
X130414523Y-100109819D02*
X129843095Y-100109819D01*
X130128809Y-100109819D02*
X130128809Y-99109819D01*
X130128809Y-99109819D02*
X130033571Y-99252676D01*
X130033571Y-99252676D02*
X129938333Y-99347914D01*
X129938333Y-99347914D02*
X129843095Y-99395533D01*
X113630342Y-95120619D02*
X113058914Y-95120619D01*
X113344628Y-95120619D02*
X113344628Y-94120619D01*
X113344628Y-94120619D02*
X113249390Y-94263476D01*
X113249390Y-94263476D02*
X113154152Y-94358714D01*
X113154152Y-94358714D02*
X113058914Y-94406333D01*
X114058914Y-95120619D02*
X114058914Y-94120619D01*
X114058914Y-94120619D02*
X114630342Y-95120619D01*
X114630342Y-95120619D02*
X114630342Y-94120619D01*
X115535104Y-94453952D02*
X115535104Y-95120619D01*
X115297009Y-94073000D02*
X115058914Y-94787285D01*
X115058914Y-94787285D02*
X115677961Y-94787285D01*
X116582723Y-95120619D02*
X116011295Y-95120619D01*
X116297009Y-95120619D02*
X116297009Y-94120619D01*
X116297009Y-94120619D02*
X116201771Y-94263476D01*
X116201771Y-94263476D02*
X116106533Y-94358714D01*
X116106533Y-94358714D02*
X116011295Y-94406333D01*
X117439866Y-94453952D02*
X117439866Y-95120619D01*
X117201771Y-94073000D02*
X116963676Y-94787285D01*
X116963676Y-94787285D02*
X117582723Y-94787285D01*
X118106533Y-94549190D02*
X118011295Y-94501571D01*
X118011295Y-94501571D02*
X117963676Y-94453952D01*
X117963676Y-94453952D02*
X117916057Y-94358714D01*
X117916057Y-94358714D02*
X117916057Y-94311095D01*
X117916057Y-94311095D02*
X117963676Y-94215857D01*
X117963676Y-94215857D02*
X118011295Y-94168238D01*
X118011295Y-94168238D02*
X118106533Y-94120619D01*
X118106533Y-94120619D02*
X118297009Y-94120619D01*
X118297009Y-94120619D02*
X118392247Y-94168238D01*
X118392247Y-94168238D02*
X118439866Y-94215857D01*
X118439866Y-94215857D02*
X118487485Y-94311095D01*
X118487485Y-94311095D02*
X118487485Y-94358714D01*
X118487485Y-94358714D02*
X118439866Y-94453952D01*
X118439866Y-94453952D02*
X118392247Y-94501571D01*
X118392247Y-94501571D02*
X118297009Y-94549190D01*
X118297009Y-94549190D02*
X118106533Y-94549190D01*
X118106533Y-94549190D02*
X118011295Y-94596809D01*
X118011295Y-94596809D02*
X117963676Y-94644428D01*
X117963676Y-94644428D02*
X117916057Y-94739666D01*
X117916057Y-94739666D02*
X117916057Y-94930142D01*
X117916057Y-94930142D02*
X117963676Y-95025380D01*
X117963676Y-95025380D02*
X118011295Y-95073000D01*
X118011295Y-95073000D02*
X118106533Y-95120619D01*
X118106533Y-95120619D02*
X118297009Y-95120619D01*
X118297009Y-95120619D02*
X118392247Y-95073000D01*
X118392247Y-95073000D02*
X118439866Y-95025380D01*
X118439866Y-95025380D02*
X118487485Y-94930142D01*
X118487485Y-94930142D02*
X118487485Y-94739666D01*
X118487485Y-94739666D02*
X118439866Y-94644428D01*
X118439866Y-94644428D02*
X118392247Y-94596809D01*
X118392247Y-94596809D02*
X118297009Y-94549190D01*
X119935666Y-122339819D02*
X119935666Y-123054104D01*
X119935666Y-123054104D02*
X119888047Y-123196961D01*
X119888047Y-123196961D02*
X119792809Y-123292200D01*
X119792809Y-123292200D02*
X119649952Y-123339819D01*
X119649952Y-123339819D02*
X119554714Y-123339819D01*
X120935666Y-123339819D02*
X120364238Y-123339819D01*
X120649952Y-123339819D02*
X120649952Y-122339819D01*
X120649952Y-122339819D02*
X120554714Y-122482676D01*
X120554714Y-122482676D02*
X120459476Y-122577914D01*
X120459476Y-122577914D02*
X120364238Y-122625533D01*
X164465237Y-90737709D02*
X164131904Y-90737709D01*
X164131904Y-91261519D02*
X164131904Y-90261519D01*
X164131904Y-90261519D02*
X164608094Y-90261519D01*
X164893809Y-90261519D02*
X165512856Y-90261519D01*
X165512856Y-90261519D02*
X165179523Y-90642471D01*
X165179523Y-90642471D02*
X165322380Y-90642471D01*
X165322380Y-90642471D02*
X165417618Y-90690090D01*
X165417618Y-90690090D02*
X165465237Y-90737709D01*
X165465237Y-90737709D02*
X165512856Y-90832947D01*
X165512856Y-90832947D02*
X165512856Y-91071042D01*
X165512856Y-91071042D02*
X165465237Y-91166280D01*
X165465237Y-91166280D02*
X165417618Y-91213900D01*
X165417618Y-91213900D02*
X165322380Y-91261519D01*
X165322380Y-91261519D02*
X165036666Y-91261519D01*
X165036666Y-91261519D02*
X164941428Y-91213900D01*
X164941428Y-91213900D02*
X164893809Y-91166280D01*
X166846190Y-91261519D02*
X166750952Y-91213900D01*
X166750952Y-91213900D02*
X166703333Y-91166280D01*
X166703333Y-91166280D02*
X166655714Y-91071042D01*
X166655714Y-91071042D02*
X166655714Y-90785328D01*
X166655714Y-90785328D02*
X166703333Y-90690090D01*
X166703333Y-90690090D02*
X166750952Y-90642471D01*
X166750952Y-90642471D02*
X166846190Y-90594852D01*
X166846190Y-90594852D02*
X166989047Y-90594852D01*
X166989047Y-90594852D02*
X167084285Y-90642471D01*
X167084285Y-90642471D02*
X167131904Y-90690090D01*
X167131904Y-90690090D02*
X167179523Y-90785328D01*
X167179523Y-90785328D02*
X167179523Y-91071042D01*
X167179523Y-91071042D02*
X167131904Y-91166280D01*
X167131904Y-91166280D02*
X167084285Y-91213900D01*
X167084285Y-91213900D02*
X166989047Y-91261519D01*
X166989047Y-91261519D02*
X166846190Y-91261519D01*
X168036666Y-90594852D02*
X168036666Y-91261519D01*
X167608095Y-90594852D02*
X167608095Y-91118661D01*
X167608095Y-91118661D02*
X167655714Y-91213900D01*
X167655714Y-91213900D02*
X167750952Y-91261519D01*
X167750952Y-91261519D02*
X167893809Y-91261519D01*
X167893809Y-91261519D02*
X167989047Y-91213900D01*
X167989047Y-91213900D02*
X168036666Y-91166280D01*
X168370000Y-90594852D02*
X168750952Y-90594852D01*
X168512857Y-90261519D02*
X168512857Y-91118661D01*
X168512857Y-91118661D02*
X168560476Y-91213900D01*
X168560476Y-91213900D02*
X168655714Y-91261519D01*
X168655714Y-91261519D02*
X168750952Y-91261519D01*
X121973690Y-84618152D02*
X121973690Y-85284819D01*
X121735595Y-84237200D02*
X121497500Y-84951485D01*
X121497500Y-84951485D02*
X122116547Y-84951485D01*
X122497500Y-85189580D02*
X122545119Y-85237200D01*
X122545119Y-85237200D02*
X122497500Y-85284819D01*
X122497500Y-85284819D02*
X122449881Y-85237200D01*
X122449881Y-85237200D02*
X122497500Y-85189580D01*
X122497500Y-85189580D02*
X122497500Y-85284819D01*
X122878452Y-84284819D02*
X123545118Y-84284819D01*
X123545118Y-84284819D02*
X123116547Y-85284819D01*
X123926071Y-85284819D02*
X123926071Y-84284819D01*
X124497499Y-85284819D02*
X124068928Y-84713390D01*
X124497499Y-84284819D02*
X123926071Y-84856247D01*
X138057190Y-73989819D02*
X138152428Y-73989819D01*
X138152428Y-73989819D02*
X138247666Y-74037438D01*
X138247666Y-74037438D02*
X138295285Y-74085057D01*
X138295285Y-74085057D02*
X138342904Y-74180295D01*
X138342904Y-74180295D02*
X138390523Y-74370771D01*
X138390523Y-74370771D02*
X138390523Y-74608866D01*
X138390523Y-74608866D02*
X138342904Y-74799342D01*
X138342904Y-74799342D02*
X138295285Y-74894580D01*
X138295285Y-74894580D02*
X138247666Y-74942200D01*
X138247666Y-74942200D02*
X138152428Y-74989819D01*
X138152428Y-74989819D02*
X138057190Y-74989819D01*
X138057190Y-74989819D02*
X137961952Y-74942200D01*
X137961952Y-74942200D02*
X137914333Y-74894580D01*
X137914333Y-74894580D02*
X137866714Y-74799342D01*
X137866714Y-74799342D02*
X137819095Y-74608866D01*
X137819095Y-74608866D02*
X137819095Y-74370771D01*
X137819095Y-74370771D02*
X137866714Y-74180295D01*
X137866714Y-74180295D02*
X137914333Y-74085057D01*
X137914333Y-74085057D02*
X137961952Y-74037438D01*
X137961952Y-74037438D02*
X138057190Y-73989819D01*
X138819095Y-74894580D02*
X138866714Y-74942200D01*
X138866714Y-74942200D02*
X138819095Y-74989819D01*
X138819095Y-74989819D02*
X138771476Y-74942200D01*
X138771476Y-74942200D02*
X138819095Y-74894580D01*
X138819095Y-74894580D02*
X138819095Y-74989819D01*
X139819094Y-74989819D02*
X139247666Y-74989819D01*
X139533380Y-74989819D02*
X139533380Y-73989819D01*
X139533380Y-73989819D02*
X139438142Y-74132676D01*
X139438142Y-74132676D02*
X139342904Y-74227914D01*
X139342904Y-74227914D02*
X139247666Y-74275533D01*
X141438142Y-74323152D02*
X141438142Y-74989819D01*
X141009571Y-74323152D02*
X141009571Y-74846961D01*
X141009571Y-74846961D02*
X141057190Y-74942200D01*
X141057190Y-74942200D02*
X141152428Y-74989819D01*
X141152428Y-74989819D02*
X141295285Y-74989819D01*
X141295285Y-74989819D02*
X141390523Y-74942200D01*
X141390523Y-74942200D02*
X141438142Y-74894580D01*
X142247666Y-74466009D02*
X141914333Y-74466009D01*
X141914333Y-74989819D02*
X141914333Y-73989819D01*
X141914333Y-73989819D02*
X142390523Y-73989819D01*
X164465237Y-74651009D02*
X164131904Y-74651009D01*
X164131904Y-75174819D02*
X164131904Y-74174819D01*
X164131904Y-74174819D02*
X164608094Y-74174819D01*
X165417618Y-74508152D02*
X165417618Y-75174819D01*
X165179523Y-74127200D02*
X164941428Y-74841485D01*
X164941428Y-74841485D02*
X165560475Y-74841485D01*
X166846190Y-75174819D02*
X166750952Y-75127200D01*
X166750952Y-75127200D02*
X166703333Y-75079580D01*
X166703333Y-75079580D02*
X166655714Y-74984342D01*
X166655714Y-74984342D02*
X166655714Y-74698628D01*
X166655714Y-74698628D02*
X166703333Y-74603390D01*
X166703333Y-74603390D02*
X166750952Y-74555771D01*
X166750952Y-74555771D02*
X166846190Y-74508152D01*
X166846190Y-74508152D02*
X166989047Y-74508152D01*
X166989047Y-74508152D02*
X167084285Y-74555771D01*
X167084285Y-74555771D02*
X167131904Y-74603390D01*
X167131904Y-74603390D02*
X167179523Y-74698628D01*
X167179523Y-74698628D02*
X167179523Y-74984342D01*
X167179523Y-74984342D02*
X167131904Y-75079580D01*
X167131904Y-75079580D02*
X167084285Y-75127200D01*
X167084285Y-75127200D02*
X166989047Y-75174819D01*
X166989047Y-75174819D02*
X166846190Y-75174819D01*
X168036666Y-74508152D02*
X168036666Y-75174819D01*
X167608095Y-74508152D02*
X167608095Y-75031961D01*
X167608095Y-75031961D02*
X167655714Y-75127200D01*
X167655714Y-75127200D02*
X167750952Y-75174819D01*
X167750952Y-75174819D02*
X167893809Y-75174819D01*
X167893809Y-75174819D02*
X167989047Y-75127200D01*
X167989047Y-75127200D02*
X168036666Y-75079580D01*
X168370000Y-74508152D02*
X168750952Y-74508152D01*
X168512857Y-74174819D02*
X168512857Y-75031961D01*
X168512857Y-75031961D02*
X168560476Y-75127200D01*
X168560476Y-75127200D02*
X168655714Y-75174819D01*
X168655714Y-75174819D02*
X168750952Y-75174819D01*
X126825714Y-88590057D02*
X126873333Y-88542438D01*
X126873333Y-88542438D02*
X126968571Y-88494819D01*
X126968571Y-88494819D02*
X127206666Y-88494819D01*
X127206666Y-88494819D02*
X127301904Y-88542438D01*
X127301904Y-88542438D02*
X127349523Y-88590057D01*
X127349523Y-88590057D02*
X127397142Y-88685295D01*
X127397142Y-88685295D02*
X127397142Y-88780533D01*
X127397142Y-88780533D02*
X127349523Y-88923390D01*
X127349523Y-88923390D02*
X126778095Y-89494819D01*
X126778095Y-89494819D02*
X127397142Y-89494819D01*
X127825714Y-89494819D02*
X127825714Y-88494819D01*
X127825714Y-88494819D02*
X128397142Y-89494819D01*
X128397142Y-89494819D02*
X128397142Y-88494819D01*
X128778095Y-88494819D02*
X129397142Y-88494819D01*
X129397142Y-88494819D02*
X129063809Y-88875771D01*
X129063809Y-88875771D02*
X129206666Y-88875771D01*
X129206666Y-88875771D02*
X129301904Y-88923390D01*
X129301904Y-88923390D02*
X129349523Y-88971009D01*
X129349523Y-88971009D02*
X129397142Y-89066247D01*
X129397142Y-89066247D02*
X129397142Y-89304342D01*
X129397142Y-89304342D02*
X129349523Y-89399580D01*
X129349523Y-89399580D02*
X129301904Y-89447200D01*
X129301904Y-89447200D02*
X129206666Y-89494819D01*
X129206666Y-89494819D02*
X128920952Y-89494819D01*
X128920952Y-89494819D02*
X128825714Y-89447200D01*
X128825714Y-89447200D02*
X128778095Y-89399580D01*
X129873333Y-89494819D02*
X130063809Y-89494819D01*
X130063809Y-89494819D02*
X130159047Y-89447200D01*
X130159047Y-89447200D02*
X130206666Y-89399580D01*
X130206666Y-89399580D02*
X130301904Y-89256723D01*
X130301904Y-89256723D02*
X130349523Y-89066247D01*
X130349523Y-89066247D02*
X130349523Y-88685295D01*
X130349523Y-88685295D02*
X130301904Y-88590057D01*
X130301904Y-88590057D02*
X130254285Y-88542438D01*
X130254285Y-88542438D02*
X130159047Y-88494819D01*
X130159047Y-88494819D02*
X129968571Y-88494819D01*
X129968571Y-88494819D02*
X129873333Y-88542438D01*
X129873333Y-88542438D02*
X129825714Y-88590057D01*
X129825714Y-88590057D02*
X129778095Y-88685295D01*
X129778095Y-88685295D02*
X129778095Y-88923390D01*
X129778095Y-88923390D02*
X129825714Y-89018628D01*
X129825714Y-89018628D02*
X129873333Y-89066247D01*
X129873333Y-89066247D02*
X129968571Y-89113866D01*
X129968571Y-89113866D02*
X130159047Y-89113866D01*
X130159047Y-89113866D02*
X130254285Y-89066247D01*
X130254285Y-89066247D02*
X130301904Y-89018628D01*
X130301904Y-89018628D02*
X130349523Y-88923390D01*
X130968571Y-88494819D02*
X131063809Y-88494819D01*
X131063809Y-88494819D02*
X131159047Y-88542438D01*
X131159047Y-88542438D02*
X131206666Y-88590057D01*
X131206666Y-88590057D02*
X131254285Y-88685295D01*
X131254285Y-88685295D02*
X131301904Y-88875771D01*
X131301904Y-88875771D02*
X131301904Y-89113866D01*
X131301904Y-89113866D02*
X131254285Y-89304342D01*
X131254285Y-89304342D02*
X131206666Y-89399580D01*
X131206666Y-89399580D02*
X131159047Y-89447200D01*
X131159047Y-89447200D02*
X131063809Y-89494819D01*
X131063809Y-89494819D02*
X130968571Y-89494819D01*
X130968571Y-89494819D02*
X130873333Y-89447200D01*
X130873333Y-89447200D02*
X130825714Y-89399580D01*
X130825714Y-89399580D02*
X130778095Y-89304342D01*
X130778095Y-89304342D02*
X130730476Y-89113866D01*
X130730476Y-89113866D02*
X130730476Y-88875771D01*
X130730476Y-88875771D02*
X130778095Y-88685295D01*
X130778095Y-88685295D02*
X130825714Y-88590057D01*
X130825714Y-88590057D02*
X130873333Y-88542438D01*
X130873333Y-88542438D02*
X130968571Y-88494819D01*
X132159047Y-88828152D02*
X132159047Y-89494819D01*
X131920952Y-88447200D02*
X131682857Y-89161485D01*
X131682857Y-89161485D02*
X132301904Y-89161485D01*
X164465237Y-122911009D02*
X164131904Y-122911009D01*
X164131904Y-123434819D02*
X164131904Y-122434819D01*
X164131904Y-122434819D02*
X164608094Y-122434819D01*
X165512856Y-123434819D02*
X164941428Y-123434819D01*
X165227142Y-123434819D02*
X165227142Y-122434819D01*
X165227142Y-122434819D02*
X165131904Y-122577676D01*
X165131904Y-122577676D02*
X165036666Y-122672914D01*
X165036666Y-122672914D02*
X164941428Y-122720533D01*
X166846190Y-123434819D02*
X166750952Y-123387200D01*
X166750952Y-123387200D02*
X166703333Y-123339580D01*
X166703333Y-123339580D02*
X166655714Y-123244342D01*
X166655714Y-123244342D02*
X166655714Y-122958628D01*
X166655714Y-122958628D02*
X166703333Y-122863390D01*
X166703333Y-122863390D02*
X166750952Y-122815771D01*
X166750952Y-122815771D02*
X166846190Y-122768152D01*
X166846190Y-122768152D02*
X166989047Y-122768152D01*
X166989047Y-122768152D02*
X167084285Y-122815771D01*
X167084285Y-122815771D02*
X167131904Y-122863390D01*
X167131904Y-122863390D02*
X167179523Y-122958628D01*
X167179523Y-122958628D02*
X167179523Y-123244342D01*
X167179523Y-123244342D02*
X167131904Y-123339580D01*
X167131904Y-123339580D02*
X167084285Y-123387200D01*
X167084285Y-123387200D02*
X166989047Y-123434819D01*
X166989047Y-123434819D02*
X166846190Y-123434819D01*
X168036666Y-122768152D02*
X168036666Y-123434819D01*
X167608095Y-122768152D02*
X167608095Y-123291961D01*
X167608095Y-123291961D02*
X167655714Y-123387200D01*
X167655714Y-123387200D02*
X167750952Y-123434819D01*
X167750952Y-123434819D02*
X167893809Y-123434819D01*
X167893809Y-123434819D02*
X167989047Y-123387200D01*
X167989047Y-123387200D02*
X168036666Y-123339580D01*
X168370000Y-122768152D02*
X168750952Y-122768152D01*
X168512857Y-122434819D02*
X168512857Y-123291961D01*
X168512857Y-123291961D02*
X168560476Y-123387200D01*
X168560476Y-123387200D02*
X168655714Y-123434819D01*
X168655714Y-123434819D02*
X168750952Y-123434819D01*
X146415713Y-80154819D02*
X145939523Y-80154819D01*
X145939523Y-80154819D02*
X145939523Y-79154819D01*
X146653809Y-79154819D02*
X147320475Y-79154819D01*
X147320475Y-79154819D02*
X146891904Y-80154819D01*
X147844285Y-79583390D02*
X147749047Y-79535771D01*
X147749047Y-79535771D02*
X147701428Y-79488152D01*
X147701428Y-79488152D02*
X147653809Y-79392914D01*
X147653809Y-79392914D02*
X147653809Y-79345295D01*
X147653809Y-79345295D02*
X147701428Y-79250057D01*
X147701428Y-79250057D02*
X147749047Y-79202438D01*
X147749047Y-79202438D02*
X147844285Y-79154819D01*
X147844285Y-79154819D02*
X148034761Y-79154819D01*
X148034761Y-79154819D02*
X148129999Y-79202438D01*
X148129999Y-79202438D02*
X148177618Y-79250057D01*
X148177618Y-79250057D02*
X148225237Y-79345295D01*
X148225237Y-79345295D02*
X148225237Y-79392914D01*
X148225237Y-79392914D02*
X148177618Y-79488152D01*
X148177618Y-79488152D02*
X148129999Y-79535771D01*
X148129999Y-79535771D02*
X148034761Y-79583390D01*
X148034761Y-79583390D02*
X147844285Y-79583390D01*
X147844285Y-79583390D02*
X147749047Y-79631009D01*
X147749047Y-79631009D02*
X147701428Y-79678628D01*
X147701428Y-79678628D02*
X147653809Y-79773866D01*
X147653809Y-79773866D02*
X147653809Y-79964342D01*
X147653809Y-79964342D02*
X147701428Y-80059580D01*
X147701428Y-80059580D02*
X147749047Y-80107200D01*
X147749047Y-80107200D02*
X147844285Y-80154819D01*
X147844285Y-80154819D02*
X148034761Y-80154819D01*
X148034761Y-80154819D02*
X148129999Y-80107200D01*
X148129999Y-80107200D02*
X148177618Y-80059580D01*
X148177618Y-80059580D02*
X148225237Y-79964342D01*
X148225237Y-79964342D02*
X148225237Y-79773866D01*
X148225237Y-79773866D02*
X148177618Y-79678628D01*
X148177618Y-79678628D02*
X148129999Y-79631009D01*
X148129999Y-79631009D02*
X148034761Y-79583390D01*
X149129999Y-80154819D02*
X148653809Y-80154819D01*
X148653809Y-80154819D02*
X148653809Y-79154819D01*
X149653809Y-79154819D02*
X149749047Y-79154819D01*
X149749047Y-79154819D02*
X149844285Y-79202438D01*
X149844285Y-79202438D02*
X149891904Y-79250057D01*
X149891904Y-79250057D02*
X149939523Y-79345295D01*
X149939523Y-79345295D02*
X149987142Y-79535771D01*
X149987142Y-79535771D02*
X149987142Y-79773866D01*
X149987142Y-79773866D02*
X149939523Y-79964342D01*
X149939523Y-79964342D02*
X149891904Y-80059580D01*
X149891904Y-80059580D02*
X149844285Y-80107200D01*
X149844285Y-80107200D02*
X149749047Y-80154819D01*
X149749047Y-80154819D02*
X149653809Y-80154819D01*
X149653809Y-80154819D02*
X149558571Y-80107200D01*
X149558571Y-80107200D02*
X149510952Y-80059580D01*
X149510952Y-80059580D02*
X149463333Y-79964342D01*
X149463333Y-79964342D02*
X149415714Y-79773866D01*
X149415714Y-79773866D02*
X149415714Y-79535771D01*
X149415714Y-79535771D02*
X149463333Y-79345295D01*
X149463333Y-79345295D02*
X149510952Y-79250057D01*
X149510952Y-79250057D02*
X149558571Y-79202438D01*
X149558571Y-79202438D02*
X149653809Y-79154819D01*
X150891904Y-79154819D02*
X150415714Y-79154819D01*
X150415714Y-79154819D02*
X150368095Y-79631009D01*
X150368095Y-79631009D02*
X150415714Y-79583390D01*
X150415714Y-79583390D02*
X150510952Y-79535771D01*
X150510952Y-79535771D02*
X150749047Y-79535771D01*
X150749047Y-79535771D02*
X150844285Y-79583390D01*
X150844285Y-79583390D02*
X150891904Y-79631009D01*
X150891904Y-79631009D02*
X150939523Y-79726247D01*
X150939523Y-79726247D02*
X150939523Y-79964342D01*
X150939523Y-79964342D02*
X150891904Y-80059580D01*
X150891904Y-80059580D02*
X150844285Y-80107200D01*
X150844285Y-80107200D02*
X150749047Y-80154819D01*
X150749047Y-80154819D02*
X150510952Y-80154819D01*
X150510952Y-80154819D02*
X150415714Y-80107200D01*
X150415714Y-80107200D02*
X150368095Y-80059580D01*
X151130000Y-80250057D02*
X151891904Y-80250057D01*
X152082381Y-80107200D02*
X152225238Y-80154819D01*
X152225238Y-80154819D02*
X152463333Y-80154819D01*
X152463333Y-80154819D02*
X152558571Y-80107200D01*
X152558571Y-80107200D02*
X152606190Y-80059580D01*
X152606190Y-80059580D02*
X152653809Y-79964342D01*
X152653809Y-79964342D02*
X152653809Y-79869104D01*
X152653809Y-79869104D02*
X152606190Y-79773866D01*
X152606190Y-79773866D02*
X152558571Y-79726247D01*
X152558571Y-79726247D02*
X152463333Y-79678628D01*
X152463333Y-79678628D02*
X152272857Y-79631009D01*
X152272857Y-79631009D02*
X152177619Y-79583390D01*
X152177619Y-79583390D02*
X152130000Y-79535771D01*
X152130000Y-79535771D02*
X152082381Y-79440533D01*
X152082381Y-79440533D02*
X152082381Y-79345295D01*
X152082381Y-79345295D02*
X152130000Y-79250057D01*
X152130000Y-79250057D02*
X152177619Y-79202438D01*
X152177619Y-79202438D02*
X152272857Y-79154819D01*
X152272857Y-79154819D02*
X152510952Y-79154819D01*
X152510952Y-79154819D02*
X152653809Y-79202438D01*
X153272857Y-79154819D02*
X153463333Y-79154819D01*
X153463333Y-79154819D02*
X153558571Y-79202438D01*
X153558571Y-79202438D02*
X153653809Y-79297676D01*
X153653809Y-79297676D02*
X153701428Y-79488152D01*
X153701428Y-79488152D02*
X153701428Y-79821485D01*
X153701428Y-79821485D02*
X153653809Y-80011961D01*
X153653809Y-80011961D02*
X153558571Y-80107200D01*
X153558571Y-80107200D02*
X153463333Y-80154819D01*
X153463333Y-80154819D02*
X153272857Y-80154819D01*
X153272857Y-80154819D02*
X153177619Y-80107200D01*
X153177619Y-80107200D02*
X153082381Y-80011961D01*
X153082381Y-80011961D02*
X153034762Y-79821485D01*
X153034762Y-79821485D02*
X153034762Y-79488152D01*
X153034762Y-79488152D02*
X153082381Y-79297676D01*
X153082381Y-79297676D02*
X153177619Y-79202438D01*
X153177619Y-79202438D02*
X153272857Y-79154819D01*
X153987143Y-79154819D02*
X154558571Y-79154819D01*
X154272857Y-80154819D02*
X154272857Y-79154819D01*
X155034762Y-79583390D02*
X154939524Y-79535771D01*
X154939524Y-79535771D02*
X154891905Y-79488152D01*
X154891905Y-79488152D02*
X154844286Y-79392914D01*
X154844286Y-79392914D02*
X154844286Y-79345295D01*
X154844286Y-79345295D02*
X154891905Y-79250057D01*
X154891905Y-79250057D02*
X154939524Y-79202438D01*
X154939524Y-79202438D02*
X155034762Y-79154819D01*
X155034762Y-79154819D02*
X155225238Y-79154819D01*
X155225238Y-79154819D02*
X155320476Y-79202438D01*
X155320476Y-79202438D02*
X155368095Y-79250057D01*
X155368095Y-79250057D02*
X155415714Y-79345295D01*
X155415714Y-79345295D02*
X155415714Y-79392914D01*
X155415714Y-79392914D02*
X155368095Y-79488152D01*
X155368095Y-79488152D02*
X155320476Y-79535771D01*
X155320476Y-79535771D02*
X155225238Y-79583390D01*
X155225238Y-79583390D02*
X155034762Y-79583390D01*
X155034762Y-79583390D02*
X154939524Y-79631009D01*
X154939524Y-79631009D02*
X154891905Y-79678628D01*
X154891905Y-79678628D02*
X154844286Y-79773866D01*
X154844286Y-79773866D02*
X154844286Y-79964342D01*
X154844286Y-79964342D02*
X154891905Y-80059580D01*
X154891905Y-80059580D02*
X154939524Y-80107200D01*
X154939524Y-80107200D02*
X155034762Y-80154819D01*
X155034762Y-80154819D02*
X155225238Y-80154819D01*
X155225238Y-80154819D02*
X155320476Y-80107200D01*
X155320476Y-80107200D02*
X155368095Y-80059580D01*
X155368095Y-80059580D02*
X155415714Y-79964342D01*
X155415714Y-79964342D02*
X155415714Y-79773866D01*
X155415714Y-79773866D02*
X155368095Y-79678628D01*
X155368095Y-79678628D02*
X155320476Y-79631009D01*
X155320476Y-79631009D02*
X155225238Y-79583390D01*
X155891905Y-80154819D02*
X156082381Y-80154819D01*
X156082381Y-80154819D02*
X156177619Y-80107200D01*
X156177619Y-80107200D02*
X156225238Y-80059580D01*
X156225238Y-80059580D02*
X156320476Y-79916723D01*
X156320476Y-79916723D02*
X156368095Y-79726247D01*
X156368095Y-79726247D02*
X156368095Y-79345295D01*
X156368095Y-79345295D02*
X156320476Y-79250057D01*
X156320476Y-79250057D02*
X156272857Y-79202438D01*
X156272857Y-79202438D02*
X156177619Y-79154819D01*
X156177619Y-79154819D02*
X155987143Y-79154819D01*
X155987143Y-79154819D02*
X155891905Y-79202438D01*
X155891905Y-79202438D02*
X155844286Y-79250057D01*
X155844286Y-79250057D02*
X155796667Y-79345295D01*
X155796667Y-79345295D02*
X155796667Y-79583390D01*
X155796667Y-79583390D02*
X155844286Y-79678628D01*
X155844286Y-79678628D02*
X155891905Y-79726247D01*
X155891905Y-79726247D02*
X155987143Y-79773866D01*
X155987143Y-79773866D02*
X156177619Y-79773866D01*
X156177619Y-79773866D02*
X156272857Y-79726247D01*
X156272857Y-79726247D02*
X156320476Y-79678628D01*
X156320476Y-79678628D02*
X156368095Y-79583390D01*
X90035238Y-122911009D02*
X89701905Y-122911009D01*
X89701905Y-123434819D02*
X89701905Y-122434819D01*
X89701905Y-122434819D02*
X90178095Y-122434819D01*
X91082857Y-123434819D02*
X90511429Y-123434819D01*
X90797143Y-123434819D02*
X90797143Y-122434819D01*
X90797143Y-122434819D02*
X90701905Y-122577676D01*
X90701905Y-122577676D02*
X90606667Y-122672914D01*
X90606667Y-122672914D02*
X90511429Y-122720533D01*
X92273334Y-123434819D02*
X92273334Y-122768152D01*
X92273334Y-122434819D02*
X92225715Y-122482438D01*
X92225715Y-122482438D02*
X92273334Y-122530057D01*
X92273334Y-122530057D02*
X92320953Y-122482438D01*
X92320953Y-122482438D02*
X92273334Y-122434819D01*
X92273334Y-122434819D02*
X92273334Y-122530057D01*
X92749524Y-122768152D02*
X92749524Y-123434819D01*
X92749524Y-122863390D02*
X92797143Y-122815771D01*
X92797143Y-122815771D02*
X92892381Y-122768152D01*
X92892381Y-122768152D02*
X93035238Y-122768152D01*
X93035238Y-122768152D02*
X93130476Y-122815771D01*
X93130476Y-122815771D02*
X93178095Y-122911009D01*
X93178095Y-122911009D02*
X93178095Y-123434819D01*
X135199523Y-94174819D02*
X134628095Y-94174819D01*
X134913809Y-94174819D02*
X134913809Y-93174819D01*
X134913809Y-93174819D02*
X134818571Y-93317676D01*
X134818571Y-93317676D02*
X134723333Y-93412914D01*
X134723333Y-93412914D02*
X134628095Y-93460533D01*
X135818571Y-93174819D02*
X135913809Y-93174819D01*
X135913809Y-93174819D02*
X136009047Y-93222438D01*
X136009047Y-93222438D02*
X136056666Y-93270057D01*
X136056666Y-93270057D02*
X136104285Y-93365295D01*
X136104285Y-93365295D02*
X136151904Y-93555771D01*
X136151904Y-93555771D02*
X136151904Y-93793866D01*
X136151904Y-93793866D02*
X136104285Y-93984342D01*
X136104285Y-93984342D02*
X136056666Y-94079580D01*
X136056666Y-94079580D02*
X136009047Y-94127200D01*
X136009047Y-94127200D02*
X135913809Y-94174819D01*
X135913809Y-94174819D02*
X135818571Y-94174819D01*
X135818571Y-94174819D02*
X135723333Y-94127200D01*
X135723333Y-94127200D02*
X135675714Y-94079580D01*
X135675714Y-94079580D02*
X135628095Y-93984342D01*
X135628095Y-93984342D02*
X135580476Y-93793866D01*
X135580476Y-93793866D02*
X135580476Y-93555771D01*
X135580476Y-93555771D02*
X135628095Y-93365295D01*
X135628095Y-93365295D02*
X135675714Y-93270057D01*
X135675714Y-93270057D02*
X135723333Y-93222438D01*
X135723333Y-93222438D02*
X135818571Y-93174819D01*
X136580476Y-94174819D02*
X136580476Y-93174819D01*
X137151904Y-94174819D02*
X136723333Y-93603390D01*
X137151904Y-93174819D02*
X136580476Y-93746247D01*
X156535618Y-76033819D02*
X155964190Y-76033819D01*
X156249904Y-76033819D02*
X156249904Y-75033819D01*
X156249904Y-75033819D02*
X156154666Y-75176676D01*
X156154666Y-75176676D02*
X156059428Y-75271914D01*
X156059428Y-75271914D02*
X155964190Y-75319533D01*
X157154666Y-75033819D02*
X157249904Y-75033819D01*
X157249904Y-75033819D02*
X157345142Y-75081438D01*
X157345142Y-75081438D02*
X157392761Y-75129057D01*
X157392761Y-75129057D02*
X157440380Y-75224295D01*
X157440380Y-75224295D02*
X157487999Y-75414771D01*
X157487999Y-75414771D02*
X157487999Y-75652866D01*
X157487999Y-75652866D02*
X157440380Y-75843342D01*
X157440380Y-75843342D02*
X157392761Y-75938580D01*
X157392761Y-75938580D02*
X157345142Y-75986200D01*
X157345142Y-75986200D02*
X157249904Y-76033819D01*
X157249904Y-76033819D02*
X157154666Y-76033819D01*
X157154666Y-76033819D02*
X157059428Y-75986200D01*
X157059428Y-75986200D02*
X157011809Y-75938580D01*
X157011809Y-75938580D02*
X156964190Y-75843342D01*
X156964190Y-75843342D02*
X156916571Y-75652866D01*
X156916571Y-75652866D02*
X156916571Y-75414771D01*
X156916571Y-75414771D02*
X156964190Y-75224295D01*
X156964190Y-75224295D02*
X157011809Y-75129057D01*
X157011809Y-75129057D02*
X157059428Y-75081438D01*
X157059428Y-75081438D02*
X157154666Y-75033819D01*
X159107047Y-75367152D02*
X159107047Y-76033819D01*
X158678476Y-75367152D02*
X158678476Y-75890961D01*
X158678476Y-75890961D02*
X158726095Y-75986200D01*
X158726095Y-75986200D02*
X158821333Y-76033819D01*
X158821333Y-76033819D02*
X158964190Y-76033819D01*
X158964190Y-76033819D02*
X159059428Y-75986200D01*
X159059428Y-75986200D02*
X159107047Y-75938580D01*
X159916571Y-75510009D02*
X159583238Y-75510009D01*
X159583238Y-76033819D02*
X159583238Y-75033819D01*
X159583238Y-75033819D02*
X160059428Y-75033819D01*
X90035238Y-90737709D02*
X89701905Y-90737709D01*
X89701905Y-91261519D02*
X89701905Y-90261519D01*
X89701905Y-90261519D02*
X90178095Y-90261519D01*
X90463810Y-90261519D02*
X91082857Y-90261519D01*
X91082857Y-90261519D02*
X90749524Y-90642471D01*
X90749524Y-90642471D02*
X90892381Y-90642471D01*
X90892381Y-90642471D02*
X90987619Y-90690090D01*
X90987619Y-90690090D02*
X91035238Y-90737709D01*
X91035238Y-90737709D02*
X91082857Y-90832947D01*
X91082857Y-90832947D02*
X91082857Y-91071042D01*
X91082857Y-91071042D02*
X91035238Y-91166280D01*
X91035238Y-91166280D02*
X90987619Y-91213900D01*
X90987619Y-91213900D02*
X90892381Y-91261519D01*
X90892381Y-91261519D02*
X90606667Y-91261519D01*
X90606667Y-91261519D02*
X90511429Y-91213900D01*
X90511429Y-91213900D02*
X90463810Y-91166280D01*
X92273334Y-91261519D02*
X92273334Y-90594852D01*
X92273334Y-90261519D02*
X92225715Y-90309138D01*
X92225715Y-90309138D02*
X92273334Y-90356757D01*
X92273334Y-90356757D02*
X92320953Y-90309138D01*
X92320953Y-90309138D02*
X92273334Y-90261519D01*
X92273334Y-90261519D02*
X92273334Y-90356757D01*
X92749524Y-90594852D02*
X92749524Y-91261519D01*
X92749524Y-90690090D02*
X92797143Y-90642471D01*
X92797143Y-90642471D02*
X92892381Y-90594852D01*
X92892381Y-90594852D02*
X93035238Y-90594852D01*
X93035238Y-90594852D02*
X93130476Y-90642471D01*
X93130476Y-90642471D02*
X93178095Y-90737709D01*
X93178095Y-90737709D02*
X93178095Y-91261519D01*
X126825714Y-79700057D02*
X126873333Y-79652438D01*
X126873333Y-79652438D02*
X126968571Y-79604819D01*
X126968571Y-79604819D02*
X127206666Y-79604819D01*
X127206666Y-79604819D02*
X127301904Y-79652438D01*
X127301904Y-79652438D02*
X127349523Y-79700057D01*
X127349523Y-79700057D02*
X127397142Y-79795295D01*
X127397142Y-79795295D02*
X127397142Y-79890533D01*
X127397142Y-79890533D02*
X127349523Y-80033390D01*
X127349523Y-80033390D02*
X126778095Y-80604819D01*
X126778095Y-80604819D02*
X127397142Y-80604819D01*
X127825714Y-80604819D02*
X127825714Y-79604819D01*
X127825714Y-79604819D02*
X128397142Y-80604819D01*
X128397142Y-80604819D02*
X128397142Y-79604819D01*
X128778095Y-79604819D02*
X129397142Y-79604819D01*
X129397142Y-79604819D02*
X129063809Y-79985771D01*
X129063809Y-79985771D02*
X129206666Y-79985771D01*
X129206666Y-79985771D02*
X129301904Y-80033390D01*
X129301904Y-80033390D02*
X129349523Y-80081009D01*
X129349523Y-80081009D02*
X129397142Y-80176247D01*
X129397142Y-80176247D02*
X129397142Y-80414342D01*
X129397142Y-80414342D02*
X129349523Y-80509580D01*
X129349523Y-80509580D02*
X129301904Y-80557200D01*
X129301904Y-80557200D02*
X129206666Y-80604819D01*
X129206666Y-80604819D02*
X128920952Y-80604819D01*
X128920952Y-80604819D02*
X128825714Y-80557200D01*
X128825714Y-80557200D02*
X128778095Y-80509580D01*
X129873333Y-80604819D02*
X130063809Y-80604819D01*
X130063809Y-80604819D02*
X130159047Y-80557200D01*
X130159047Y-80557200D02*
X130206666Y-80509580D01*
X130206666Y-80509580D02*
X130301904Y-80366723D01*
X130301904Y-80366723D02*
X130349523Y-80176247D01*
X130349523Y-80176247D02*
X130349523Y-79795295D01*
X130349523Y-79795295D02*
X130301904Y-79700057D01*
X130301904Y-79700057D02*
X130254285Y-79652438D01*
X130254285Y-79652438D02*
X130159047Y-79604819D01*
X130159047Y-79604819D02*
X129968571Y-79604819D01*
X129968571Y-79604819D02*
X129873333Y-79652438D01*
X129873333Y-79652438D02*
X129825714Y-79700057D01*
X129825714Y-79700057D02*
X129778095Y-79795295D01*
X129778095Y-79795295D02*
X129778095Y-80033390D01*
X129778095Y-80033390D02*
X129825714Y-80128628D01*
X129825714Y-80128628D02*
X129873333Y-80176247D01*
X129873333Y-80176247D02*
X129968571Y-80223866D01*
X129968571Y-80223866D02*
X130159047Y-80223866D01*
X130159047Y-80223866D02*
X130254285Y-80176247D01*
X130254285Y-80176247D02*
X130301904Y-80128628D01*
X130301904Y-80128628D02*
X130349523Y-80033390D01*
X130968571Y-79604819D02*
X131063809Y-79604819D01*
X131063809Y-79604819D02*
X131159047Y-79652438D01*
X131159047Y-79652438D02*
X131206666Y-79700057D01*
X131206666Y-79700057D02*
X131254285Y-79795295D01*
X131254285Y-79795295D02*
X131301904Y-79985771D01*
X131301904Y-79985771D02*
X131301904Y-80223866D01*
X131301904Y-80223866D02*
X131254285Y-80414342D01*
X131254285Y-80414342D02*
X131206666Y-80509580D01*
X131206666Y-80509580D02*
X131159047Y-80557200D01*
X131159047Y-80557200D02*
X131063809Y-80604819D01*
X131063809Y-80604819D02*
X130968571Y-80604819D01*
X130968571Y-80604819D02*
X130873333Y-80557200D01*
X130873333Y-80557200D02*
X130825714Y-80509580D01*
X130825714Y-80509580D02*
X130778095Y-80414342D01*
X130778095Y-80414342D02*
X130730476Y-80223866D01*
X130730476Y-80223866D02*
X130730476Y-79985771D01*
X130730476Y-79985771D02*
X130778095Y-79795295D01*
X130778095Y-79795295D02*
X130825714Y-79700057D01*
X130825714Y-79700057D02*
X130873333Y-79652438D01*
X130873333Y-79652438D02*
X130968571Y-79604819D01*
X132159047Y-79938152D02*
X132159047Y-80604819D01*
X131920952Y-79557200D02*
X131682857Y-80271485D01*
X131682857Y-80271485D02*
X132301904Y-80271485D01*
X164465237Y-106824309D02*
X164131904Y-106824309D01*
X164131904Y-107348119D02*
X164131904Y-106348119D01*
X164131904Y-106348119D02*
X164608094Y-106348119D01*
X164941428Y-106443357D02*
X164989047Y-106395738D01*
X164989047Y-106395738D02*
X165084285Y-106348119D01*
X165084285Y-106348119D02*
X165322380Y-106348119D01*
X165322380Y-106348119D02*
X165417618Y-106395738D01*
X165417618Y-106395738D02*
X165465237Y-106443357D01*
X165465237Y-106443357D02*
X165512856Y-106538595D01*
X165512856Y-106538595D02*
X165512856Y-106633833D01*
X165512856Y-106633833D02*
X165465237Y-106776690D01*
X165465237Y-106776690D02*
X164893809Y-107348119D01*
X164893809Y-107348119D02*
X165512856Y-107348119D01*
X166846190Y-107348119D02*
X166750952Y-107300500D01*
X166750952Y-107300500D02*
X166703333Y-107252880D01*
X166703333Y-107252880D02*
X166655714Y-107157642D01*
X166655714Y-107157642D02*
X166655714Y-106871928D01*
X166655714Y-106871928D02*
X166703333Y-106776690D01*
X166703333Y-106776690D02*
X166750952Y-106729071D01*
X166750952Y-106729071D02*
X166846190Y-106681452D01*
X166846190Y-106681452D02*
X166989047Y-106681452D01*
X166989047Y-106681452D02*
X167084285Y-106729071D01*
X167084285Y-106729071D02*
X167131904Y-106776690D01*
X167131904Y-106776690D02*
X167179523Y-106871928D01*
X167179523Y-106871928D02*
X167179523Y-107157642D01*
X167179523Y-107157642D02*
X167131904Y-107252880D01*
X167131904Y-107252880D02*
X167084285Y-107300500D01*
X167084285Y-107300500D02*
X166989047Y-107348119D01*
X166989047Y-107348119D02*
X166846190Y-107348119D01*
X168036666Y-106681452D02*
X168036666Y-107348119D01*
X167608095Y-106681452D02*
X167608095Y-107205261D01*
X167608095Y-107205261D02*
X167655714Y-107300500D01*
X167655714Y-107300500D02*
X167750952Y-107348119D01*
X167750952Y-107348119D02*
X167893809Y-107348119D01*
X167893809Y-107348119D02*
X167989047Y-107300500D01*
X167989047Y-107300500D02*
X168036666Y-107252880D01*
X168370000Y-106681452D02*
X168750952Y-106681452D01*
X168512857Y-106348119D02*
X168512857Y-107205261D01*
X168512857Y-107205261D02*
X168560476Y-107300500D01*
X168560476Y-107300500D02*
X168655714Y-107348119D01*
X168655714Y-107348119D02*
X168750952Y-107348119D01*
D11*
X141552000Y-126820000D02*
X141552000Y-129720000D01*
X143457000Y-124915000D02*
X146357000Y-124915000D01*
X143457000Y-131625000D02*
X146357000Y-131625000D01*
X148262000Y-126820000D02*
X148262000Y-129720000D01*
X90110000Y-71060000D02*
X91440000Y-71060000D01*
X90110000Y-72390000D02*
X90110000Y-71060000D01*
X90110000Y-73660000D02*
X90110000Y-73720000D01*
X90110000Y-73660000D02*
X92770000Y-73660000D01*
X90110000Y-73720000D02*
X92770000Y-73720000D01*
X92770000Y-73660000D02*
X92770000Y-73720000D01*
X90110000Y-103233300D02*
X91440000Y-103233300D01*
X90110000Y-104563300D02*
X90110000Y-103233300D01*
X90110000Y-105833300D02*
X90110000Y-105893300D01*
X90110000Y-105833300D02*
X92770000Y-105833300D01*
X90110000Y-105893300D02*
X92770000Y-105893300D01*
X92770000Y-105833300D02*
X92770000Y-105893300D01*
X135358763Y-81195000D02*
X136806237Y-81195000D01*
X135358763Y-83905000D02*
X136806237Y-83905000D01*
X136458000Y-63440000D02*
X136458000Y-64770000D01*
X135128000Y-63440000D02*
X136458000Y-63440000D01*
X133858000Y-63440000D02*
X121098000Y-63440000D01*
X133858000Y-63440000D02*
X133858000Y-66100000D01*
X121098000Y-63440000D02*
X121098000Y-66100000D01*
X133858000Y-66100000D02*
X121098000Y-66100000D01*
X122466263Y-90085000D02*
X123913737Y-90085000D01*
X122466263Y-92795000D02*
X123913737Y-92795000D01*
X117855000Y-84615000D02*
X117855000Y-81445000D01*
X117855000Y-81445000D02*
X113970000Y-81445000D01*
X113970000Y-84615000D02*
X117855000Y-84615000D01*
X113155000Y-75095000D02*
X113155000Y-78265000D01*
X113155000Y-78265000D02*
X117040000Y-78265000D01*
X117040000Y-75095000D02*
X113155000Y-75095000D01*
X117725000Y-91755000D02*
X117725000Y-88585000D01*
X117725000Y-88585000D02*
X113840000Y-88585000D01*
X113840000Y-91755000D02*
X117725000Y-91755000D01*
X129605000Y-100495000D02*
X126155000Y-100495000D01*
X129605000Y-100495000D02*
X131555000Y-100495000D01*
X129605000Y-110615000D02*
X127655000Y-110615000D01*
X129605000Y-110615000D02*
X131555000Y-110615000D01*
X113285000Y-95415000D02*
X113285000Y-98585000D01*
X113285000Y-98585000D02*
X117170000Y-98585000D01*
X117170000Y-95415000D02*
X113285000Y-95415000D01*
X116914000Y-126185000D02*
X116914000Y-129085000D01*
X118819000Y-124280000D02*
X121719000Y-124280000D01*
X118819000Y-130990000D02*
X121719000Y-130990000D01*
X123624000Y-126185000D02*
X123624000Y-129085000D01*
X165040000Y-87146700D02*
X166370000Y-87146700D01*
X165040000Y-88476700D02*
X165040000Y-87146700D01*
X165040000Y-89746700D02*
X165040000Y-89806700D01*
X165040000Y-89746700D02*
X167700000Y-89746700D01*
X165040000Y-89806700D02*
X167700000Y-89806700D01*
X167700000Y-89746700D02*
X167700000Y-89806700D01*
X122273763Y-81195000D02*
X123721237Y-81195000D01*
X122273763Y-83905000D02*
X123721237Y-83905000D01*
X140792252Y-78195000D02*
X139369748Y-78195000D01*
X140792252Y-75475000D02*
X139369748Y-75475000D01*
X165040000Y-71060000D02*
X166370000Y-71060000D01*
X165040000Y-72390000D02*
X165040000Y-71060000D01*
X165040000Y-73660000D02*
X165040000Y-73720000D01*
X165040000Y-73660000D02*
X167700000Y-73660000D01*
X165040000Y-73720000D02*
X167700000Y-73720000D01*
X167700000Y-73660000D02*
X167700000Y-73720000D01*
X129540000Y-93000000D02*
X131215000Y-93000000D01*
X129540000Y-93000000D02*
X128890000Y-93000000D01*
X129540000Y-89880000D02*
X130190000Y-89880000D01*
X129540000Y-89880000D02*
X128890000Y-89880000D01*
X165040000Y-119320000D02*
X166370000Y-119320000D01*
X165040000Y-120650000D02*
X165040000Y-119320000D01*
X165040000Y-121920000D02*
X165040000Y-121980000D01*
X165040000Y-121920000D02*
X167700000Y-121920000D01*
X165040000Y-121980000D02*
X167700000Y-121980000D01*
X167700000Y-121920000D02*
X167700000Y-121980000D01*
X148630000Y-74070000D02*
X149770000Y-74070000D01*
X149770000Y-73840000D02*
X149770000Y-74070000D01*
X149770000Y-73840000D02*
X152490000Y-73840000D01*
X149770000Y-78560000D02*
X149770000Y-78330000D01*
X152490000Y-73840000D02*
X152490000Y-75150000D01*
X152490000Y-77250000D02*
X152490000Y-78560000D01*
X152490000Y-78560000D02*
X149770000Y-78560000D01*
X90110000Y-119320000D02*
X91440000Y-119320000D01*
X90110000Y-120650000D02*
X90110000Y-119320000D01*
X90110000Y-121920000D02*
X90110000Y-121980000D01*
X90110000Y-121920000D02*
X92770000Y-121920000D01*
X90110000Y-121980000D02*
X92770000Y-121980000D01*
X92770000Y-121920000D02*
X92770000Y-121980000D01*
X135166263Y-90085000D02*
X136613737Y-90085000D01*
X135166263Y-92795000D02*
X136613737Y-92795000D01*
X157276748Y-71919000D02*
X158699252Y-71919000D01*
X157276748Y-74639000D02*
X158699252Y-74639000D01*
X90110000Y-87146700D02*
X91440000Y-87146700D01*
X90110000Y-88476700D02*
X90110000Y-87146700D01*
X90110000Y-89746700D02*
X90110000Y-89806700D01*
X90110000Y-89746700D02*
X92770000Y-89746700D01*
X90110000Y-89806700D02*
X92770000Y-89806700D01*
X92770000Y-89746700D02*
X92770000Y-89806700D01*
X129540000Y-84110000D02*
X131215000Y-84110000D01*
X129540000Y-84110000D02*
X128890000Y-84110000D01*
X129540000Y-80990000D02*
X130190000Y-80990000D01*
X129540000Y-80990000D02*
X128890000Y-80990000D01*
X165040000Y-103233300D02*
X166370000Y-103233300D01*
X165040000Y-104563300D02*
X165040000Y-103233300D01*
X165040000Y-105833300D02*
X165040000Y-105893300D01*
X165040000Y-105833300D02*
X167700000Y-105833300D01*
X165040000Y-105893300D02*
X167700000Y-105893300D01*
X167700000Y-105833300D02*
X167700000Y-105893300D01*
M02*
